<ttFont>
    <TTGlyph name=".notdef" xMin="16" yMin="-500" xMax="652" yMax="1050">
      <contour>
        <pt x="16" y="-500" on="1"/>
        <pt x="234" y="1050" on="1"/>
        <pt x="652" y="1050" on="1"/>
        <pt x="434" y="-500" on="1"/>
      </contour>
      <contour>
        <pt x="78" y="-448" on="1"/>
        <pt x="387" y="-448" on="1"/>
        <pt x="590" y="998" on="1"/>
        <pt x="281" y="998" on="1"/>
      </contour>
      <contour>
        <pt x="399" y="451" on="0"/>
        <pt x="445" y="401" on="0"/>
        <pt x="445" y="360" on="1"/>
        <pt x="445" y="351" on="0"/>
        <pt x="443" y="333" on="1"/>
        <pt x="436" y="281" on="0"/>
        <pt x="385" y="225" on="0"/>
        <pt x="334" y="218" on="1"/>
        <pt x="326" y="171" on="1"/>
        <pt x="325" y="161" on="0"/>
        <pt x="309" y="149" on="0"/>
        <pt x="301" y="149" on="1"/>
        <pt x="290" y="149" on="0"/>
        <pt x="276" y="164" on="0"/>
        <pt x="277" y="175" on="1"/>
        <pt x="287" y="257" on="1"/>
        <pt x="340" y="260" on="0"/>
        <pt x="385" y="296" on="0"/>
        <pt x="391" y="337" on="1"/>
        <pt x="392" y="345" on="0"/>
        <pt x="392" y="357" on="1"/>
        <pt x="392" y="380" on="0"/>
        <pt x="370" y="403" on="0"/>
        <pt x="342" y="403" on="1"/>
        <pt x="325" y="403" on="0"/>
        <pt x="301" y="398" on="0"/>
        <pt x="288" y="391" on="1"/>
        <pt x="275" y="389" on="1"/>
        <pt x="263" y="389" on="0"/>
        <pt x="250" y="404" on="0"/>
        <pt x="252" y="415" on="1"/>
        <pt x="254" y="433" on="0"/>
        <pt x="313" y="451" on="0"/>
        <pt x="346" y="451" on="1"/>
      </contour>
      <contour>
        <pt x="306" y="120" on="0"/>
        <pt x="324" y="102" on="0"/>
        <pt x="324" y="88" on="1"/>
        <pt x="324" y="71" on="0"/>
        <pt x="302" y="48" on="0"/>
        <pt x="287" y="48" on="1"/>
        <pt x="271" y="48" on="0"/>
        <pt x="253" y="71" on="0"/>
        <pt x="255" y="88" on="1"/>
        <pt x="256" y="102" on="0"/>
        <pt x="277" y="120" on="0"/>
        <pt x="291" y="120" on="1"/>
      </contour>
    </TTGlyph>
    <TTGlyph name="A" xMin="-21" yMin="0" xMax="509" yMax="685">
      <contour>
        <pt x="127" y="187" on="1"/>
        <pt x="40" y="0" on="1"/>
        <pt x="-21" y="0" on="1"/>
        <pt x="303" y="685" on="1"/>
        <pt x="378" y="685" on="1"/>
        <pt x="509" y="0" on="1"/>
        <pt x="447" y="0" on="1"/>
        <pt x="414" y="187" on="1"/>
      </contour>
      <contour>
        <pt x="334" y="636" on="1"/>
        <pt x="150" y="238" on="1"/>
        <pt x="405" y="238" on="1"/>
      </contour>
    </TTGlyph>
    <TTGlyph name="AE" xMin="-37" yMin="0" xMax="746" yMax="685">
      <contour>
        <pt x="439" y="379" on="1"/>
        <pt x="696" y="379" on="1"/>
        <pt x="689" y="330" on="1"/>
        <pt x="444" y="330" on="1"/>
        <pt x="477" y="50" on="1"/>
        <pt x="705" y="50" on="1"/>
        <pt x="697" y="0" on="1"/>
        <pt x="425" y="0" on="1"/>
        <pt x="405" y="184" on="1"/>
        <pt x="121" y="184" on="1"/>
        <pt x="26" y="0" on="1"/>
        <pt x="-37" y="0" on="1"/>
        <pt x="325" y="685" on="1"/>
        <pt x="746" y="685" on="1"/>
        <pt x="732" y="635" on="1"/>
        <pt x="409" y="635" on="1"/>
      </contour>
      <contour>
        <pt x="356" y="637" on="1"/>
        <pt x="147" y="234" on="1"/>
        <pt x="399" y="234" on="1"/>
      </contour>
    </TTGlyph>
    <TTGlyph name="AEacute" xMin="-37" yMin="0" xMax="746" yMax="888">
      <component glyphName="AE" x="0" y="0" flags="0x0"/>
      <component glyphName="acute.case" x="320" y="0" flags="0x0"/>
    </TTGlyph>
    <TTGlyph name="Aacute" xMin="-21" yMin="0" xMax="509" yMax="888">
      <component glyphName="A" x="0" y="0" flags="0x0"/>
      <component glyphName="acute.case" x="146" y="0" flags="0x0"/>
    </TTGlyph>
    <TTGlyph name="Abreve" xMin="-21" yMin="0" xMax="509" yMax="875">
      <component glyphName="A" x="0" y="0" flags="0x0"/>
      <component glyphName="breve.case" x="116" y="0" flags="0x0"/>
    </TTGlyph>
    <TTGlyph name="Acircumflex" xMin="-21" yMin="0" xMax="509" yMax="894">
      <component glyphName="A" x="0" y="0" flags="0x0"/>
      <component glyphName="circumflex.case" x="109" y="0" flags="0x0"/>
    </TTGlyph>
    <TTGlyph name="Adieresis" xMin="-21" yMin="0" xMax="509" yMax="868">
      <component glyphName="A" x="0" y="0" flags="0x0"/>
      <component glyphName="dieresis.case" x="156" y="0" flags="0x0"/>
    </TTGlyph>
    <TTGlyph name="Agrave" xMin="-21" yMin="0" xMax="509" yMax="888">
      <component glyphName="A" x="0" y="0" flags="0x0"/>
      <component glyphName="grave.case" x="146" y="0" flags="0x0"/>
    </TTGlyph>
    <TTGlyph name="Alpha" xMin="-21" yMin="0" xMax="509" yMax="685">
      <contour>
        <pt x="127" y="187" on="1"/>
        <pt x="40" y="0" on="1"/>
        <pt x="-21" y="0" on="1"/>
        <pt x="303" y="685" on="1"/>
        <pt x="378" y="685" on="1"/>
        <pt x="509" y="0" on="1"/>
        <pt x="447" y="0" on="1"/>
        <pt x="414" y="187" on="1"/>
      </contour>
      <contour>
        <pt x="334" y="636" on="1"/>
        <pt x="150" y="238" on="1"/>
        <pt x="405" y="238" on="1"/>
      </contour>
    </TTGlyph>
    <TTGlyph name="Alphatonos" xMin="-21" yMin="0" xMax="509" yMax="698">
      <component glyphName="A" x="0" y="0" flags="0x0"/>
      <component glyphName="tonos.case" x="45" y="0" flags="0x0"/>
    </TTGlyph>
    <TTGlyph name="Amacron" xMin="-21" yMin="0" xMax="509" yMax="849">
      <component glyphName="A" x="0" y="0" flags="0x0"/>
      <component glyphName="macron.case" x="170" y="0" flags="0x0"/>
    </TTGlyph>
    <TTGlyph name="Aogonek" xMin="-21" yMin="-218" xMax="509" yMax="685">
      <contour>
        <pt x="416" y="-32" on="0"/>
        <pt x="352" y="-90" on="0"/>
        <pt x="352" y="-125" on="1"/>
        <pt x="352" y="-169" on="0"/>
        <pt x="407" y="-169" on="1"/>
        <pt x="431" y="-169" on="0"/>
        <pt x="466" y="-163" on="1"/>
        <pt x="456" y="-212" on="1"/>
        <pt x="426" y="-218" on="0"/>
        <pt x="399" y="-218" on="1"/>
        <pt x="350" y="-218" on="0"/>
        <pt x="298" y="-172" on="0"/>
        <pt x="298" y="-136" on="1"/>
        <pt x="298" y="-88" on="0"/>
        <pt x="366" y="-17" on="0"/>
        <pt x="445" y="13" on="1"/>
        <pt x="414" y="187" on="1"/>
        <pt x="127" y="187" on="1"/>
        <pt x="40" y="0" on="1"/>
        <pt x="-21" y="0" on="1"/>
        <pt x="303" y="685" on="1"/>
        <pt x="378" y="685" on="1"/>
        <pt x="509" y="0" on="1"/>
        <pt x="492" y="0" on="1"/>
      </contour>
      <contour>
        <pt x="334" y="636" on="1"/>
        <pt x="150" y="238" on="1"/>
        <pt x="405" y="238" on="1"/>
      </contour>
    </TTGlyph>
    <TTGlyph name="Aring" xMin="-21" yMin="0" xMax="509" yMax="947">
      <component glyphName="A" x="0" y="0" flags="0x0"/>
      <component glyphName="ring.case" x="192" y="0" flags="0x0"/>
    </TTGlyph>
    <TTGlyph name="Atilde" xMin="-21" yMin="0" xMax="516" yMax="884">
      <component glyphName="A" x="0" y="0" flags="0x0"/>
      <component glyphName="tilde.case" x="140" y="0" flags="0x0"/>
    </TTGlyph>
    <TTGlyph name="B" xMin="74" yMin="0" xMax="547" yMax="685">
      <contour>
        <pt x="457" y="354" on="0"/>
        <pt x="534" y="285" on="0"/>
        <pt x="534" y="218" on="1"/>
        <pt x="534" y="125" on="0"/>
        <pt x="406" y="0" on="0"/>
        <pt x="261" y="0" on="1"/>
        <pt x="74" y="0" on="1"/>
        <pt x="170" y="685" on="1"/>
        <pt x="340" y="685" on="1"/>
        <pt x="436" y="685" on="0"/>
        <pt x="547" y="609" on="0"/>
        <pt x="547" y="535" on="1"/>
        <pt x="547" y="469" on="0"/>
        <pt x="468" y="376" on="0"/>
        <pt x="393" y="362" on="1"/>
      </contour>
      <contour>
        <pt x="187" y="384" on="1"/>
        <pt x="319" y="384" on="1"/>
        <pt x="373" y="384" on="0"/>
        <pt x="449" y="425" on="0"/>
        <pt x="487" y="493" on="0"/>
        <pt x="487" y="533" on="1"/>
        <pt x="487" y="635" on="0"/>
        <pt x="342" y="635" on="1"/>
        <pt x="222" y="635" on="1"/>
      </contour>
      <contour>
        <pt x="378" y="50" on="0"/>
        <pt x="472" y="146" on="0"/>
        <pt x="472" y="219" on="1"/>
        <pt x="472" y="279" on="0"/>
        <pt x="393" y="336" on="0"/>
        <pt x="324" y="336" on="1"/>
        <pt x="181" y="336" on="1"/>
        <pt x="141" y="50" on="1"/>
        <pt x="265" y="50" on="1"/>
      </contour>
    </TTGlyph>
    <TTGlyph name="Beta" xMin="74" yMin="0" xMax="547" yMax="685">
      <component glyphName="B" x="0" y="0" flags="0x0"/>
    </TTGlyph>
    <TTGlyph name="C" xMin="71" yMin="-11" xMax="569" yMax="696">
      <contour>
        <pt x="454" y="696" on="0"/>
        <pt x="534" y="664" on="0"/>
        <pt x="569" y="632" on="1"/>
        <pt x="532" y="594" on="1"/>
        <pt x="502" y="621" on="0"/>
        <pt x="442" y="645" on="0"/>
        <pt x="403" y="645" on="1"/>
        <pt x="309" y="645" on="0"/>
        <pt x="187" y="526" on="0"/>
        <pt x="133" y="349" on="0"/>
        <pt x="133" y="260" on="1"/>
        <pt x="133" y="151" on="0"/>
        <pt x="229" y="42" on="0"/>
        <pt x="309" y="42" on="1"/>
        <pt x="358" y="42" on="0"/>
        <pt x="429" y="72" on="0"/>
        <pt x="469" y="101" on="1"/>
        <pt x="497" y="58" on="1"/>
        <pt x="412" y="-11" on="0"/>
        <pt x="305" y="-11" on="1"/>
        <pt x="198" y="-11" on="0"/>
        <pt x="71" y="132" on="0"/>
        <pt x="71" y="263" on="1"/>
        <pt x="71" y="363" on="0"/>
        <pt x="140" y="562" on="0"/>
        <pt x="288" y="696" on="0"/>
        <pt x="399" y="696" on="1"/>
      </contour>
    </TTGlyph>
    <TTGlyph name="Cacute" xMin="71" yMin="-11" xMax="569" yMax="888">
      <component glyphName="C" x="0" y="0" flags="0x0"/>
      <component glyphName="acute.case" x="208" y="0" flags="0x0"/>
    </TTGlyph>
    <TTGlyph name="Cacute.loclPLK" xMin="71" yMin="-11" xMax="569" yMax="908">
      <component glyphName="C" x="0" y="0" flags="0x0"/>
      <component glyphName="acute.case.loclPLK" x="211" y="0" flags="0x0"/>
    </TTGlyph>
    <TTGlyph name="Ccaron" xMin="71" yMin="-11" xMax="569" yMax="888">
      <component glyphName="C" x="0" y="0" flags="0x0"/>
      <component glyphName="caron.case" x="161" y="0" flags="0x0"/>
    </TTGlyph>
    <TTGlyph name="Ccedilla" xMin="71" yMin="-227" xMax="569" yMax="696">
      <contour>
        <pt x="309" y="645" on="0"/>
        <pt x="187" y="526" on="0"/>
        <pt x="133" y="349" on="0"/>
        <pt x="133" y="260" on="1"/>
        <pt x="133" y="151" on="0"/>
        <pt x="229" y="42" on="0"/>
        <pt x="309" y="42" on="1"/>
        <pt x="358" y="42" on="0"/>
        <pt x="429" y="72" on="0"/>
        <pt x="469" y="101" on="1"/>
        <pt x="497" y="58" on="1"/>
        <pt x="412" y="-11" on="0"/>
        <pt x="305" y="-11" on="1"/>
        <pt x="304" y="-11" on="1"/>
        <pt x="295" y="-64" on="1"/>
        <pt x="378" y="-70" on="0"/>
        <pt x="378" y="-133" on="1"/>
        <pt x="378" y="-172" on="0"/>
        <pt x="314" y="-227" on="0"/>
        <pt x="263" y="-227" on="1"/>
        <pt x="215" y="-227" on="0"/>
        <pt x="185" y="-204" on="1"/>
        <pt x="207" y="-170" on="1"/>
        <pt x="229" y="-185" on="0"/>
        <pt x="262" y="-185" on="1"/>
        <pt x="288" y="-186" on="0"/>
        <pt x="327" y="-159" on="0"/>
        <pt x="327" y="-136" on="1"/>
        <pt x="327" y="-115" on="0"/>
        <pt x="291" y="-96" on="0"/>
        <pt x="245" y="-95" on="1"/>
        <pt x="264" y="-8" on="1"/>
        <pt x="175" y="6" on="0"/>
        <pt x="71" y="146" on="0"/>
        <pt x="71" y="263" on="1"/>
        <pt x="71" y="363" on="0"/>
        <pt x="140" y="562" on="0"/>
        <pt x="288" y="696" on="0"/>
        <pt x="399" y="696" on="1"/>
        <pt x="454" y="696" on="0"/>
        <pt x="534" y="664" on="0"/>
        <pt x="569" y="632" on="1"/>
        <pt x="532" y="594" on="1"/>
        <pt x="502" y="621" on="0"/>
        <pt x="442" y="645" on="0"/>
        <pt x="403" y="645" on="1"/>
      </contour>
    </TTGlyph>
    <TTGlyph name="Ccircumflex" xMin="71" yMin="-11" xMax="569" yMax="894">
      <component glyphName="C" x="0" y="0" flags="0x0"/>
      <component glyphName="circumflex.case" x="171" y="0" flags="0x0"/>
    </TTGlyph>
    <TTGlyph name="Cdotaccent" xMin="71" yMin="-11" xMax="569" yMax="879">
      <component glyphName="C" x="0" y="0" flags="0x0"/>
      <component glyphName="dotaccent.case" x="309" y="0" flags="0x0"/>
    </TTGlyph>
    <TTGlyph name="Chi" xMin="-27" yMin="0" xMax="533" yMax="685">
      <component glyphName="X" x="0" y="0" flags="0x0"/>
    </TTGlyph>
    <TTGlyph name="D" xMin="74" yMin="0" xMax="581" yMax="685">
      <contour>
        <pt x="429" y="685" on="0"/>
        <pt x="581" y="574" on="0"/>
        <pt x="581" y="429" on="1"/>
        <pt x="581" y="314" on="0"/>
        <pt x="508" y="120" on="0"/>
        <pt x="347" y="0" on="0"/>
        <pt x="221" y="0" on="1"/>
        <pt x="74" y="0" on="1"/>
        <pt x="170" y="685" on="1"/>
        <pt x="304" y="685" on="1"/>
      </contour>
      <contour>
        <pt x="141" y="50" on="1"/>
        <pt x="230" y="50" on="1"/>
        <pt x="334" y="50" on="0"/>
        <pt x="464" y="160" on="0"/>
        <pt x="521" y="332" on="0"/>
        <pt x="521" y="430" on="1"/>
        <pt x="521" y="551" on="0"/>
        <pt x="404" y="635" on="0"/>
        <pt x="307" y="635" on="1"/>
        <pt x="222" y="635" on="1"/>
      </contour>
    </TTGlyph>
    <TTGlyph name="Dcaron" xMin="74" yMin="0" xMax="581" yMax="888">
      <component glyphName="D" x="0" y="0" flags="0x0"/>
      <component glyphName="caron.case" x="117" y="0" flags="0x0"/>
    </TTGlyph>
    <TTGlyph name="Dcroat" xMin="33" yMin="0" xMax="581" yMax="685">
      <component glyphName="Eth" x="0" y="0" flags="0x0"/>
    </TTGlyph>
    <TTGlyph name="Delta" xMin="-21" yMin="0" xMax="519" yMax="685">
      <contour>
        <pt x="-21" y="0" on="1"/>
        <pt x="308" y="685" on="1"/>
        <pt x="383" y="685" on="1"/>
        <pt x="519" y="0" on="1"/>
      </contour>
      <contour>
        <pt x="448" y="51" on="1"/>
        <pt x="339" y="635" on="1"/>
        <pt x="62" y="51" on="1"/>
      </contour>
    </TTGlyph>
    <TTGlyph name="E" xMin="74" yMin="0" xMax="516" yMax="685">
      <contour>
        <pt x="222" y="635" on="1"/>
        <pt x="186" y="380" on="1"/>
        <pt x="428" y="380" on="1"/>
        <pt x="422" y="330" on="1"/>
        <pt x="180" y="330" on="1"/>
        <pt x="141" y="50" on="1"/>
        <pt x="434" y="50" on="1"/>
        <pt x="426" y="0" on="1"/>
        <pt x="74" y="0" on="1"/>
        <pt x="170" y="685" on="1"/>
        <pt x="516" y="685" on="1"/>
        <pt x="502" y="635" on="1"/>
      </contour>
    </TTGlyph>
    <TTGlyph name="Eacute" xMin="74" yMin="0" xMax="516" yMax="888">
      <component glyphName="E" x="0" y="0" flags="0x0"/>
      <component glyphName="acute.case" x="153" y="0" flags="0x0"/>
    </TTGlyph>
    <TTGlyph name="Ebreve" xMin="74" yMin="0" xMax="516" yMax="875">
      <component glyphName="E" x="0" y="0" flags="0x0"/>
      <component glyphName="breve.case" x="122" y="0" flags="0x0"/>
    </TTGlyph>
    <TTGlyph name="Ecaron" xMin="74" yMin="0" xMax="516" yMax="888">
      <component glyphName="E" x="0" y="0" flags="0x0"/>
      <component glyphName="caron.case" x="106" y="0" flags="0x0"/>
    </TTGlyph>
    <TTGlyph name="Ecircumflex" xMin="74" yMin="0" xMax="516" yMax="894">
      <component glyphName="E" x="0" y="0" flags="0x0"/>
      <component glyphName="circumflex.case" x="116" y="0" flags="0x0"/>
    </TTGlyph>
    <TTGlyph name="Edieresis" xMin="74" yMin="0" xMax="516" yMax="868">
      <component glyphName="E" x="0" y="0" flags="0x0"/>
      <component glyphName="dieresis.case" x="162" y="0" flags="0x0"/>
    </TTGlyph>
    <TTGlyph name="Edotaccent" xMin="74" yMin="0" xMax="516" yMax="879">
      <component glyphName="E" x="0" y="0" flags="0x0"/>
      <component glyphName="dotaccent.case" x="253" y="0" flags="0x0"/>
    </TTGlyph>
    <TTGlyph name="Egrave" xMin="74" yMin="0" xMax="516" yMax="888">
      <component glyphName="E" x="0" y="0" flags="0x0"/>
      <component glyphName="grave.case" x="153" y="0" flags="0x0"/>
    </TTGlyph>
    <TTGlyph name="Emacron" xMin="74" yMin="0" xMax="516" yMax="849">
      <component glyphName="E" x="0" y="0" flags="0x0"/>
      <component glyphName="macron.case" x="176" y="0" flags="0x0"/>
    </TTGlyph>
    <TTGlyph name="Eng" xMin="74" yMin="-204" xMax="619" yMax="685">
      <contour>
        <pt x="513" y="-61" on="0"/>
        <pt x="474" y="-135" on="0"/>
        <pt x="411" y="-181" on="0"/>
        <pt x="356" y="-204" on="1"/>
        <pt x="341" y="-160" on="1"/>
        <pt x="382" y="-141" on="0"/>
        <pt x="430" y="-107" on="0"/>
        <pt x="462" y="-49" on="0"/>
        <pt x="471" y="0" on="1"/>
        <pt x="446" y="0" on="1"/>
        <pt x="209" y="631" on="1"/>
        <pt x="208" y="586" on="0"/>
        <pt x="197" y="476" on="0"/>
        <pt x="184" y="381" on="1"/>
        <pt x="130" y="0" on="1"/>
        <pt x="74" y="0" on="1"/>
        <pt x="170" y="685" on="1"/>
        <pt x="247" y="685" on="1"/>
        <pt x="484" y="55" on="1"/>
        <pt x="487" y="144" on="0"/>
        <pt x="504" y="270" on="1"/>
        <pt x="562" y="685" on="1"/>
        <pt x="619" y="685" on="1"/>
        <pt x="522" y="0" on="1"/>
      </contour>
    </TTGlyph>
    <TTGlyph name="Eogonek" xMin="74" yMin="-218" xMax="516" yMax="685">
      <contour>
        <pt x="186" y="380" on="1"/>
        <pt x="428" y="380" on="1"/>
        <pt x="422" y="330" on="1"/>
        <pt x="180" y="330" on="1"/>
        <pt x="141" y="50" on="1"/>
        <pt x="434" y="50" on="1"/>
        <pt x="426" y="0" on="1"/>
        <pt x="396" y="0" on="1"/>
        <pt x="320" y="-32" on="0"/>
        <pt x="255" y="-90" on="0"/>
        <pt x="255" y="-125" on="1"/>
        <pt x="255" y="-169" on="0"/>
        <pt x="311" y="-169" on="1"/>
        <pt x="334" y="-169" on="0"/>
        <pt x="369" y="-163" on="1"/>
        <pt x="359" y="-212" on="1"/>
        <pt x="329" y="-218" on="0"/>
        <pt x="302" y="-218" on="1"/>
        <pt x="254" y="-218" on="0"/>
        <pt x="201" y="-172" on="0"/>
        <pt x="201" y="-136" on="1"/>
        <pt x="201" y="-94" on="0"/>
        <pt x="255" y="-28" on="0"/>
        <pt x="317" y="0" on="1"/>
        <pt x="74" y="0" on="1"/>
        <pt x="170" y="685" on="1"/>
        <pt x="516" y="685" on="1"/>
        <pt x="502" y="635" on="1"/>
        <pt x="222" y="635" on="1"/>
      </contour>
    </TTGlyph>
    <TTGlyph name="Epsilon" xMin="74" yMin="0" xMax="516" yMax="685">
      <contour>
        <pt x="222" y="635" on="1"/>
        <pt x="186" y="380" on="1"/>
        <pt x="428" y="380" on="1"/>
        <pt x="422" y="330" on="1"/>
        <pt x="180" y="330" on="1"/>
        <pt x="141" y="50" on="1"/>
        <pt x="434" y="50" on="1"/>
        <pt x="426" y="0" on="1"/>
        <pt x="74" y="0" on="1"/>
        <pt x="170" y="685" on="1"/>
        <pt x="516" y="685" on="1"/>
        <pt x="502" y="635" on="1"/>
      </contour>
    </TTGlyph>
    <TTGlyph name="Epsilontonos" xMin="8" yMin="0" xMax="516" yMax="701">
      <component glyphName="E" x="0" y="0" flags="0x0"/>
      <component glyphName="tonos.case" x="-58" y="3" flags="0x0"/>
    </TTGlyph>
    <TTGlyph name="Eta" xMin="74" yMin="0" xMax="616" yMax="685">
      <contour>
        <pt x="180" y="335" on="1"/>
        <pt x="133" y="0" on="1"/>
        <pt x="74" y="0" on="1"/>
        <pt x="170" y="685" on="1"/>
        <pt x="229" y="685" on="1"/>
        <pt x="187" y="386" on="1"/>
        <pt x="515" y="386" on="1"/>
        <pt x="557" y="685" on="1"/>
        <pt x="616" y="685" on="1"/>
        <pt x="520" y="0" on="1"/>
        <pt x="460" y="0" on="1"/>
        <pt x="508" y="335" on="1"/>
      </contour>
    </TTGlyph>
    <TTGlyph name="Etatonos" xMin="8" yMin="0" xMax="616" yMax="701">
      <component glyphName="H" x="0" y="0" flags="0x0"/>
      <component glyphName="tonos.case" x="-58" y="3" flags="0x0"/>
    </TTGlyph>
    <TTGlyph name="Eth" xMin="33" yMin="0" xMax="581" yMax="685">
      <contour>
        <pt x="429" y="685" on="0"/>
        <pt x="581" y="574" on="0"/>
        <pt x="581" y="428" on="1"/>
        <pt x="581" y="314" on="0"/>
        <pt x="508" y="120" on="0"/>
        <pt x="347" y="0" on="0"/>
        <pt x="221" y="0" on="1"/>
        <pt x="73" y="0" on="1"/>
        <pt x="119" y="330" on="1"/>
        <pt x="33" y="330" on="1"/>
        <pt x="39" y="376" on="1"/>
        <pt x="126" y="376" on="1"/>
        <pt x="170" y="685" on="1"/>
        <pt x="304" y="685" on="1"/>
      </contour>
      <contour>
        <pt x="334" y="50" on="0"/>
        <pt x="464" y="160" on="0"/>
        <pt x="521" y="332" on="0"/>
        <pt x="521" y="430" on="1"/>
        <pt x="521" y="551" on="0"/>
        <pt x="404" y="635" on="0"/>
        <pt x="307" y="635" on="1"/>
        <pt x="222" y="635" on="1"/>
        <pt x="186" y="376" on="1"/>
        <pt x="364" y="376" on="1"/>
        <pt x="357" y="330" on="1"/>
        <pt x="179" y="330" on="1"/>
        <pt x="141" y="50" on="1"/>
        <pt x="230" y="50" on="1"/>
      </contour>
    </TTGlyph>
    <TTGlyph name="Euro" xMin="33" yMin="-11" xMax="583" yMax="676">
      <contour>
        <pt x="350" y="626" on="0"/>
        <pt x="238" y="529" on="0"/>
        <pt x="205" y="431" on="1"/>
        <pt x="476" y="431" on="1"/>
        <pt x="459" y="388" on="1"/>
        <pt x="195" y="388" on="1"/>
        <pt x="180" y="285" on="1"/>
        <pt x="425" y="285" on="1"/>
        <pt x="409" y="242" on="1"/>
        <pt x="176" y="242" on="1"/>
        <pt x="174" y="137" on="0"/>
        <pt x="254" y="40" on="0"/>
        <pt x="334" y="40" on="1"/>
        <pt x="375" y="40" on="0"/>
        <pt x="441" y="62" on="0"/>
        <pt x="480" y="83" on="1"/>
        <pt x="475" y="28" on="1"/>
        <pt x="402" y="-11" on="0"/>
        <pt x="325" y="-11" on="1"/>
        <pt x="225" y="-11" on="0"/>
        <pt x="116" y="118" on="0"/>
        <pt x="115" y="242" on="1"/>
        <pt x="33" y="242" on="1"/>
        <pt x="50" y="285" on="1"/>
        <pt x="119" y="285" on="1"/>
        <pt x="134" y="388" on="1"/>
        <pt x="54" y="388" on="1"/>
        <pt x="70" y="431" on="1"/>
        <pt x="143" y="431" on="1"/>
        <pt x="181" y="550" on="0"/>
        <pt x="327" y="676" on="0"/>
        <pt x="420" y="676" on="1"/>
        <pt x="467" y="676" on="0"/>
        <pt x="546" y="648" on="0"/>
        <pt x="583" y="620" on="1"/>
        <pt x="555" y="580" on="1"/>
        <pt x="520" y="605" on="0"/>
        <pt x="460" y="626" on="0"/>
        <pt x="420" y="626" on="1"/>
      </contour>
    </TTGlyph>
    <TTGlyph name="Euro.osf" xMin="33" yMin="-11" xMax="583" yMax="676">
      <component glyphName="Euro" x="0" y="0" flags="0x0"/>
    </TTGlyph>
    <TTGlyph name="Euro.tf" xMin="36" yMin="-11" xMax="587" yMax="696">
      <contour>
        <pt x="350" y="646" on="0"/>
        <pt x="235" y="545" on="0"/>
        <pt x="205" y="441" on="1"/>
        <pt x="479" y="441" on="1"/>
        <pt x="462" y="398" on="1"/>
        <pt x="196" y="398" on="1"/>
        <pt x="183" y="295" on="1"/>
        <pt x="427" y="295" on="1"/>
        <pt x="412" y="252" on="1"/>
        <pt x="179" y="252" on="1"/>
        <pt x="176" y="140" on="0"/>
        <pt x="255" y="40" on="0"/>
        <pt x="336" y="40" on="1"/>
        <pt x="377" y="40" on="0"/>
        <pt x="442" y="62" on="0"/>
        <pt x="481" y="83" on="1"/>
        <pt x="477" y="28" on="1"/>
        <pt x="402" y="-11" on="0"/>
        <pt x="326" y="-11" on="1"/>
        <pt x="225" y="-11" on="0"/>
        <pt x="119" y="122" on="0"/>
        <pt x="120" y="252" on="1"/>
        <pt x="36" y="252" on="1"/>
        <pt x="52" y="295" on="1"/>
        <pt x="123" y="295" on="1"/>
        <pt x="137" y="398" on="1"/>
        <pt x="56" y="398" on="1"/>
        <pt x="73" y="441" on="1"/>
        <pt x="144" y="441" on="1"/>
        <pt x="179" y="567" on="0"/>
        <pt x="328" y="696" on="0"/>
        <pt x="424" y="696" on="1"/>
        <pt x="472" y="696" on="0"/>
        <pt x="550" y="669" on="0"/>
        <pt x="587" y="640" on="1"/>
        <pt x="559" y="600" on="1"/>
        <pt x="524" y="626" on="0"/>
        <pt x="464" y="646" on="0"/>
        <pt x="424" y="646" on="1"/>
      </contour>
    </TTGlyph>
    <TTGlyph name="Euro.tosf" xMin="50" yMin="-11" xMax="591" yMax="676">
      <contour>
        <pt x="362" y="627" on="0"/>
        <pt x="254" y="528" on="0"/>
        <pt x="222" y="431" on="1"/>
        <pt x="487" y="431" on="1"/>
        <pt x="471" y="388" on="1"/>
        <pt x="212" y="388" on="1"/>
        <pt x="198" y="285" on="1"/>
        <pt x="436" y="285" on="1"/>
        <pt x="420" y="242" on="1"/>
        <pt x="193" y="242" on="1"/>
        <pt x="191" y="137" on="0"/>
        <pt x="268" y="40" on="0"/>
        <pt x="346" y="40" on="1"/>
        <pt x="387" y="40" on="0"/>
        <pt x="449" y="61" on="0"/>
        <pt x="488" y="83" on="1"/>
        <pt x="483" y="28" on="1"/>
        <pt x="447" y="9" on="0"/>
        <pt x="378" y="-11" on="0"/>
        <pt x="337" y="-11" on="1"/>
        <pt x="238" y="-11" on="0"/>
        <pt x="133" y="118" on="0"/>
        <pt x="133" y="242" on="1"/>
        <pt x="50" y="242" on="1"/>
        <pt x="67" y="285" on="1"/>
        <pt x="137" y="285" on="1"/>
        <pt x="151" y="388" on="1"/>
        <pt x="71" y="388" on="1"/>
        <pt x="87" y="431" on="1"/>
        <pt x="160" y="431" on="1"/>
        <pt x="197" y="549" on="0"/>
        <pt x="340" y="676" on="0"/>
        <pt x="432" y="676" on="1"/>
        <pt x="478" y="676" on="0"/>
        <pt x="555" y="648" on="0"/>
        <pt x="591" y="619" on="1"/>
        <pt x="563" y="580" on="1"/>
        <pt x="530" y="606" on="0"/>
        <pt x="470" y="627" on="0"/>
        <pt x="432" y="627" on="1"/>
      </contour>
    </TTGlyph>
    <TTGlyph name="F" xMin="74" yMin="0" xMax="510" yMax="685">
      <contour>
        <pt x="222" y="635" on="1"/>
        <pt x="185" y="368" on="1"/>
        <pt x="422" y="368" on="1"/>
        <pt x="415" y="318" on="1"/>
        <pt x="178" y="318" on="1"/>
        <pt x="133" y="0" on="1"/>
        <pt x="74" y="0" on="1"/>
        <pt x="170" y="685" on="1"/>
        <pt x="510" y="685" on="1"/>
        <pt x="496" y="635" on="1"/>
      </contour>
    </TTGlyph>
    <TTGlyph name="G" xMin="71" yMin="-11" xMax="589" yMax="696">
      <contour>
        <pt x="462" y="696" on="0"/>
        <pt x="550" y="662" on="0"/>
        <pt x="589" y="627" on="1"/>
        <pt x="549" y="591" on="1"/>
        <pt x="517" y="620" on="0"/>
        <pt x="451" y="645" on="0"/>
        <pt x="406" y="645" on="1"/>
        <pt x="316" y="645" on="0"/>
        <pt x="193" y="529" on="0"/>
        <pt x="133" y="349" on="0"/>
        <pt x="133" y="253" on="1"/>
        <pt x="133" y="146" on="0"/>
        <pt x="228" y="40" on="0"/>
        <pt x="316" y="40" on="1"/>
        <pt x="395" y="40" on="0"/>
        <pt x="463" y="77" on="1"/>
        <pt x="498" y="319" on="1"/>
        <pt x="366" y="319" on="1"/>
        <pt x="365" y="369" on="1"/>
        <pt x="564" y="369" on="1"/>
        <pt x="520" y="47" on="1"/>
        <pt x="422" y="-11" on="0"/>
        <pt x="310" y="-11" on="1"/>
        <pt x="198" y="-11" on="0"/>
        <pt x="71" y="128" on="0"/>
        <pt x="71" y="260" on="1"/>
        <pt x="71" y="366" on="0"/>
        <pt x="146" y="567" on="0"/>
        <pt x="298" y="696" on="0"/>
        <pt x="406" y="696" on="1"/>
      </contour>
    </TTGlyph>
    <TTGlyph name="Gamma" xMin="74" yMin="0" xMax="556" yMax="685">
      <component glyphName="uni0413" x="0" y="0" flags="0x0"/>
    </TTGlyph>
    <TTGlyph name="Gbreve" xMin="71" yMin="-11" xMax="589" yMax="875">
      <component glyphName="G" x="0" y="0" flags="0x0"/>
      <component glyphName="breve.case" x="184" y="0" flags="0x0"/>
    </TTGlyph>
    <TTGlyph name="Gcircumflex" xMin="71" yMin="-11" xMax="589" yMax="894">
      <component glyphName="G" x="0" y="0" flags="0x0"/>
      <component glyphName="circumflex.case" x="178" y="0" flags="0x0"/>
    </TTGlyph>
    <TTGlyph name="Gcommaaccent" xMin="71" yMin="-279" xMax="589" yMax="696">
      <component glyphName="G" x="0" y="0" flags="0x0"/>
      <component glyphName="uni0326.case" x="259" y="0" flags="0x0"/>
    </TTGlyph>
    <TTGlyph name="Gdotaccent" xMin="71" yMin="-11" xMax="589" yMax="879">
      <component glyphName="G" x="0" y="0" flags="0x0"/>
      <component glyphName="dotaccent.case" x="316" y="0" flags="0x0"/>
    </TTGlyph>
    <TTGlyph name="H" xMin="74" yMin="0" xMax="616" yMax="685">
      <contour>
        <pt x="180" y="335" on="1"/>
        <pt x="133" y="0" on="1"/>
        <pt x="74" y="0" on="1"/>
        <pt x="170" y="685" on="1"/>
        <pt x="229" y="685" on="1"/>
        <pt x="187" y="386" on="1"/>
        <pt x="515" y="386" on="1"/>
        <pt x="557" y="685" on="1"/>
        <pt x="616" y="685" on="1"/>
        <pt x="520" y="0" on="1"/>
        <pt x="460" y="0" on="1"/>
        <pt x="508" y="335" on="1"/>
      </contour>
    </TTGlyph>
    <TTGlyph name="Hbar" xMin="75" yMin="0" xMax="663" yMax="685">
      <contour>
        <pt x="593" y="513" on="1"/>
        <pt x="521" y="0" on="1"/>
        <pt x="462" y="0" on="1"/>
        <pt x="509" y="335" on="1"/>
        <pt x="181" y="335" on="1"/>
        <pt x="134" y="0" on="1"/>
        <pt x="75" y="0" on="1"/>
        <pt x="147" y="513" on="1"/>
        <pt x="83" y="513" on="1"/>
        <pt x="89" y="558" on="1"/>
        <pt x="154" y="558" on="1"/>
        <pt x="171" y="685" on="1"/>
        <pt x="231" y="685" on="1"/>
        <pt x="213" y="558" on="1"/>
        <pt x="540" y="558" on="1"/>
        <pt x="558" y="685" on="1"/>
        <pt x="617" y="685" on="1"/>
        <pt x="600" y="558" on="1"/>
        <pt x="663" y="558" on="1"/>
        <pt x="656" y="513" on="1"/>
      </contour>
      <contour>
        <pt x="207" y="513" on="1"/>
        <pt x="188" y="386" on="1"/>
        <pt x="516" y="386" on="1"/>
        <pt x="534" y="513" on="1"/>
      </contour>
    </TTGlyph>
    <TTGlyph name="Hcircumflex" xMin="74" yMin="0" xMax="616" yMax="894">
      <component glyphName="H" x="0" y="0" flags="0x0"/>
      <component glyphName="circumflex.case" x="161" y="0" flags="0x0"/>
    </TTGlyph>
    <TTGlyph name="I" xMin="74" yMin="0" xMax="230" yMax="685">
      <contour>
        <pt x="74" y="0" on="1"/>
        <pt x="170" y="685" on="1"/>
        <pt x="230" y="685" on="1"/>
        <pt x="134" y="0" on="1"/>
      </contour>
    </TTGlyph>
    <TTGlyph name="IJ" xMin="74" yMin="-119" xMax="524" yMax="685">
      <component glyphName="I" x="0" y="0" flags="0x0"/>
      <component glyphName="J" x="281" y="0" flags="0x0"/>
    </TTGlyph>
    <TTGlyph name="Iacute" xMin="74" yMin="0" xMax="329" yMax="888">
      <component glyphName="I" x="0" y="0" flags="0x0"/>
      <component glyphName="acute.case" x="6" y="0" flags="0x0"/>
    </TTGlyph>
    <TTGlyph name="Ibreve" xMin="74" yMin="0" xMax="349" yMax="875">
      <component glyphName="I" x="0" y="0" flags="0x0"/>
      <component glyphName="breve.case" x="-24" y="0" flags="0x0"/>
    </TTGlyph>
    <TTGlyph name="Icircumflex" xMin="73" yMin="0" xMax="367" yMax="894">
      <component glyphName="I" x="0" y="0" flags="0x0"/>
      <component glyphName="circumflex.case" x="-31" y="0" flags="0x0"/>
    </TTGlyph>
    <TTGlyph name="Idieresis" xMin="74" yMin="0" xMax="354" yMax="868">
      <component glyphName="I" x="0" y="0" flags="0x0"/>
      <component glyphName="dieresis.case" x="15" y="0" flags="0x0"/>
    </TTGlyph>
    <TTGlyph name="Idotaccent" xMin="74" yMin="0" xMax="264" yMax="879">
      <component glyphName="I" x="0" y="0" flags="0x0"/>
      <component glyphName="dotaccent.case" x="106" y="0" flags="0x0"/>
    </TTGlyph>
    <TTGlyph name="Igrave" xMin="74" yMin="0" xMax="323" yMax="888">
      <component glyphName="I" x="0" y="0" flags="0x0"/>
      <component glyphName="grave.case" x="6" y="0" flags="0x0"/>
    </TTGlyph>
    <TTGlyph name="Imacron" xMin="74" yMin="0" xMax="343" yMax="849">
      <component glyphName="I" x="0" y="0" flags="0x0"/>
      <component glyphName="macron.case" x="29" y="0" flags="0x0"/>
    </TTGlyph>
    <TTGlyph name="Iogonek" xMin="-59" yMin="-218" xMax="230" yMax="685">
      <contour>
        <pt x="59" y="-32" on="0"/>
        <pt x="-5" y="-90" on="0"/>
        <pt x="-5" y="-125" on="1"/>
        <pt x="-5" y="-169" on="0"/>
        <pt x="50" y="-169" on="1"/>
        <pt x="74" y="-169" on="0"/>
        <pt x="109" y="-163" on="1"/>
        <pt x="99" y="-212" on="1"/>
        <pt x="69" y="-218" on="0"/>
        <pt x="42" y="-218" on="1"/>
        <pt x="-7" y="-218" on="0"/>
        <pt x="-59" y="-172" on="0"/>
        <pt x="-59" y="-136" on="1"/>
        <pt x="-59" y="-91" on="0"/>
        <pt x="3" y="-21" on="0"/>
        <pt x="75" y="8" on="1"/>
        <pt x="170" y="685" on="1"/>
        <pt x="230" y="685" on="1"/>
        <pt x="134" y="2" on="1"/>
        <pt x="135" y="0" on="1"/>
      </contour>
    </TTGlyph>
    <TTGlyph name="Iota" xMin="74" yMin="0" xMax="230" yMax="685">
      <contour>
        <pt x="74" y="0" on="1"/>
        <pt x="170" y="685" on="1"/>
        <pt x="230" y="685" on="1"/>
        <pt x="134" y="0" on="1"/>
      </contour>
    </TTGlyph>
    <TTGlyph name="Iotadieresis" xMin="74" yMin="0" xMax="354" yMax="868">
      <component glyphName="I" x="0" y="0" flags="0x0"/>
      <component glyphName="dieresis.case" x="15" y="0" flags="0x0"/>
    </TTGlyph>
    <TTGlyph name="Iotatonos" xMin="9" yMin="0" xMax="230" yMax="701">
      <component glyphName="I" x="0" y="0" flags="0x0"/>
      <component glyphName="tonos.case" x="-57" y="3" flags="0x0"/>
    </TTGlyph>
    <TTGlyph name="Itilde" xMin="69" yMin="0" xMax="375" yMax="884">
      <component glyphName="I" x="0" y="0" flags="0x0"/>
      <component glyphName="tilde.case" x="0" y="0" flags="0x0"/>
    </TTGlyph>
    <TTGlyph name="J" xMin="-36" yMin="-119" xMax="243" yMax="685">
      <contour>
        <pt x="151" y="29" on="0"/>
        <pt x="110" y="-47" on="0"/>
        <pt x="38" y="-96" on="0"/>
        <pt x="-23" y="-119" on="1"/>
        <pt x="-36" y="-74" on="1"/>
        <pt x="13" y="-54" on="0"/>
        <pt x="67" y="-11" on="0"/>
        <pt x="94" y="49" on="0"/>
        <pt x="101" y="97" on="1"/>
        <pt x="184" y="685" on="1"/>
        <pt x="243" y="685" on="1"/>
        <pt x="160" y="90" on="1"/>
      </contour>
    </TTGlyph>
    <TTGlyph name="Jcircumflex" xMin="-36" yMin="-119" xMax="379" yMax="894">
      <component glyphName="J" x="0" y="0" flags="0x0"/>
      <component glyphName="circumflex.case" x="-19" y="0" flags="0x0"/>
    </TTGlyph>
    <TTGlyph name="K" xMin="74" yMin="0" xMax="588" yMax="685">
      <contour>
        <pt x="74" y="0" on="1"/>
        <pt x="170" y="685" on="1"/>
        <pt x="229" y="685" on="1"/>
        <pt x="133" y="0" on="1"/>
      </contour>
      <contour>
        <pt x="508" y="0" on="1"/>
        <pt x="437" y="0" on="1"/>
        <pt x="189" y="367" on="1"/>
        <pt x="516" y="685" on="1"/>
        <pt x="588" y="685" on="1"/>
        <pt x="258" y="365" on="1"/>
      </contour>
    </TTGlyph>
    <TTGlyph name="Kappa" xMin="74" yMin="0" xMax="588" yMax="685">
      <component glyphName="K" x="0" y="0" flags="0x0"/>
    </TTGlyph>
    <TTGlyph name="Kcommaaccent" xMin="74" yMin="-279" xMax="588" yMax="685">
      <component glyphName="K" x="0" y="0" flags="0x0"/>
      <component glyphName="uni0326.case" x="226" y="0" flags="0x0"/>
    </TTGlyph>
    <TTGlyph name="L" xMin="74" yMin="0" xMax="426" yMax="685">
      <contour>
        <pt x="426" y="54" on="1"/>
        <pt x="410" y="0" on="1"/>
        <pt x="74" y="0" on="1"/>
        <pt x="170" y="685" on="1"/>
        <pt x="229" y="685" on="1"/>
        <pt x="141" y="54" on="1"/>
      </contour>
    </TTGlyph>
    <TTGlyph name="Lacute" xMin="74" yMin="0" xMax="426" yMax="888">
      <component glyphName="L" x="0" y="0" flags="0x0"/>
      <component glyphName="acute.case" x="6" y="0" flags="0x0"/>
    </TTGlyph>
    <TTGlyph name="Lambda" xMin="-21" yMin="0" xMax="509" yMax="685">
      <contour>
        <pt x="446" y="0" on="1"/>
        <pt x="334" y="636" on="1"/>
        <pt x="39" y="0" on="1"/>
        <pt x="-21" y="0" on="1"/>
        <pt x="303" y="685" on="1"/>
        <pt x="378" y="685" on="1"/>
        <pt x="509" y="0" on="1"/>
      </contour>
    </TTGlyph>
    <TTGlyph name="Lcaron" xMin="74" yMin="0" xMax="426" yMax="691">
      <component glyphName="L" x="0" y="0" flags="0x0"/>
      <component glyphName="caron.alt" x="178" y="0" flags="0x0"/>
    </TTGlyph>
    <TTGlyph name="Lcommaaccent" xMin="74" yMin="-279" xMax="426" yMax="685">
      <component glyphName="L" x="0" y="0" flags="0x0"/>
      <component glyphName="uni0326.case" x="202" y="0" flags="0x0"/>
    </TTGlyph>
    <TTGlyph name="Ldot" xMin="74" yMin="0" xMax="426" yMax="685">
      <component glyphName="L" x="0" y="0" flags="0x0"/>
      <component glyphName="dotaccent" x="247" y="-342" flags="0x0"/>
    </TTGlyph>
    <TTGlyph name="Lslash" xMin="38" yMin="0" xMax="437" yMax="685">
      <contour>
        <pt x="84" y="0" on="1"/>
        <pt x="124" y="280" on="1"/>
        <pt x="57" y="241" on="1"/>
        <pt x="38" y="280" on="1"/>
        <pt x="132" y="335" on="1"/>
        <pt x="181" y="685" on="1"/>
        <pt x="240" y="685" on="1"/>
        <pt x="196" y="372" on="1"/>
        <pt x="393" y="485" on="1"/>
        <pt x="412" y="446" on="1"/>
        <pt x="189" y="317" on="1"/>
        <pt x="152" y="54" on="1"/>
        <pt x="437" y="54" on="1"/>
        <pt x="421" y="0" on="1"/>
      </contour>
    </TTGlyph>
    <TTGlyph name="M" xMin="32" yMin="0" xMax="692" yMax="685">
      <contour>
        <pt x="604" y="0" on="1"/>
        <pt x="619" y="330" on="1"/>
        <pt x="626" y="512" on="0"/>
        <pt x="636" y="628" on="1"/>
        <pt x="387" y="81" on="1"/>
        <pt x="330" y="81" on="1"/>
        <pt x="229" y="626" on="1"/>
        <pt x="219" y="562" on="0"/>
        <pt x="165" y="328" on="1"/>
        <pt x="89" y="0" on="1"/>
        <pt x="32" y="0" on="1"/>
        <pt x="193" y="685" on="1"/>
        <pt x="272" y="685" on="1"/>
        <pt x="368" y="151" on="1"/>
        <pt x="606" y="685" on="1"/>
        <pt x="692" y="685" on="1"/>
        <pt x="661" y="0" on="1"/>
      </contour>
    </TTGlyph>
    <TTGlyph name="Mu" xMin="32" yMin="0" xMax="692" yMax="685">
      <component glyphName="M" x="0" y="0" flags="0x0"/>
    </TTGlyph>
    <TTGlyph name="N" xMin="74" yMin="0" xMax="619" yMax="685">
      <contour>
        <pt x="446" y="0" on="1"/>
        <pt x="209" y="631" on="1"/>
        <pt x="208" y="586" on="0"/>
        <pt x="197" y="476" on="0"/>
        <pt x="184" y="381" on="1"/>
        <pt x="130" y="0" on="1"/>
        <pt x="74" y="0" on="1"/>
        <pt x="170" y="685" on="1"/>
        <pt x="247" y="685" on="1"/>
        <pt x="484" y="55" on="1"/>
        <pt x="487" y="144" on="0"/>
        <pt x="504" y="270" on="1"/>
        <pt x="562" y="685" on="1"/>
        <pt x="619" y="685" on="1"/>
        <pt x="522" y="0" on="1"/>
      </contour>
    </TTGlyph>
    <TTGlyph name="Nacute" xMin="74" yMin="0" xMax="619" yMax="888">
      <component glyphName="N" x="0" y="0" flags="0x0"/>
      <component glyphName="acute.case" x="209" y="0" flags="0x0"/>
    </TTGlyph>
    <TTGlyph name="Nacute.loclPLK" xMin="74" yMin="0" xMax="619" yMax="908">
      <component glyphName="N" x="0" y="0" flags="0x0"/>
      <component glyphName="acute.case.loclPLK" x="212" y="0" flags="0x0"/>
    </TTGlyph>
    <TTGlyph name="Ncaron" xMin="74" yMin="0" xMax="619" yMax="888">
      <component glyphName="N" x="0" y="0" flags="0x0"/>
      <component glyphName="caron.case" x="163" y="0" flags="0x0"/>
    </TTGlyph>
    <TTGlyph name="Ncommaaccent" xMin="74" yMin="-279" xMax="619" yMax="685">
      <component glyphName="N" x="0" y="0" flags="0x0"/>
      <component glyphName="uni0326.case" x="257" y="0" flags="0x0"/>
    </TTGlyph>
    <TTGlyph name="Ntilde" xMin="74" yMin="0" xMax="619" yMax="884">
      <component glyphName="N" x="0" y="0" flags="0x0"/>
      <component glyphName="tilde.case" x="203" y="0" flags="0x0"/>
    </TTGlyph>
    <TTGlyph name="Nu" xMin="74" yMin="0" xMax="619" yMax="685">
      <component glyphName="N" x="0" y="0" flags="0x0"/>
    </TTGlyph>
    <TTGlyph name="O" xMin="71" yMin="-11" xMax="640" yMax="696">
      <contour>
        <pt x="514" y="696" on="0"/>
        <pt x="640" y="555" on="0"/>
        <pt x="640" y="424" on="1"/>
        <pt x="640" y="324" on="0"/>
        <pt x="574" y="124" on="0"/>
        <pt x="425" y="-11" on="0"/>
        <pt x="309" y="-11" on="1"/>
        <pt x="199" y="-11" on="0"/>
        <pt x="71" y="131" on="0"/>
        <pt x="71" y="262" on="1"/>
        <pt x="71" y="359" on="0"/>
        <pt x="139" y="559" on="0"/>
        <pt x="289" y="696" on="0"/>
        <pt x="404" y="696" on="1"/>
      </contour>
      <contour>
        <pt x="305" y="645" on="0"/>
        <pt x="185" y="522" on="0"/>
        <pt x="133" y="344" on="0"/>
        <pt x="133" y="256" on="1"/>
        <pt x="133" y="149" on="0"/>
        <pt x="227" y="40" on="0"/>
        <pt x="310" y="40" on="1"/>
        <pt x="408" y="40" on="0"/>
        <pt x="528" y="164" on="0"/>
        <pt x="578" y="343" on="0"/>
        <pt x="578" y="432" on="1"/>
        <pt x="578" y="538" on="0"/>
        <pt x="486" y="645" on="0"/>
        <pt x="401" y="645" on="1"/>
      </contour>
    </TTGlyph>
    <TTGlyph name="OE" xMin="71" yMin="-11" xMax="873" yMax="696">
      <contour>
        <pt x="540" y="635" on="1"/>
        <pt x="578" y="603" on="0"/>
        <pt x="619" y="495" on="0"/>
        <pt x="619" y="423" on="1"/>
        <pt x="619" y="395" on="0"/>
        <pt x="618" y="380" on="1"/>
        <pt x="785" y="380" on="1"/>
        <pt x="779" y="330" on="1"/>
        <pt x="612" y="330" on="1"/>
        <pt x="599" y="245" on="0"/>
        <pt x="525" y="96" on="0"/>
        <pt x="462" y="50" on="1"/>
        <pt x="791" y="50" on="1"/>
        <pt x="783" y="0" on="1"/>
        <pt x="368" y="0" on="1"/>
        <pt x="332" y="-11" on="0"/>
        <pt x="297" y="-11" on="1"/>
        <pt x="230" y="-11" on="0"/>
        <pt x="128" y="52" on="0"/>
        <pt x="71" y="175" on="0"/>
        <pt x="71" y="261" on="1"/>
        <pt x="71" y="356" on="0"/>
        <pt x="139" y="558" on="0"/>
        <pt x="283" y="696" on="0"/>
        <pt x="391" y="696" on="1"/>
        <pt x="427" y="696" on="0"/>
        <pt x="460" y="685" on="1"/>
        <pt x="873" y="685" on="1"/>
        <pt x="859" y="635" on="1"/>
      </contour>
      <contour>
        <pt x="559" y="539" on="0"/>
        <pt x="470" y="645" on="0"/>
        <pt x="391" y="645" on="1"/>
        <pt x="301" y="645" on="0"/>
        <pt x="185" y="520" on="0"/>
        <pt x="133" y="340" on="0"/>
        <pt x="133" y="255" on="1"/>
        <pt x="133" y="149" on="0"/>
        <pt x="223" y="40" on="0"/>
        <pt x="300" y="40" on="1"/>
        <pt x="392" y="40" on="0"/>
        <pt x="509" y="167" on="0"/>
        <pt x="559" y="348" on="0"/>
        <pt x="559" y="435" on="1"/>
      </contour>
    </TTGlyph>
    <TTGlyph name="Oacute" xMin="71" yMin="-11" xMax="640" yMax="888">
      <component glyphName="O" x="0" y="0" flags="0x0"/>
      <component glyphName="acute.case" x="203" y="0" flags="0x0"/>
    </TTGlyph>
    <TTGlyph name="Oacute.loclPLK" xMin="71" yMin="-11" xMax="640" yMax="908">
      <component glyphName="O" x="0" y="0" flags="0x0"/>
      <component glyphName="acute.case.loclPLK" x="206" y="0" flags="0x0"/>
    </TTGlyph>
    <TTGlyph name="Obreve" xMin="71" yMin="-11" xMax="640" yMax="875">
      <component glyphName="O" x="0" y="0" flags="0x0"/>
      <component glyphName="breve.case" x="172" y="0" flags="0x0"/>
    </TTGlyph>
    <TTGlyph name="Ocircumflex" xMin="71" yMin="-11" xMax="640" yMax="894">
      <component glyphName="O" x="0" y="0" flags="0x0"/>
      <component glyphName="circumflex.case" x="166" y="0" flags="0x0"/>
    </TTGlyph>
    <TTGlyph name="Odieresis" xMin="71" yMin="-11" xMax="640" yMax="868">
      <component glyphName="O" x="0" y="0" flags="0x0"/>
      <component glyphName="dieresis.case" x="212" y="0" flags="0x0"/>
    </TTGlyph>
    <TTGlyph name="Ograve" xMin="71" yMin="-11" xMax="640" yMax="888">
      <component glyphName="O" x="0" y="0" flags="0x0"/>
      <component glyphName="grave.case" x="203" y="0" flags="0x0"/>
    </TTGlyph>
    <TTGlyph name="Ohm" xMin="51" yMin="0" xMax="640" yMax="696">
      <component glyphName="Omega" x="0" y="0" flags="0x0"/>
    </TTGlyph>
    <TTGlyph name="Ohungarumlaut" xMin="71" yMin="-11" xMax="640" yMax="937">
      <component glyphName="O" x="0" y="0" flags="0x0"/>
      <component glyphName="hungarumlaut.case" x="221" y="0" flags="0x0"/>
    </TTGlyph>
    <TTGlyph name="Omacron" xMin="71" yMin="-11" xMax="640" yMax="849">
      <component glyphName="O" x="0" y="0" flags="0x0"/>
      <component glyphName="macron.case" x="226" y="0" flags="0x0"/>
    </TTGlyph>
    <TTGlyph name="Omega" xMin="51" yMin="0" xMax="640" yMax="696">
      <contour>
        <pt x="514" y="696" on="0"/>
        <pt x="640" y="557" on="0"/>
        <pt x="640" y="427" on="1"/>
        <pt x="640" y="305" on="0"/>
        <pt x="556" y="100" on="0"/>
        <pt x="455" y="53" on="1"/>
        <pt x="571" y="53" on="1"/>
        <pt x="563" y="0" on="1"/>
        <pt x="366" y="0" on="1"/>
        <pt x="372" y="52" on="1"/>
        <pt x="485" y="91" on="0"/>
        <pt x="578" y="308" on="0"/>
        <pt x="578" y="434" on="1"/>
        <pt x="578" y="539" on="0"/>
        <pt x="486" y="645" on="0"/>
        <pt x="401" y="645" on="1"/>
        <pt x="306" y="645" on="0"/>
        <pt x="186" y="523" on="0"/>
        <pt x="134" y="346" on="0"/>
        <pt x="134" y="257" on="1"/>
        <pt x="134" y="175" on="0"/>
        <pt x="194" y="78" on="0"/>
        <pt x="254" y="52" on="1"/>
        <pt x="248" y="0" on="1"/>
        <pt x="51" y="0" on="1"/>
        <pt x="58" y="53" on="1"/>
        <pt x="179" y="53" on="1"/>
        <pt x="124" y="84" on="0"/>
        <pt x="71" y="185" on="0"/>
        <pt x="71" y="264" on="1"/>
        <pt x="71" y="360" on="0"/>
        <pt x="139" y="559" on="0"/>
        <pt x="288" y="696" on="0"/>
        <pt x="402" y="696" on="1"/>
      </contour>
    </TTGlyph>
    <TTGlyph name="Omegatonos" xMin="16" yMin="0" xMax="640" yMax="701">
      <component glyphName="Omega" x="0" y="0" flags="0x0"/>
      <component glyphName="tonos.case" x="-50" y="3" flags="0x0"/>
    </TTGlyph>
    <TTGlyph name="Omicron" xMin="71" yMin="-11" xMax="640" yMax="696">
      <contour>
        <pt x="514" y="696" on="0"/>
        <pt x="640" y="555" on="0"/>
        <pt x="640" y="424" on="1"/>
        <pt x="640" y="324" on="0"/>
        <pt x="574" y="124" on="0"/>
        <pt x="425" y="-11" on="0"/>
        <pt x="309" y="-11" on="1"/>
        <pt x="199" y="-11" on="0"/>
        <pt x="71" y="131" on="0"/>
        <pt x="71" y="262" on="1"/>
        <pt x="71" y="359" on="0"/>
        <pt x="139" y="559" on="0"/>
        <pt x="289" y="696" on="0"/>
        <pt x="404" y="696" on="1"/>
      </contour>
      <contour>
        <pt x="305" y="645" on="0"/>
        <pt x="185" y="522" on="0"/>
        <pt x="133" y="344" on="0"/>
        <pt x="133" y="256" on="1"/>
        <pt x="133" y="149" on="0"/>
        <pt x="227" y="40" on="0"/>
        <pt x="310" y="40" on="1"/>
        <pt x="408" y="40" on="0"/>
        <pt x="528" y="164" on="0"/>
        <pt x="578" y="343" on="0"/>
        <pt x="578" y="432" on="1"/>
        <pt x="578" y="538" on="0"/>
        <pt x="486" y="645" on="0"/>
        <pt x="401" y="645" on="1"/>
      </contour>
    </TTGlyph>
    <TTGlyph name="Omicrontonos" xMin="11" yMin="-11" xMax="640" yMax="701">
      <component glyphName="O" x="0" y="0" flags="0x0"/>
      <component glyphName="tonos.case" x="-55" y="3" flags="0x0"/>
    </TTGlyph>
    <TTGlyph name="Oslash" xMin="71" yMin="-120" xMax="640" yMax="810">
      <contour>
        <pt x="580" y="637" on="0"/>
        <pt x="640" y="513" on="0"/>
        <pt x="640" y="424" on="1"/>
        <pt x="640" y="324" on="0"/>
        <pt x="574" y="124" on="0"/>
        <pt x="425" y="-11" on="0"/>
        <pt x="309" y="-11" on="1"/>
        <pt x="269" y="-11" on="0"/>
        <pt x="231" y="0" on="1"/>
        <pt x="179" y="-120" on="1"/>
        <pt x="130" y="-105" on="1"/>
        <pt x="185" y="19" on="1"/>
        <pt x="130" y="50" on="0"/>
        <pt x="71" y="174" on="0"/>
        <pt x="71" y="262" on="1"/>
        <pt x="71" y="359" on="0"/>
        <pt x="139" y="559" on="0"/>
        <pt x="289" y="696" on="0"/>
        <pt x="404" y="696" on="1"/>
        <pt x="446" y="696" on="0"/>
        <pt x="479" y="686" on="1"/>
        <pt x="532" y="810" on="1"/>
        <pt x="582" y="796" on="1"/>
        <pt x="524" y="668" on="1"/>
      </contour>
      <contour>
        <pt x="133" y="116" on="0"/>
        <pt x="212" y="65" on="1"/>
        <pt x="462" y="638" on="1"/>
        <pt x="437" y="645" on="0"/>
        <pt x="401" y="645" on="1"/>
        <pt x="305" y="645" on="0"/>
        <pt x="185" y="522" on="0"/>
        <pt x="133" y="344" on="0"/>
        <pt x="133" y="256" on="1"/>
      </contour>
      <contour>
        <pt x="408" y="40" on="0"/>
        <pt x="528" y="164" on="0"/>
        <pt x="578" y="343" on="0"/>
        <pt x="578" y="432" on="1"/>
        <pt x="578" y="575" on="0"/>
        <pt x="498" y="622" on="1"/>
        <pt x="248" y="49" on="1"/>
        <pt x="277" y="40" on="0"/>
        <pt x="310" y="40" on="1"/>
      </contour>
    </TTGlyph>
    <TTGlyph name="Oslashacute" xMin="71" yMin="-120" xMax="640" yMax="900">
      <component glyphName="Oslash" x="0" y="0" flags="0x0"/>
      <component glyphName="acute.case" x="205" y="12" flags="0x0"/>
    </TTGlyph>
    <TTGlyph name="Oslashacute.001" xMin="71" yMin="-120" xMax="640" yMax="900">
      <component glyphName="Oslash" x="0" y="0" flags="0x0"/>
      <component glyphName="acute.case" x="205" y="12" flags="0x0"/>
    </TTGlyph>
    <TTGlyph name="Otilde" xMin="71" yMin="-11" xMax="640" yMax="884">
      <component glyphName="O" x="0" y="0" flags="0x0"/>
      <component glyphName="tilde.case" x="197" y="0" flags="0x0"/>
    </TTGlyph>
    <TTGlyph name="P" xMin="74" yMin="0" xMax="556" yMax="685">
      <contour>
        <pt x="438" y="685" on="0"/>
        <pt x="556" y="599" on="0"/>
        <pt x="556" y="512" on="1"/>
        <pt x="556" y="407" on="0"/>
        <pt x="421" y="267" on="0"/>
        <pt x="271" y="267" on="1"/>
        <pt x="170" y="267" on="1"/>
        <pt x="133" y="0" on="1"/>
        <pt x="74" y="0" on="1"/>
        <pt x="170" y="685" on="1"/>
        <pt x="328" y="685" on="1"/>
      </contour>
      <contour>
        <pt x="394" y="316" on="0"/>
        <pt x="494" y="426" on="0"/>
        <pt x="494" y="512" on="1"/>
        <pt x="494" y="578" on="0"/>
        <pt x="408" y="636" on="0"/>
        <pt x="324" y="636" on="1"/>
        <pt x="222" y="636" on="1"/>
        <pt x="177" y="316" on="1"/>
        <pt x="274" y="316" on="1"/>
      </contour>
    </TTGlyph>
    <TTGlyph name="Phi" xMin="50" yMin="0" xMax="761" yMax="685">
      <contour>
        <pt x="761" y="302" on="0"/>
        <pt x="694" y="166" on="0"/>
        <pt x="531" y="75" on="0"/>
        <pt x="396" y="70" on="1"/>
        <pt x="386" y="0" on="1"/>
        <pt x="328" y="0" on="1"/>
        <pt x="338" y="71" on="1"/>
        <pt x="196" y="76" on="0"/>
        <pt x="50" y="199" on="0"/>
        <pt x="50" y="305" on="1"/>
        <pt x="50" y="384" on="0"/>
        <pt x="118" y="519" on="0"/>
        <pt x="281" y="610" on="0"/>
        <pt x="415" y="614" on="1"/>
        <pt x="424" y="685" on="1"/>
        <pt x="483" y="685" on="1"/>
        <pt x="473" y="614" on="1"/>
        <pt x="614" y="609" on="0"/>
        <pt x="761" y="486" on="0"/>
        <pt x="761" y="381" on="1"/>
      </contour>
      <contour>
        <pt x="243" y="558" on="0"/>
        <pt x="110" y="410" on="0"/>
        <pt x="110" y="303" on="1"/>
        <pt x="110" y="215" on="0"/>
        <pt x="229" y="121" on="0"/>
        <pt x="346" y="118" on="1"/>
        <pt x="409" y="568" on="1"/>
      </contour>
      <contour>
        <pt x="570" y="127" on="0"/>
        <pt x="701" y="276" on="0"/>
        <pt x="701" y="383" on="1"/>
        <pt x="701" y="470" on="0"/>
        <pt x="583" y="564" on="0"/>
        <pt x="465" y="568" on="1"/>
        <pt x="402" y="117" on="1"/>
      </contour>
    </TTGlyph>
    <TTGlyph name="Pi" xMin="74" yMin="0" xMax="611" yMax="685">
      <component glyphName="uni041F" x="0" y="0" flags="0x0"/>
    </TTGlyph>
    <TTGlyph name="Psi" xMin="61" yMin="0" xMax="687" yMax="685">
      <contour>
        <pt x="650" y="425" on="1"/>
        <pt x="635" y="318" on="0"/>
        <pt x="485" y="206" on="0"/>
        <pt x="355" y="200" on="1"/>
        <pt x="327" y="0" on="1"/>
        <pt x="267" y="0" on="1"/>
        <pt x="295" y="201" on="1"/>
        <pt x="180" y="207" on="0"/>
        <pt x="61" y="303" on="0"/>
        <pt x="61" y="390" on="1"/>
        <pt x="61" y="402" on="0"/>
        <pt x="63" y="428" on="1"/>
        <pt x="100" y="685" on="1"/>
        <pt x="159" y="685" on="1"/>
        <pt x="123" y="429" on="1"/>
        <pt x="121" y="416" on="0"/>
        <pt x="121" y="392" on="1"/>
        <pt x="121" y="323" on="0"/>
        <pt x="209" y="254" on="0"/>
        <pt x="303" y="250" on="1"/>
        <pt x="364" y="685" on="1"/>
        <pt x="422" y="685" on="1"/>
        <pt x="361" y="250" on="1"/>
        <pt x="466" y="255" on="0"/>
        <pt x="580" y="346" on="0"/>
        <pt x="592" y="433" on="1"/>
        <pt x="628" y="685" on="1"/>
        <pt x="687" y="685" on="1"/>
      </contour>
    </TTGlyph>
    <TTGlyph name="Q" xMin="71" yMin="-93" xMax="640" yMax="696">
      <contour>
        <pt x="640" y="343" on="0"/>
        <pt x="597" y="179" on="0"/>
        <pt x="500" y="48" on="0"/>
        <pt x="425" y="21" on="1"/>
        <pt x="478" y="19" on="0"/>
        <pt x="571" y="-14" on="0"/>
        <pt x="605" y="-45" on="1"/>
        <pt x="561" y="-93" on="1"/>
        <pt x="514" y="-46" on="0"/>
        <pt x="403" y="-11" on="0"/>
        <pt x="309" y="-11" on="1"/>
        <pt x="199" y="-11" on="0"/>
        <pt x="71" y="131" on="0"/>
        <pt x="71" y="262" on="1"/>
        <pt x="71" y="359" on="0"/>
        <pt x="139" y="559" on="0"/>
        <pt x="289" y="696" on="0"/>
        <pt x="404" y="696" on="1"/>
        <pt x="514" y="696" on="0"/>
        <pt x="640" y="555" on="0"/>
        <pt x="640" y="424" on="1"/>
      </contour>
      <contour>
        <pt x="133" y="149" on="0"/>
        <pt x="227" y="40" on="0"/>
        <pt x="310" y="40" on="1"/>
        <pt x="408" y="40" on="0"/>
        <pt x="528" y="164" on="0"/>
        <pt x="578" y="343" on="0"/>
        <pt x="578" y="432" on="1"/>
        <pt x="578" y="538" on="0"/>
        <pt x="486" y="645" on="0"/>
        <pt x="401" y="645" on="1"/>
        <pt x="305" y="645" on="0"/>
        <pt x="185" y="522" on="0"/>
        <pt x="133" y="344" on="0"/>
        <pt x="133" y="256" on="1"/>
      </contour>
    </TTGlyph>
    <TTGlyph name="R" xMin="74" yMin="0" xMax="553" yMax="685">
      <contour>
        <pt x="553" y="455" on="0"/>
        <pt x="468" y="339" on="0"/>
        <pt x="373" y="316" on="1"/>
        <pt x="517" y="0" on="1"/>
        <pt x="451" y="0" on="1"/>
        <pt x="315" y="307" on="1"/>
        <pt x="176" y="307" on="1"/>
        <pt x="133" y="0" on="1"/>
        <pt x="74" y="0" on="1"/>
        <pt x="170" y="685" on="1"/>
        <pt x="334" y="685" on="1"/>
        <pt x="446" y="685" on="0"/>
        <pt x="553" y="607" on="0"/>
        <pt x="553" y="528" on="1"/>
      </contour>
      <contour>
        <pt x="402" y="356" on="0"/>
        <pt x="491" y="459" on="0"/>
        <pt x="491" y="530" on="1"/>
        <pt x="491" y="585" on="0"/>
        <pt x="417" y="636" on="0"/>
        <pt x="334" y="636" on="1"/>
        <pt x="222" y="636" on="1"/>
        <pt x="183" y="356" on="1"/>
        <pt x="301" y="356" on="1"/>
      </contour>
    </TTGlyph>
    <TTGlyph name="Racute" xMin="74" yMin="0" xMax="553" yMax="888">
      <component glyphName="R" x="0" y="0" flags="0x0"/>
      <component glyphName="acute.case" x="158" y="0" flags="0x0"/>
    </TTGlyph>
    <TTGlyph name="Rcaron" xMin="74" yMin="0" xMax="553" yMax="888">
      <component glyphName="R" x="0" y="0" flags="0x0"/>
      <component glyphName="caron.case" x="111" y="0" flags="0x0"/>
    </TTGlyph>
    <TTGlyph name="Rcommaaccent" xMin="74" yMin="-279" xMax="553" yMax="685">
      <component glyphName="R" x="0" y="0" flags="0x0"/>
      <component glyphName="uni0326.case" x="226" y="0" flags="0x0"/>
    </TTGlyph>
    <TTGlyph name="Rho" xMin="74" yMin="0" xMax="556" yMax="685">
      <component glyphName="P" x="0" y="0" flags="0x0"/>
    </TTGlyph>
    <TTGlyph name="S" xMin="13" yMin="-11" xMax="511" yMax="696">
      <contour>
        <pt x="384" y="696" on="0"/>
        <pt x="474" y="657" on="0"/>
        <pt x="511" y="619" on="1"/>
        <pt x="473" y="583" on="1"/>
        <pt x="441" y="616" on="0"/>
        <pt x="370" y="645" on="0"/>
        <pt x="324" y="645" on="1"/>
        <pt x="254" y="645" on="0"/>
        <pt x="162" y="574" on="0"/>
        <pt x="162" y="517" on="1"/>
        <pt x="162" y="471" on="0"/>
        <pt x="223" y="415" on="0"/>
        <pt x="300" y="389" on="1"/>
        <pt x="387" y="362" on="0"/>
        <pt x="475" y="278" on="0"/>
        <pt x="475" y="204" on="1"/>
        <pt x="475" y="154" on="0"/>
        <pt x="423" y="55" on="0"/>
        <pt x="309" y="-11" on="0"/>
        <pt x="221" y="-11" on="1"/>
        <pt x="153" y="-11" on="0"/>
        <pt x="52" y="35" on="0"/>
        <pt x="13" y="77" on="1"/>
        <pt x="52" y="113" on="1"/>
        <pt x="85" y="77" on="0"/>
        <pt x="166" y="40" on="0"/>
        <pt x="222" y="40" on="1"/>
        <pt x="283" y="40" on="0"/>
        <pt x="370" y="85" on="0"/>
        <pt x="414" y="159" on="0"/>
        <pt x="414" y="202" on="1"/>
        <pt x="414" y="253" on="0"/>
        <pt x="350" y="316" on="0"/>
        <pt x="274" y="342" on="1"/>
        <pt x="183" y="370" on="0"/>
        <pt x="102" y="450" on="0"/>
        <pt x="102" y="515" on="1"/>
        <pt x="102" y="557" on="0"/>
        <pt x="151" y="641" on="0"/>
        <pt x="251" y="696" on="0"/>
        <pt x="324" y="696" on="1"/>
      </contour>
    </TTGlyph>
    <TTGlyph name="Sacute" xMin="13" yMin="-11" xMax="511" yMax="888">
      <component glyphName="S" x="0" y="0" flags="0x0"/>
      <component glyphName="acute.case" x="135" y="0" flags="0x0"/>
    </TTGlyph>
    <TTGlyph name="Sacute.loclPLK" xMin="13" yMin="-11" xMax="511" yMax="908">
      <component glyphName="S" x="0" y="0" flags="0x0"/>
      <component glyphName="acute.case.loclPLK" x="138" y="0" flags="0x0"/>
    </TTGlyph>
    <TTGlyph name="Scaron" xMin="13" yMin="-11" xMax="511" yMax="888">
      <component glyphName="S" x="0" y="0" flags="0x0"/>
      <component glyphName="caron.case" x="89" y="0" flags="0x0"/>
    </TTGlyph>
    <TTGlyph name="Scedilla" xMin="13" yMin="-228" xMax="511" yMax="696">
      <contour>
        <pt x="387" y="362" on="0"/>
        <pt x="475" y="278" on="0"/>
        <pt x="475" y="204" on="1"/>
        <pt x="475" y="154" on="0"/>
        <pt x="424" y="56" on="0"/>
        <pt x="311" y="-11" on="0"/>
        <pt x="224" y="-11" on="1"/>
        <pt x="216" y="-64" on="1"/>
        <pt x="258" y="-68" on="0"/>
        <pt x="299" y="-104" on="0"/>
        <pt x="299" y="-133" on="1"/>
        <pt x="299" y="-172" on="0"/>
        <pt x="235" y="-228" on="0"/>
        <pt x="184" y="-228" on="1"/>
        <pt x="138" y="-228" on="0"/>
        <pt x="105" y="-205" on="1"/>
        <pt x="127" y="-170" on="1"/>
        <pt x="152" y="-186" on="0"/>
        <pt x="183" y="-186" on="1"/>
        <pt x="209" y="-186" on="0"/>
        <pt x="247" y="-159" on="0"/>
        <pt x="247" y="-136" on="1"/>
        <pt x="247" y="-115" on="0"/>
        <pt x="211" y="-97" on="0"/>
        <pt x="165" y="-96" on="1"/>
        <pt x="184" y="-9" on="1"/>
        <pt x="82" y="2" on="0"/>
        <pt x="13" y="77" on="1"/>
        <pt x="52" y="113" on="1"/>
        <pt x="85" y="77" on="0"/>
        <pt x="166" y="40" on="0"/>
        <pt x="222" y="40" on="1"/>
        <pt x="283" y="40" on="0"/>
        <pt x="370" y="85" on="0"/>
        <pt x="414" y="159" on="0"/>
        <pt x="414" y="202" on="1"/>
        <pt x="414" y="253" on="0"/>
        <pt x="350" y="316" on="0"/>
        <pt x="274" y="342" on="1"/>
        <pt x="183" y="370" on="0"/>
        <pt x="102" y="450" on="0"/>
        <pt x="102" y="515" on="1"/>
        <pt x="102" y="557" on="0"/>
        <pt x="151" y="641" on="0"/>
        <pt x="251" y="696" on="0"/>
        <pt x="324" y="696" on="1"/>
        <pt x="384" y="696" on="0"/>
        <pt x="474" y="657" on="0"/>
        <pt x="511" y="619" on="1"/>
        <pt x="473" y="583" on="1"/>
        <pt x="441" y="616" on="0"/>
        <pt x="370" y="645" on="0"/>
        <pt x="324" y="645" on="1"/>
        <pt x="254" y="645" on="0"/>
        <pt x="162" y="574" on="0"/>
        <pt x="162" y="517" on="1"/>
        <pt x="162" y="471" on="0"/>
        <pt x="223" y="415" on="0"/>
        <pt x="300" y="389" on="1"/>
      </contour>
    </TTGlyph>
    <TTGlyph name="Scircumflex" xMin="13" yMin="-11" xMax="511" yMax="894">
      <component glyphName="S" x="0" y="0" flags="0x0"/>
      <component glyphName="circumflex.case" x="98" y="0" flags="0x0"/>
    </TTGlyph>
    <TTGlyph name="Scommaaccent" xMin="13" yMin="-279" xMax="511" yMax="696">
      <component glyphName="S" x="0" y="0" flags="0x0"/>
      <component glyphName="uni0326.case" x="183" y="0" flags="0x0"/>
    </TTGlyph>
    <TTGlyph name="Sigma" xMin="8" yMin="0" xMax="505" yMax="685">
      <contour>
        <pt x="170" y="634" on="1"/>
        <pt x="344" y="357" on="1"/>
        <pt x="340" y="323" on="1"/>
        <pt x="89" y="51" on="1"/>
        <pt x="417" y="51" on="1"/>
        <pt x="409" y="0" on="1"/>
        <pt x="8" y="0" on="1"/>
        <pt x="14" y="44" on="1"/>
        <pt x="286" y="339" on="1"/>
        <pt x="99" y="641" on="1"/>
        <pt x="104" y="685" on="1"/>
        <pt x="505" y="685" on="1"/>
        <pt x="498" y="634" on="1"/>
      </contour>
    </TTGlyph>
    <TTGlyph name="T" xMin="66" yMin="0" xMax="542" yMax="685">
      <contour>
        <pt x="328" y="632" on="1"/>
        <pt x="239" y="0" on="1"/>
        <pt x="179" y="0" on="1"/>
        <pt x="268" y="632" on="1"/>
        <pt x="66" y="632" on="1"/>
        <pt x="74" y="685" on="1"/>
        <pt x="542" y="685" on="1"/>
        <pt x="527" y="632" on="1"/>
      </contour>
    </TTGlyph>
    <TTGlyph name="Tau" xMin="66" yMin="0" xMax="542" yMax="685">
      <component glyphName="T" x="0" y="0" flags="0x0"/>
    </TTGlyph>
    <TTGlyph name="Tbar" xMin="66" yMin="0" xMax="542" yMax="685">
      <contour>
        <pt x="418" y="385" on="1"/>
        <pt x="412" y="338" on="1"/>
        <pt x="287" y="338" on="1"/>
        <pt x="239" y="0" on="1"/>
        <pt x="179" y="0" on="1"/>
        <pt x="227" y="338" on="1"/>
        <pt x="105" y="338" on="1"/>
        <pt x="112" y="385" on="1"/>
        <pt x="233" y="385" on="1"/>
        <pt x="268" y="632" on="1"/>
        <pt x="66" y="632" on="1"/>
        <pt x="74" y="685" on="1"/>
        <pt x="542" y="685" on="1"/>
        <pt x="527" y="632" on="1"/>
        <pt x="328" y="632" on="1"/>
        <pt x="293" y="385" on="1"/>
      </contour>
    </TTGlyph>
    <TTGlyph name="Tcaron" xMin="66" yMin="0" xMax="542" yMax="888">
      <component glyphName="T" x="0" y="0" flags="0x0"/>
      <component glyphName="caron.case" x="60" y="0" flags="0x0"/>
    </TTGlyph>
    <TTGlyph name="Tcedilla" xMin="66" yMin="-228" xMax="542" yMax="685">
      <contour>
        <pt x="527" y="632" on="1"/>
        <pt x="328" y="632" on="1"/>
        <pt x="239" y="0" on="1"/>
        <pt x="229" y="-64" on="1"/>
        <pt x="271" y="-68" on="0"/>
        <pt x="311" y="-104" on="0"/>
        <pt x="311" y="-133" on="1"/>
        <pt x="311" y="-172" on="0"/>
        <pt x="247" y="-228" on="0"/>
        <pt x="197" y="-228" on="1"/>
        <pt x="151" y="-228" on="0"/>
        <pt x="118" y="-205" on="1"/>
        <pt x="140" y="-170" on="1"/>
        <pt x="165" y="-186" on="0"/>
        <pt x="196" y="-186" on="1"/>
        <pt x="222" y="-186" on="0"/>
        <pt x="261" y="-159" on="0"/>
        <pt x="261" y="-136" on="1"/>
        <pt x="261" y="-115" on="0"/>
        <pt x="224" y="-97" on="0"/>
        <pt x="178" y="-96" on="1"/>
        <pt x="199" y="0" on="1"/>
        <pt x="179" y="0" on="1"/>
        <pt x="268" y="632" on="1"/>
        <pt x="66" y="632" on="1"/>
        <pt x="74" y="685" on="1"/>
        <pt x="542" y="685" on="1"/>
      </contour>
    </TTGlyph>
    <TTGlyph name="Theta" xMin="71" yMin="-11" xMax="640" yMax="696">
      <contour>
        <pt x="513" y="696" on="0"/>
        <pt x="640" y="555" on="0"/>
        <pt x="640" y="424" on="1"/>
        <pt x="640" y="326" on="0"/>
        <pt x="573" y="126" on="0"/>
        <pt x="424" y="-11" on="0"/>
        <pt x="309" y="-11" on="1"/>
        <pt x="199" y="-11" on="0"/>
        <pt x="71" y="131" on="0"/>
        <pt x="71" y="262" on="1"/>
        <pt x="71" y="359" on="0"/>
        <pt x="139" y="559" on="0"/>
        <pt x="287" y="696" on="0"/>
        <pt x="402" y="696" on="1"/>
      </contour>
      <contour>
        <pt x="305" y="645" on="0"/>
        <pt x="185" y="522" on="0"/>
        <pt x="133" y="344" on="0"/>
        <pt x="133" y="256" on="1"/>
        <pt x="133" y="149" on="0"/>
        <pt x="227" y="40" on="0"/>
        <pt x="310" y="40" on="1"/>
        <pt x="408" y="40" on="0"/>
        <pt x="528" y="164" on="0"/>
        <pt x="578" y="343" on="0"/>
        <pt x="578" y="432" on="1"/>
        <pt x="578" y="539" on="0"/>
        <pt x="486" y="645" on="0"/>
        <pt x="401" y="645" on="1"/>
      </contour>
      <contour>
        <pt x="224" y="327" on="1"/>
        <pt x="232" y="376" on="1"/>
        <pt x="489" y="376" on="1"/>
        <pt x="482" y="327" on="1"/>
      </contour>
    </TTGlyph>
    <TTGlyph name="Thorn" xMin="74" yMin="0" xMax="539" yMax="685">
      <contour>
        <pt x="539" y="563" on="0"/>
        <pt x="539" y="385" on="1"/>
        <pt x="539" y="321" on="0"/>
        <pt x="485" y="208" on="0"/>
        <pt x="357" y="136" on="0"/>
        <pt x="252" y="136" on="1"/>
        <pt x="152" y="136" on="1"/>
        <pt x="133" y="0" on="1"/>
        <pt x="74" y="0" on="1"/>
        <pt x="170" y="685" on="1"/>
        <pt x="229" y="685" on="1"/>
        <pt x="212" y="563" on="1"/>
        <pt x="311" y="563" on="1"/>
      </contour>
      <contour>
        <pt x="374" y="186" on="0"/>
        <pt x="477" y="299" on="0"/>
        <pt x="477" y="384" on="1"/>
        <pt x="477" y="455" on="0"/>
        <pt x="393" y="513" on="0"/>
        <pt x="308" y="513" on="1"/>
        <pt x="205" y="513" on="1"/>
        <pt x="159" y="186" on="1"/>
        <pt x="256" y="186" on="1"/>
      </contour>
    </TTGlyph>
    <TTGlyph name="U" xMin="91" yMin="-11" xMax="608" yMax="685">
      <contour>
        <pt x="527" y="110" on="0"/>
        <pt x="397" y="-11" on="0"/>
        <pt x="289" y="-11" on="1"/>
        <pt x="191" y="-11" on="0"/>
        <pt x="91" y="88" on="0"/>
        <pt x="91" y="172" on="1"/>
        <pt x="91" y="194" on="0"/>
        <pt x="94" y="216" on="1"/>
        <pt x="160" y="685" on="1"/>
        <pt x="219" y="685" on="1"/>
        <pt x="154" y="217" on="1"/>
        <pt x="151" y="195" on="0"/>
        <pt x="151" y="174" on="1"/>
        <pt x="151" y="41" on="0"/>
        <pt x="290" y="41" on="1"/>
        <pt x="375" y="41" on="0"/>
        <pt x="470" y="136" on="0"/>
        <pt x="482" y="221" on="1"/>
        <pt x="548" y="685" on="1"/>
        <pt x="608" y="685" on="1"/>
        <pt x="542" y="212" on="1"/>
      </contour>
    </TTGlyph>
    <TTGlyph name="Uacute" xMin="91" yMin="-11" xMax="608" yMax="888">
      <component glyphName="U" x="0" y="0" flags="0x0"/>
      <component glyphName="acute.case" x="192" y="0" flags="0x0"/>
    </TTGlyph>
    <TTGlyph name="Ubreve" xMin="91" yMin="-11" xMax="608" yMax="875">
      <component glyphName="U" x="0" y="0" flags="0x0"/>
      <component glyphName="breve.case" x="161" y="0" flags="0x0"/>
    </TTGlyph>
    <TTGlyph name="Ucircumflex" xMin="91" yMin="-11" xMax="608" yMax="894">
      <component glyphName="U" x="0" y="0" flags="0x0"/>
      <component glyphName="circumflex.case" x="155" y="0" flags="0x0"/>
    </TTGlyph>
    <TTGlyph name="Udieresis" xMin="91" yMin="-11" xMax="608" yMax="868">
      <component glyphName="U" x="0" y="0" flags="0x0"/>
      <component glyphName="dieresis.case" x="201" y="0" flags="0x0"/>
    </TTGlyph>
    <TTGlyph name="Ugrave" xMin="91" yMin="-11" xMax="608" yMax="888">
      <component glyphName="U" x="0" y="0" flags="0x0"/>
      <component glyphName="grave.case" x="192" y="0" flags="0x0"/>
    </TTGlyph>
    <TTGlyph name="Uhungarumlaut" xMin="91" yMin="-11" xMax="608" yMax="937">
      <component glyphName="U" x="0" y="0" flags="0x0"/>
      <component glyphName="hungarumlaut.case" x="210" y="0" flags="0x0"/>
    </TTGlyph>
    <TTGlyph name="Umacron" xMin="91" yMin="-11" xMax="608" yMax="849">
      <component glyphName="U" x="0" y="0" flags="0x0"/>
      <component glyphName="macron.case" x="215" y="0" flags="0x0"/>
    </TTGlyph>
    <TTGlyph name="Uogonek" xMin="91" yMin="-218" xMax="608" yMax="685">
      <contour>
        <pt x="542" y="212" on="1"/>
        <pt x="530" y="129" on="0"/>
        <pt x="438" y="16" on="0"/>
        <pt x="363" y="-2" on="1"/>
        <pt x="299" y="-31" on="0"/>
        <pt x="246" y="-84" on="0"/>
        <pt x="246" y="-118" on="1"/>
        <pt x="246" y="-143" on="0"/>
        <pt x="278" y="-170" on="0"/>
        <pt x="310" y="-170" on="1"/>
        <pt x="335" y="-170" on="0"/>
        <pt x="366" y="-163" on="1"/>
        <pt x="361" y="-212" on="1"/>
        <pt x="331" y="-218" on="0"/>
        <pt x="303" y="-218" on="1"/>
        <pt x="250" y="-218" on="0"/>
        <pt x="191" y="-166" on="0"/>
        <pt x="191" y="-126" on="1"/>
        <pt x="191" y="-53" on="0"/>
        <pt x="285" y="-11" on="1"/>
        <pt x="189" y="-10" on="0"/>
        <pt x="91" y="88" on="0"/>
        <pt x="91" y="172" on="1"/>
        <pt x="91" y="194" on="0"/>
        <pt x="94" y="216" on="1"/>
        <pt x="160" y="685" on="1"/>
        <pt x="219" y="685" on="1"/>
        <pt x="154" y="217" on="1"/>
        <pt x="151" y="195" on="0"/>
        <pt x="151" y="174" on="1"/>
        <pt x="151" y="41" on="0"/>
        <pt x="290" y="41" on="1"/>
        <pt x="375" y="41" on="0"/>
        <pt x="470" y="136" on="0"/>
        <pt x="482" y="221" on="1"/>
        <pt x="548" y="685" on="1"/>
        <pt x="608" y="685" on="1"/>
      </contour>
    </TTGlyph>
    <TTGlyph name="Upsilon" xMin="73" yMin="0" xMax="567" yMax="685">
      <contour>
        <pt x="254" y="0" on="1"/>
        <pt x="194" y="0" on="1"/>
        <pt x="232" y="267" on="1"/>
        <pt x="73" y="685" on="1"/>
        <pt x="136" y="685" on="1"/>
        <pt x="267" y="322" on="1"/>
        <pt x="500" y="685" on="1"/>
        <pt x="567" y="685" on="1"/>
        <pt x="292" y="268" on="1"/>
      </contour>
    </TTGlyph>
    <TTGlyph name="Upsilondieresis" xMin="73" yMin="0" xMax="567" yMax="868">
      <component glyphName="Y" x="0" y="0" flags="0x0"/>
      <component glyphName="dieresis.case" x="134" y="0" flags="0x0"/>
    </TTGlyph>
    <TTGlyph name="Upsilontonos" xMin="-67" yMin="0" xMax="567" yMax="701">
      <component glyphName="Y" x="0" y="0" flags="0x0"/>
      <component glyphName="tonos.case" x="-133" y="3" flags="0x0"/>
    </TTGlyph>
    <TTGlyph name="Uring" xMin="91" yMin="-11" xMax="608" yMax="947">
      <component glyphName="U" x="0" y="0" flags="0x0"/>
      <component glyphName="ring.case" x="237" y="0" flags="0x0"/>
    </TTGlyph>
    <TTGlyph name="Utilde" xMin="91" yMin="-11" xMax="608" yMax="884">
      <component glyphName="U" x="0" y="0" flags="0x0"/>
      <component glyphName="tilde.case" x="185" y="0" flags="0x0"/>
    </TTGlyph>
    <TTGlyph name="V" xMin="75" yMin="0" xMax="586" yMax="685">
      <contour>
        <pt x="201" y="0" on="1"/>
        <pt x="75" y="685" on="1"/>
        <pt x="137" y="685" on="1"/>
        <pt x="242" y="62" on="1"/>
        <pt x="524" y="685" on="1"/>
        <pt x="586" y="685" on="1"/>
        <pt x="268" y="0" on="1"/>
      </contour>
    </TTGlyph>
    <TTGlyph name="W" xMin="90" yMin="0" xMax="836" yMax="685">
      <contour>
        <pt x="515" y="0" on="1"/>
        <pt x="453" y="618" on="1"/>
        <pt x="217" y="0" on="1"/>
        <pt x="144" y="0" on="1"/>
        <pt x="90" y="685" on="1"/>
        <pt x="149" y="685" on="1"/>
        <pt x="190" y="57" on="1"/>
        <pt x="428" y="685" on="1"/>
        <pt x="495" y="685" on="1"/>
        <pt x="559" y="56" on="1"/>
        <pt x="779" y="685" on="1"/>
        <pt x="836" y="685" on="1"/>
        <pt x="589" y="0" on="1"/>
      </contour>
    </TTGlyph>
    <TTGlyph name="Wacute" xMin="90" yMin="0" xMax="836" yMax="888">
      <component glyphName="W" x="0" y="0" flags="0x0"/>
      <component glyphName="acute.case" x="269" y="0" flags="0x0"/>
    </TTGlyph>
    <TTGlyph name="Wcircumflex" xMin="90" yMin="0" xMax="836" yMax="894">
      <component glyphName="W" x="0" y="0" flags="0x0"/>
      <component glyphName="circumflex.case" x="232" y="0" flags="0x0"/>
    </TTGlyph>
    <TTGlyph name="Wdieresis" xMin="90" yMin="0" xMax="836" yMax="868">
      <component glyphName="W" x="0" y="0" flags="0x0"/>
      <component glyphName="dieresis.case" x="278" y="0" flags="0x0"/>
    </TTGlyph>
    <TTGlyph name="Wgrave" xMin="90" yMin="0" xMax="836" yMax="888">
      <component glyphName="W" x="0" y="0" flags="0x0"/>
      <component glyphName="grave.case" x="269" y="0" flags="0x0"/>
    </TTGlyph>
    <TTGlyph name="X" xMin="-27" yMin="0" xMax="533" yMax="685">
      <contour>
        <pt x="464" y="0" on="1"/>
        <pt x="399" y="0" on="1"/>
        <pt x="264" y="327" on="1"/>
        <pt x="39" y="0" on="1"/>
        <pt x="-27" y="0" on="1"/>
        <pt x="232" y="369" on="1"/>
        <pt x="233" y="370" on="1"/>
        <pt x="90" y="685" on="1"/>
        <pt x="155" y="685" on="1"/>
        <pt x="271" y="410" on="1"/>
        <pt x="467" y="685" on="1"/>
        <pt x="533" y="685" on="1"/>
        <pt x="305" y="371" on="1"/>
        <pt x="303" y="369" on="1"/>
      </contour>
    </TTGlyph>
    <TTGlyph name="Xi" xMin="13" yMin="0" xMax="494" yMax="685">
      <contour>
        <pt x="102" y="630" on="1"/>
        <pt x="109" y="685" on="1"/>
        <pt x="494" y="685" on="1"/>
        <pt x="479" y="630" on="1"/>
      </contour>
      <contour>
        <pt x="118" y="327" on="1"/>
        <pt x="125" y="382" on="1"/>
        <pt x="400" y="382" on="1"/>
        <pt x="392" y="327" on="1"/>
      </contour>
      <contour>
        <pt x="13" y="0" on="1"/>
        <pt x="21" y="57" on="1"/>
        <pt x="416" y="57" on="1"/>
        <pt x="408" y="0" on="1"/>
      </contour>
    </TTGlyph>
    <TTGlyph name="Y" xMin="73" yMin="0" xMax="567" yMax="685">
      <contour>
        <pt x="254" y="0" on="1"/>
        <pt x="194" y="0" on="1"/>
        <pt x="232" y="267" on="1"/>
        <pt x="73" y="685" on="1"/>
        <pt x="136" y="685" on="1"/>
        <pt x="267" y="322" on="1"/>
        <pt x="500" y="685" on="1"/>
        <pt x="567" y="685" on="1"/>
        <pt x="292" y="268" on="1"/>
      </contour>
    </TTGlyph>
    <TTGlyph name="Yacute" xMin="73" yMin="0" xMax="567" yMax="888">
      <component glyphName="Y" x="0" y="0" flags="0x0"/>
      <component glyphName="acute.case" x="124" y="0" flags="0x0"/>
    </TTGlyph>
    <TTGlyph name="Ycircumflex" xMin="73" yMin="0" xMax="567" yMax="894">
      <component glyphName="Y" x="0" y="0" flags="0x0"/>
      <component glyphName="circumflex.case" x="87" y="0" flags="0x0"/>
    </TTGlyph>
    <TTGlyph name="Ydieresis" xMin="73" yMin="0" xMax="567" yMax="868">
      <component glyphName="Y" x="0" y="0" flags="0x0"/>
      <component glyphName="dieresis.case" x="134" y="0" flags="0x0"/>
    </TTGlyph>
    <TTGlyph name="Ygrave" xMin="73" yMin="0" xMax="567" yMax="888">
      <component glyphName="Y" x="0" y="0" flags="0x0"/>
      <component glyphName="grave.case" x="124" y="0" flags="0x0"/>
    </TTGlyph>
    <TTGlyph name="Z" xMin="-2" yMin="0" xMax="525" yMax="685">
      <contour>
        <pt x="75" y="53" on="1"/>
        <pt x="430" y="53" on="1"/>
        <pt x="415" y="0" on="1"/>
        <pt x="-2" y="0" on="1"/>
        <pt x="5" y="50" on="1"/>
        <pt x="450" y="633" on="1"/>
        <pt x="124" y="633" on="1"/>
        <pt x="132" y="685" on="1"/>
        <pt x="525" y="685" on="1"/>
        <pt x="519" y="636" on="1"/>
      </contour>
    </TTGlyph>
    <TTGlyph name="Zacute" xMin="-2" yMin="0" xMax="525" yMax="888">
      <component glyphName="Z" x="0" y="0" flags="0x0"/>
      <component glyphName="acute.case" x="127" y="0" flags="0x0"/>
    </TTGlyph>
    <TTGlyph name="Zacute.loclPLK" xMin="-2" yMin="0" xMax="525" yMax="908">
      <component glyphName="Z" x="0" y="0" flags="0x0"/>
      <component glyphName="acute.case.loclPLK" x="130" y="0" flags="0x0"/>
    </TTGlyph>
    <TTGlyph name="Zcaron" xMin="-2" yMin="0" xMax="525" yMax="888">
      <component glyphName="Z" x="0" y="0" flags="0x0"/>
      <component glyphName="caron.case" x="81" y="0" flags="0x0"/>
    </TTGlyph>
    <TTGlyph name="Zdotaccent" xMin="-2" yMin="0" xMax="525" yMax="879">
      <component glyphName="Z" x="0" y="0" flags="0x0"/>
      <component glyphName="dotaccent.case" x="228" y="0" flags="0x0"/>
    </TTGlyph>
    <TTGlyph name="Zeta" xMin="-2" yMin="0" xMax="525" yMax="685">
      <component glyphName="Z" x="0" y="0" flags="0x0"/>
    </TTGlyph>
    <TTGlyph name="a" xMin="58" yMin="-11" xMax="497" yMax="534">
      <contour>
        <pt x="376" y="534" on="0"/>
        <pt x="453" y="513" on="0"/>
        <pt x="497" y="491" on="1"/>
        <pt x="440" y="114" on="1"/>
        <pt x="438" y="90" on="0"/>
        <pt x="438" y="83" on="1"/>
        <pt x="438" y="60" on="0"/>
        <pt x="454" y="37" on="0"/>
        <pt x="471" y="30" on="1"/>
        <pt x="454" y="-11" on="1"/>
        <pt x="419" y="-4" on="0"/>
        <pt x="384" y="39" on="0"/>
        <pt x="384" y="84" on="1"/>
        <pt x="354" y="40" on="0"/>
        <pt x="271" y="-11" on="0"/>
        <pt x="223" y="-11" on="1"/>
        <pt x="145" y="-11" on="0"/>
        <pt x="58" y="97" on="0"/>
        <pt x="58" y="192" on="1"/>
        <pt x="58" y="270" on="0"/>
        <pt x="114" y="428" on="0"/>
        <pt x="235" y="534" on="0"/>
        <pt x="327" y="534" on="1"/>
      </contour>
      <contour>
        <pt x="257" y="487" on="0"/>
        <pt x="163" y="395" on="0"/>
        <pt x="119" y="259" on="0"/>
        <pt x="119" y="192" on="1"/>
        <pt x="119" y="116" on="0"/>
        <pt x="178" y="37" on="0"/>
        <pt x="233" y="37" on="1"/>
        <pt x="279" y="37" on="0"/>
        <pt x="354" y="94" on="0"/>
        <pt x="389" y="148" on="1"/>
        <pt x="436" y="463" on="1"/>
        <pt x="386" y="487" on="0"/>
        <pt x="329" y="487" on="1"/>
      </contour>
    </TTGlyph>
    <TTGlyph name="a.sc" xMin="-21" yMin="0" xMax="442" yMax="562">
      <contour>
        <pt x="39" y="0" on="1"/>
        <pt x="-21" y="0" on="1"/>
        <pt x="254" y="562" on="1"/>
        <pt x="325" y="562" on="1"/>
        <pt x="442" y="0" on="1"/>
        <pt x="383" y="0" on="1"/>
        <pt x="354" y="150" on="1"/>
        <pt x="111" y="150" on="1"/>
      </contour>
      <contour>
        <pt x="133" y="198" on="1"/>
        <pt x="345" y="198" on="1"/>
        <pt x="283" y="515" on="1"/>
      </contour>
    </TTGlyph>
    <TTGlyph name="aacute" xMin="58" yMin="-11" xMax="497" yMax="782">
      <component glyphName="a" x="0" y="0" flags="0x0"/>
      <component glyphName="acute" x="150" y="0" flags="0x0"/>
    </TTGlyph>
    <TTGlyph name="aacute.sc" xMin="-21" yMin="0" xMax="442" yMax="813">
      <component glyphName="a.sc" x="0" y="0" flags="0x0"/>
      <component glyphName="acute.sc" x="153" y="0" flags="0x0"/>
    </TTGlyph>
    <TTGlyph name="abreve" xMin="58" yMin="-11" xMax="497" yMax="773">
      <component glyphName="a" x="0" y="0" flags="0x0"/>
      <component glyphName="breve" x="136" y="0" flags="0x0"/>
    </TTGlyph>
    <TTGlyph name="abreve.sc" xMin="-21" yMin="0" xMax="445" yMax="804">
      <component glyphName="a.sc" x="0" y="0" flags="0x0"/>
      <component glyphName="breve.sc" x="122" y="0" flags="0x0"/>
    </TTGlyph>
    <TTGlyph name="acircumflex" xMin="58" yMin="-11" xMax="502" yMax="779">
      <component glyphName="a" x="0" y="0" flags="0x0"/>
      <component glyphName="circumflex" x="121" y="0" flags="0x0"/>
    </TTGlyph>
    <TTGlyph name="acircumflex.sc" xMin="-21" yMin="0" xMax="462" yMax="810">
      <component glyphName="a.sc" x="0" y="0" flags="0x0"/>
      <component glyphName="circumflex.sc" x="117" y="0" flags="0x0"/>
    </TTGlyph>
    <TTGlyph name="acute" xMin="88" yMin="645" xMax="308" yMax="782">
      <contour>
        <pt x="102" y="645" on="1"/>
        <pt x="88" y="679" on="1"/>
        <pt x="289" y="782" on="1"/>
        <pt x="308" y="730" on="1"/>
      </contour>
    </TTGlyph>
    <TTGlyph name="acute.case" xMin="104" yMin="758" xMax="323" yMax="888">
      <contour>
        <pt x="115" y="758" on="1"/>
        <pt x="104" y="792" on="1"/>
        <pt x="303" y="888" on="1"/>
        <pt x="323" y="836" on="1"/>
      </contour>
    </TTGlyph>
    <TTGlyph name="acute.case.loclPLK" xMin="160" yMin="732" xMax="327" yMax="908">
      <contour>
        <pt x="189" y="732" on="1"/>
        <pt x="160" y="751" on="1"/>
        <pt x="283" y="908" on="1"/>
        <pt x="327" y="877" on="1"/>
      </contour>
    </TTGlyph>
    <TTGlyph name="acute.loclPLK" xMin="139" yMin="578" xMax="308" yMax="763">
      <contour>
        <pt x="168" y="578" on="1"/>
        <pt x="139" y="597" on="1"/>
        <pt x="263" y="763" on="1"/>
        <pt x="308" y="731" on="1"/>
      </contour>
    </TTGlyph>
    <TTGlyph name="acute.sc" xMin="52" yMin="675" xMax="272" yMax="813">
      <contour>
        <pt x="66" y="675" on="1"/>
        <pt x="52" y="709" on="1"/>
        <pt x="253" y="813" on="1"/>
        <pt x="272" y="760" on="1"/>
      </contour>
    </TTGlyph>
    <TTGlyph name="acute.sc.loclPLK" xMin="142" yMin="618" xMax="310" yMax="804">
      <contour>
        <pt x="171" y="618" on="1"/>
        <pt x="142" y="638" on="1"/>
        <pt x="266" y="804" on="1"/>
        <pt x="310" y="772" on="1"/>
      </contour>
    </TTGlyph>
    <TTGlyph name="acutecomb" xMin="113" yMin="632" xMax="332" yMax="762">
      <contour>
        <pt x="124" y="632" on="1"/>
        <pt x="113" y="666" on="1"/>
        <pt x="312" y="762" on="1"/>
        <pt x="332" y="710" on="1"/>
      </contour>
    </TTGlyph>
    <TTGlyph name="adieresis" xMin="58" yMin="-11" xMax="497" yMax="742">
      <component glyphName="a" x="0" y="0" flags="0x0"/>
      <component glyphName="dieresis" x="126" y="0" flags="0x0"/>
    </TTGlyph>
    <TTGlyph name="adieresis.sc" xMin="-21" yMin="0" xMax="448" yMax="772">
      <component glyphName="a.sc" x="0" y="0" flags="0x0"/>
      <component glyphName="dieresis.sc" x="125" y="0" flags="0x0"/>
    </TTGlyph>
    <TTGlyph name="ae" xMin="46" yMin="-11" xMax="798" yMax="534">
      <contour>
        <pt x="365" y="534" on="0"/>
        <pt x="439" y="479" on="0"/>
        <pt x="451" y="432" on="1"/>
        <pt x="475" y="473" on="0"/>
        <pt x="577" y="534" on="0"/>
        <pt x="641" y="534" on="1"/>
        <pt x="714" y="534" on="0"/>
        <pt x="798" y="463" on="0"/>
        <pt x="798" y="407" on="1"/>
        <pt x="798" y="312" on="0"/>
        <pt x="609" y="221" on="0"/>
        <pt x="434" y="207" on="1"/>
        <pt x="434" y="39" on="0"/>
        <pt x="570" y="39" on="1"/>
        <pt x="611" y="39" on="0"/>
        <pt x="679" y="65" on="0"/>
        <pt x="717" y="92" on="1"/>
        <pt x="744" y="51" on="1"/>
        <pt x="702" y="20" on="0"/>
        <pt x="615" y="-11" on="0"/>
        <pt x="566" y="-11" on="1"/>
        <pt x="504" y="-11" on="0"/>
        <pt x="416" y="43" on="0"/>
        <pt x="395" y="93" on="1"/>
        <pt x="350" y="37" on="0"/>
        <pt x="252" y="-11" on="0"/>
        <pt x="194" y="-11" on="1"/>
        <pt x="125" y="-11" on="0"/>
        <pt x="46" y="63" on="0"/>
        <pt x="46" y="125" on="1"/>
        <pt x="46" y="202" on="0"/>
        <pt x="162" y="304" on="0"/>
        <pt x="287" y="304" on="1"/>
        <pt x="389" y="304" on="1"/>
        <pt x="401" y="353" on="0"/>
        <pt x="413" y="382" on="1"/>
        <pt x="411" y="428" on="0"/>
        <pt x="344" y="485" on="0"/>
        <pt x="290" y="485" on="1"/>
        <pt x="229" y="485" on="0"/>
        <pt x="147" y="456" on="1"/>
        <pt x="134" y="502" on="1"/>
        <pt x="223" y="534" on="0"/>
        <pt x="301" y="534" on="1"/>
      </contour>
      <contour>
        <pt x="551" y="486" on="0"/>
        <pt x="449" y="349" on="0"/>
        <pt x="437" y="253" on="1"/>
        <pt x="589" y="265" on="0"/>
        <pt x="737" y="336" on="0"/>
        <pt x="737" y="405" on="1"/>
        <pt x="737" y="439" on="0"/>
        <pt x="688" y="486" on="0"/>
        <pt x="641" y="486" on="1"/>
      </contour>
      <contour>
        <pt x="198" y="261" on="0"/>
        <pt x="108" y="187" on="0"/>
        <pt x="108" y="125" on="1"/>
        <pt x="108" y="82" on="0"/>
        <pt x="159" y="36" on="0"/>
        <pt x="204" y="36" on="1"/>
        <pt x="253" y="36" on="0"/>
        <pt x="340" y="87" on="0"/>
        <pt x="382" y="142" on="1"/>
        <pt x="377" y="167" on="0"/>
        <pt x="377" y="201" on="1"/>
        <pt x="377" y="229" on="0"/>
        <pt x="381" y="261" on="1"/>
        <pt x="293" y="261" on="1"/>
      </contour>
    </TTGlyph>
    <TTGlyph name="ae.sc" xMin="-37" yMin="0" xMax="642" yMax="562">
      <contour>
        <pt x="355" y="514" on="1"/>
        <pt x="379" y="314" on="1"/>
        <pt x="601" y="314" on="1"/>
        <pt x="594" y="267" on="1"/>
        <pt x="384" y="267" on="1"/>
        <pt x="411" y="47" on="1"/>
        <pt x="611" y="47" on="1"/>
        <pt x="604" y="0" on="1"/>
        <pt x="363" y="0" on="1"/>
        <pt x="345" y="147" on="1"/>
        <pt x="103" y="147" on="1"/>
        <pt x="24" y="0" on="1"/>
        <pt x="-37" y="0" on="1"/>
        <pt x="272" y="562" on="1"/>
        <pt x="642" y="562" on="1"/>
        <pt x="628" y="514" on="1"/>
      </contour>
      <contour>
        <pt x="340" y="195" on="1"/>
        <pt x="302" y="516" on="1"/>
        <pt x="129" y="195" on="1"/>
      </contour>
    </TTGlyph>
    <TTGlyph name="aeacute" xMin="46" yMin="-11" xMax="798" yMax="782">
      <component glyphName="ae" x="0" y="0" flags="0x0"/>
      <component glyphName="acute" x="280" y="0" flags="0x0"/>
    </TTGlyph>
    <TTGlyph name="aeacute.sc" xMin="-37" yMin="0" xMax="642" yMax="813">
      <component glyphName="ae.sc" x="0" y="0" flags="0x0"/>
      <component glyphName="acute.sc" x="302" y="0" flags="0x0"/>
    </TTGlyph>
    <TTGlyph name="agrave" xMin="58" yMin="-11" xMax="497" yMax="782">
      <component glyphName="a" x="0" y="0" flags="0x0"/>
      <component glyphName="grave" x="167" y="0" flags="0x0"/>
    </TTGlyph>
    <TTGlyph name="agrave.sc" xMin="-21" yMin="0" xMax="442" yMax="813">
      <component glyphName="a.sc" x="0" y="0" flags="0x0"/>
      <component glyphName="grave.sc" x="153" y="0" flags="0x0"/>
    </TTGlyph>
    <TTGlyph name="alpha" xMin="57" yMin="-11" xMax="556" yMax="534">
      <contour>
        <pt x="362" y="534" on="0"/>
        <pt x="434" y="449" on="0"/>
        <pt x="438" y="343" on="1"/>
        <pt x="500" y="523" on="1"/>
        <pt x="556" y="523" on="1"/>
        <pt x="460" y="262" on="1"/>
        <pt x="466" y="90" on="1"/>
        <pt x="467" y="68" on="0"/>
        <pt x="483" y="47" on="0"/>
        <pt x="500" y="41" on="1"/>
        <pt x="476" y="-8" on="1"/>
        <pt x="448" y="-2" on="0"/>
        <pt x="412" y="37" on="0"/>
        <pt x="412" y="73" on="1"/>
        <pt x="411" y="177" on="1"/>
        <pt x="375" y="82" on="0"/>
        <pt x="278" y="-11" on="0"/>
        <pt x="211" y="-11" on="1"/>
        <pt x="137" y="-11" on="0"/>
        <pt x="57" y="88" on="0"/>
        <pt x="57" y="184" on="1"/>
        <pt x="57" y="263" on="0"/>
        <pt x="105" y="424" on="0"/>
        <pt x="209" y="534" on="0"/>
        <pt x="288" y="534" on="1"/>
      </contour>
      <contour>
        <pt x="233" y="486" on="0"/>
        <pt x="154" y="387" on="0"/>
        <pt x="118" y="246" on="0"/>
        <pt x="118" y="180" on="1"/>
        <pt x="118" y="37" on="0"/>
        <pt x="217" y="37" on="1"/>
        <pt x="272" y="37" on="0"/>
        <pt x="367" y="140" on="0"/>
        <pt x="410" y="270" on="1"/>
        <pt x="406" y="355" on="0"/>
        <pt x="379" y="449" on="0"/>
        <pt x="331" y="486" on="0"/>
        <pt x="292" y="486" on="1"/>
      </contour>
    </TTGlyph>
    <TTGlyph name="alpha.sc" xMin="-21" yMin="0" xMax="442" yMax="562">
      <contour>
        <pt x="39" y="0" on="1"/>
        <pt x="-21" y="0" on="1"/>
        <pt x="254" y="562" on="1"/>
        <pt x="325" y="562" on="1"/>
        <pt x="442" y="0" on="1"/>
        <pt x="383" y="0" on="1"/>
        <pt x="354" y="150" on="1"/>
        <pt x="111" y="150" on="1"/>
      </contour>
      <contour>
        <pt x="133" y="198" on="1"/>
        <pt x="345" y="198" on="1"/>
        <pt x="283" y="515" on="1"/>
      </contour>
    </TTGlyph>
    <TTGlyph name="alphatonos" xMin="57" yMin="-11" xMax="556" yMax="774">
      <component glyphName="alpha" x="0" y="0" flags="0x0"/>
      <component glyphName="tonos" x="217" y="0" flags="0x0"/>
    </TTGlyph>
    <TTGlyph name="alphatonos.sc" xMin="-21" yMin="0" xMax="442" yMax="562">
      <component glyphName="a.sc" x="0" y="0" flags="0x0"/>
    </TTGlyph>
    <TTGlyph name="amacron" xMin="58" yMin="-11" xMax="497" yMax="723">
      <component glyphName="a" x="0" y="0" flags="0x0"/>
      <component glyphName="macron" x="147" y="0" flags="0x0"/>
    </TTGlyph>
    <TTGlyph name="amacron.sc" xMin="-21" yMin="0" xMax="442" yMax="753">
      <component glyphName="a.sc" x="0" y="0" flags="0x0"/>
      <component glyphName="macron.sc" x="139" y="0" flags="0x0"/>
    </TTGlyph>
    <TTGlyph name="ampersand" xMin="82" yMin="-11" xMax="644" yMax="696">
      <contour>
        <pt x="395" y="696" on="0"/>
        <pt x="468" y="661" on="0"/>
        <pt x="509" y="600" on="0"/>
        <pt x="509" y="563" on="1"/>
        <pt x="509" y="501" on="0"/>
        <pt x="425" y="415" on="0"/>
        <pt x="326" y="364" on="1"/>
        <pt x="504" y="172" on="1"/>
        <pt x="553" y="251" on="0"/>
        <pt x="592" y="345" on="1"/>
        <pt x="644" y="326" on="1"/>
        <pt x="594" y="217" on="0"/>
        <pt x="537" y="136" on="1"/>
        <pt x="641" y="22" on="1"/>
        <pt x="595" y="-10" on="1"/>
        <pt x="500" y="95" on="1"/>
        <pt x="451" y="44" on="0"/>
        <pt x="337" y="-11" on="0"/>
        <pt x="264" y="-11" on="1"/>
        <pt x="210" y="-11" on="0"/>
        <pt x="127" y="33" on="0"/>
        <pt x="82" y="110" on="0"/>
        <pt x="82" y="157" on="1"/>
        <pt x="82" y="223" on="0"/>
        <pt x="154" y="324" on="0"/>
        <pt x="247" y="373" on="1"/>
        <pt x="208" y="417" on="0"/>
        <pt x="170" y="492" on="0"/>
        <pt x="170" y="531" on="1"/>
        <pt x="170" y="606" on="0"/>
        <pt x="268" y="696" on="0"/>
        <pt x="349" y="696" on="1"/>
      </contour>
      <contour>
        <pt x="288" y="651" on="0"/>
        <pt x="227" y="580" on="0"/>
        <pt x="227" y="531" on="1"/>
        <pt x="227" y="500" on="0"/>
        <pt x="258" y="436" on="0"/>
        <pt x="294" y="397" on="1"/>
        <pt x="382" y="442" on="0"/>
        <pt x="452" y="514" on="0"/>
        <pt x="452" y="563" on="1"/>
        <pt x="452" y="603" on="0"/>
        <pt x="393" y="651" on="0"/>
        <pt x="349" y="651" on="1"/>
      </contour>
      <contour>
        <pt x="200" y="297" on="0"/>
        <pt x="141" y="210" on="0"/>
        <pt x="141" y="159" on="1"/>
        <pt x="141" y="107" on="0"/>
        <pt x="211" y="37" on="0"/>
        <pt x="269" y="37" on="1"/>
        <pt x="329" y="37" on="0"/>
        <pt x="423" y="85" on="0"/>
        <pt x="467" y="131" on="1"/>
        <pt x="278" y="339" on="1"/>
      </contour>
    </TTGlyph>
    <TTGlyph name="aogonek" xMin="58" yMin="-229" xMax="497" yMax="534">
      <contour>
        <pt x="438" y="60" on="0"/>
        <pt x="454" y="37" on="0"/>
        <pt x="471" y="30" on="1"/>
        <pt x="454" y="-11" on="1"/>
        <pt x="378" y="-43" on="0"/>
        <pt x="314" y="-101" on="0"/>
        <pt x="314" y="-136" on="1"/>
        <pt x="314" y="-180" on="0"/>
        <pt x="369" y="-180" on="1"/>
        <pt x="394" y="-180" on="0"/>
        <pt x="428" y="-174" on="1"/>
        <pt x="418" y="-223" on="1"/>
        <pt x="388" y="-229" on="0"/>
        <pt x="361" y="-229" on="1"/>
        <pt x="312" y="-229" on="0"/>
        <pt x="260" y="-183" on="0"/>
        <pt x="260" y="-147" on="1"/>
        <pt x="260" y="-98" on="0"/>
        <pt x="332" y="-25" on="0"/>
        <pt x="415" y="5" on="1"/>
        <pt x="384" y="27" on="0"/>
        <pt x="384" y="84" on="1"/>
        <pt x="354" y="40" on="0"/>
        <pt x="271" y="-11" on="0"/>
        <pt x="223" y="-11" on="1"/>
        <pt x="145" y="-11" on="0"/>
        <pt x="58" y="97" on="0"/>
        <pt x="58" y="192" on="1"/>
        <pt x="58" y="270" on="0"/>
        <pt x="114" y="428" on="0"/>
        <pt x="235" y="534" on="0"/>
        <pt x="327" y="534" on="1"/>
        <pt x="376" y="534" on="0"/>
        <pt x="453" y="513" on="0"/>
        <pt x="497" y="491" on="1"/>
        <pt x="440" y="114" on="1"/>
        <pt x="438" y="90" on="0"/>
        <pt x="438" y="83" on="1"/>
      </contour>
      <contour>
        <pt x="386" y="487" on="0"/>
        <pt x="329" y="487" on="1"/>
        <pt x="257" y="487" on="0"/>
        <pt x="163" y="395" on="0"/>
        <pt x="119" y="259" on="0"/>
        <pt x="119" y="192" on="1"/>
        <pt x="119" y="116" on="0"/>
        <pt x="178" y="37" on="0"/>
        <pt x="233" y="37" on="1"/>
        <pt x="279" y="37" on="0"/>
        <pt x="354" y="94" on="0"/>
        <pt x="389" y="148" on="1"/>
        <pt x="436" y="463" on="1"/>
      </contour>
    </TTGlyph>
    <TTGlyph name="aogonek.sc" xMin="-21" yMin="-218" xMax="442" yMax="562">
      <contour>
        <pt x="315" y="-32" on="0"/>
        <pt x="251" y="-90" on="0"/>
        <pt x="251" y="-125" on="1"/>
        <pt x="251" y="-169" on="0"/>
        <pt x="306" y="-169" on="1"/>
        <pt x="331" y="-169" on="0"/>
        <pt x="365" y="-163" on="1"/>
        <pt x="355" y="-212" on="1"/>
        <pt x="325" y="-218" on="0"/>
        <pt x="298" y="-218" on="1"/>
        <pt x="250" y="-218" on="0"/>
        <pt x="197" y="-172" on="0"/>
        <pt x="197" y="-136" on="1"/>
        <pt x="197" y="-84" on="0"/>
        <pt x="280" y="-7" on="0"/>
        <pt x="378" y="25" on="1"/>
        <pt x="354" y="150" on="1"/>
        <pt x="111" y="150" on="1"/>
        <pt x="39" y="0" on="1"/>
        <pt x="-21" y="0" on="1"/>
        <pt x="254" y="562" on="1"/>
        <pt x="325" y="562" on="1"/>
        <pt x="442" y="0" on="1"/>
        <pt x="391" y="0" on="1"/>
      </contour>
      <contour>
        <pt x="283" y="515" on="1"/>
        <pt x="133" y="198" on="1"/>
        <pt x="345" y="198" on="1"/>
      </contour>
    </TTGlyph>
    <TTGlyph name="approxequal" xMin="44" yMin="184" xMax="442" yMax="460">
      <component glyphName="asciitilde" x="-11" y="-79" flags="0x0"/>
      <component glyphName="asciitilde" x="12" y="89" flags="0x0"/>
    </TTGlyph>
    <TTGlyph name="approxequal.osf" xMin="45" yMin="185" xMax="442" yMax="461">
      <component glyphName="asciitilde" x="13" y="89" flags="0x0"/>
      <component glyphName="asciitilde" x="-11" y="-79" flags="0x0"/>
    </TTGlyph>
    <TTGlyph name="approxequal.tf" xMin="52" yMin="185" xMax="449" yMax="461">
      <component glyphName="asciitilde" x="20" y="89" flags="0x0"/>
      <component glyphName="asciitilde" x="-4" y="-79" flags="0x0"/>
    </TTGlyph>
    <TTGlyph name="approxequal.tosf" xMin="52" yMin="185" xMax="449" yMax="461">
      <component glyphName="asciitilde" x="20" y="89" flags="0x0"/>
      <component glyphName="asciitilde" x="-4" y="-79" flags="0x0"/>
    </TTGlyph>
    <TTGlyph name="aring" xMin="58" yMin="-11" xMax="497" yMax="821">
      <component glyphName="a" x="0" y="0" flags="0x0"/>
      <component glyphName="ring" x="168" y="0" flags="0x0"/>
    </TTGlyph>
    <TTGlyph name="aring.sc" xMin="-21" yMin="0" xMax="442" yMax="851">
      <component glyphName="a.sc" x="0" y="0" flags="0x0"/>
      <component glyphName="ring.sc" x="161" y="0" flags="0x0"/>
    </TTGlyph>
    <TTGlyph name="arrowdown" xMin="132" yMin="-25" xMax="729" yMax="623">
      <contour>
        <pt x="480" y="91" on="0"/>
        <pt x="528" y="133" on="1"/>
        <pt x="693" y="281" on="1"/>
        <pt x="729" y="242" on="1"/>
        <pt x="431" y="-25" on="1"/>
        <pt x="132" y="242" on="1"/>
        <pt x="168" y="281" on="1"/>
        <pt x="333" y="133" on="1"/>
        <pt x="381" y="91" on="0"/>
        <pt x="402" y="59" on="1"/>
        <pt x="402" y="623" on="1"/>
        <pt x="459" y="623" on="1"/>
        <pt x="459" y="59" on="1"/>
      </contour>
    </TTGlyph>
    <TTGlyph name="arrowdownwhite" xMin="60" yMin="-94" xMax="660" yMax="750">
      <contour>
        <pt x="464" y="750" on="0"/>
        <pt x="491" y="723" on="0"/>
        <pt x="491" y="700" on="1"/>
        <pt x="491" y="204" on="1"/>
        <pt x="660" y="204" on="1"/>
        <pt x="360" y="-94" on="1"/>
        <pt x="60" y="204" on="1"/>
        <pt x="229" y="204" on="1"/>
        <pt x="229" y="700" on="1"/>
        <pt x="229" y="723" on="0"/>
        <pt x="257" y="750" on="0"/>
        <pt x="279" y="750" on="1"/>
        <pt x="441" y="750" on="1"/>
      </contour>
      <contour>
        <pt x="169" y="159" on="1"/>
        <pt x="360" y="-30" on="1"/>
        <pt x="551" y="159" on="1"/>
        <pt x="444" y="159" on="1"/>
        <pt x="444" y="706" on="1"/>
        <pt x="276" y="706" on="1"/>
        <pt x="276" y="159" on="1"/>
      </contour>
    </TTGlyph>
    <TTGlyph name="arrowleft" xMin="137" yMin="42" xMax="758" yMax="616">
      <contour>
        <pt x="297" y="424" on="1"/>
        <pt x="257" y="378" on="0"/>
        <pt x="223" y="355" on="1"/>
        <pt x="758" y="355" on="1"/>
        <pt x="758" y="303" on="1"/>
        <pt x="223" y="303" on="1"/>
        <pt x="259" y="278" on="0"/>
        <pt x="297" y="234" on="1"/>
        <pt x="436" y="79" on="1"/>
        <pt x="394" y="42" on="1"/>
        <pt x="137" y="329" on="1"/>
        <pt x="394" y="616" on="1"/>
        <pt x="436" y="579" on="1"/>
      </contour>
    </TTGlyph>
    <TTGlyph name="arrowleftwhite" xMin="40" yMin="13" xMax="920" yMax="613">
      <contour>
        <pt x="920" y="217" on="0"/>
        <pt x="893" y="189" on="0"/>
        <pt x="870" y="189" on="1"/>
        <pt x="338" y="189" on="1"/>
        <pt x="338" y="13" on="1"/>
        <pt x="40" y="313" on="1"/>
        <pt x="338" y="613" on="1"/>
        <pt x="338" y="437" on="1"/>
        <pt x="870" y="437" on="1"/>
        <pt x="893" y="437" on="0"/>
        <pt x="920" y="410" on="0"/>
        <pt x="920" y="387" on="1"/>
        <pt x="920" y="239" on="1"/>
      </contour>
      <contour>
        <pt x="293" y="504" on="1"/>
        <pt x="104" y="313" on="1"/>
        <pt x="293" y="122" on="1"/>
        <pt x="293" y="233" on="1"/>
        <pt x="876" y="233" on="1"/>
        <pt x="876" y="393" on="1"/>
        <pt x="293" y="393" on="1"/>
      </contour>
    </TTGlyph>
    <TTGlyph name="arrowright" xMin="160" yMin="42" xMax="782" yMax="616">
      <component glyphName="arrowleft" x="918" y="0" scalex="-1.0" scaley="1.0" flags="0x0"/>
    </TTGlyph>
    <TTGlyph name="arrowrightwhite" xMin="55" yMin="13" xMax="935" yMax="613">
      <component glyphName="arrowleftwhite" x="974" y="0" scalex="-1.0" scaley="1.0" flags="0x0"/>
    </TTGlyph>
    <TTGlyph name="arrowup" xMin="171" yMin="0" xMax="768" yMax="648">
      <component glyphName="arrowdown" x="900" y="622" scale="-1.0" flags="0x0"/>
    </TTGlyph>
    <TTGlyph name="arrowupdn" xMin="180" yMin="-172" xMax="778" yMax="852">
      <contour>
        <pt x="741" y="546" on="1"/>
        <pt x="576" y="694" on="1"/>
        <pt x="530" y="734" on="0"/>
        <pt x="508" y="768" on="1"/>
        <pt x="508" y="-88" on="1"/>
        <pt x="532" y="-52" on="0"/>
        <pt x="576" y="-14" on="1"/>
        <pt x="741" y="133" on="1"/>
        <pt x="778" y="94" on="1"/>
        <pt x="479" y="-172" on="1"/>
        <pt x="180" y="94" on="1"/>
        <pt x="217" y="133" on="1"/>
        <pt x="382" y="-14" on="1"/>
        <pt x="428" y="-54" on="0"/>
        <pt x="451" y="-88" on="1"/>
        <pt x="451" y="768" on="1"/>
        <pt x="430" y="736" on="0"/>
        <pt x="382" y="694" on="1"/>
        <pt x="217" y="546" on="1"/>
        <pt x="180" y="585" on="1"/>
        <pt x="479" y="852" on="1"/>
        <pt x="778" y="585" on="1"/>
      </contour>
    </TTGlyph>
    <TTGlyph name="arrowupwhite" xMin="60" yMin="-12" xMax="660" yMax="832">
      <contour>
        <pt x="257" y="-12" on="0"/>
        <pt x="229" y="16" on="0"/>
        <pt x="229" y="38" on="1"/>
        <pt x="229" y="534" on="1"/>
        <pt x="60" y="534" on="1"/>
        <pt x="360" y="832" on="1"/>
        <pt x="660" y="534" on="1"/>
        <pt x="491" y="534" on="1"/>
        <pt x="491" y="38" on="1"/>
        <pt x="491" y="16" on="0"/>
        <pt x="464" y="-12" on="0"/>
        <pt x="441" y="-12" on="1"/>
        <pt x="279" y="-12" on="1"/>
      </contour>
      <contour>
        <pt x="551" y="579" on="1"/>
        <pt x="360" y="768" on="1"/>
        <pt x="169" y="579" on="1"/>
        <pt x="276" y="579" on="1"/>
        <pt x="276" y="32" on="1"/>
        <pt x="444" y="32" on="1"/>
        <pt x="444" y="579" on="1"/>
      </contour>
    </TTGlyph>
    <TTGlyph name="asciicircum" xMin="93" yMin="527" xMax="509" yMax="832">
      <contour>
        <pt x="445" y="527" on="1"/>
        <pt x="337" y="775" on="1"/>
        <pt x="159" y="527" on="1"/>
        <pt x="93" y="527" on="1"/>
        <pt x="320" y="832" on="1"/>
        <pt x="368" y="832" on="1"/>
        <pt x="509" y="527" on="1"/>
      </contour>
    </TTGlyph>
    <TTGlyph name="asciitilde" xMin="56" yMin="264" xMax="429" yMax="371">
      <contour>
        <pt x="199" y="371" on="0"/>
        <pt x="237" y="354" on="0"/>
        <pt x="262" y="337" on="1"/>
        <pt x="283" y="324" on="0"/>
        <pt x="305" y="313" on="0"/>
        <pt x="317" y="313" on="1"/>
        <pt x="340" y="313" on="0"/>
        <pt x="372" y="336" on="0"/>
        <pt x="392" y="360" on="1"/>
        <pt x="429" y="336" on="1"/>
        <pt x="403" y="302" on="0"/>
        <pt x="350" y="264" on="0"/>
        <pt x="314" y="264" on="1"/>
        <pt x="289" y="264" on="0"/>
        <pt x="249" y="282" on="0"/>
        <pt x="225" y="298" on="1"/>
        <pt x="207" y="310" on="0"/>
        <pt x="183" y="322" on="0"/>
        <pt x="170" y="322" on="1"/>
        <pt x="146" y="322" on="0"/>
        <pt x="113" y="298" on="0"/>
        <pt x="92" y="273" on="1"/>
        <pt x="56" y="296" on="1"/>
        <pt x="82" y="331" on="0"/>
        <pt x="136" y="371" on="0"/>
        <pt x="174" y="371" on="1"/>
      </contour>
    </TTGlyph>
    <TTGlyph name="asciitilde.osf" xMin="56" yMin="264" xMax="429" yMax="371">
      <component glyphName="asciitilde" x="0" y="0" flags="0x0"/>
    </TTGlyph>
    <TTGlyph name="asciitilde.tf" xMin="63" yMin="264" xMax="436" yMax="371">
      <component glyphName="asciitilde" x="7" y="0" flags="0x0"/>
    </TTGlyph>
    <TTGlyph name="asciitilde.tosf" xMin="63" yMin="264" xMax="436" yMax="371">
      <component glyphName="asciitilde" x="7" y="0" flags="0x0"/>
    </TTGlyph>
    <TTGlyph name="asterisk" xMin="78" yMin="386" xMax="445" yMax="736">
      <contour>
        <pt x="369" y="420" on="1"/>
        <pt x="320" y="386" on="1"/>
        <pt x="253" y="518" on="1"/>
        <pt x="150" y="386" on="1"/>
        <pt x="108" y="419" on="1"/>
        <pt x="224" y="541" on="1"/>
        <pt x="78" y="582" on="1"/>
        <pt x="100" y="632" on="1"/>
        <pt x="241" y="576" on="1"/>
        <pt x="255" y="736" on="1"/>
        <pt x="313" y="736" on="1"/>
        <pt x="282" y="578" on="1"/>
        <pt x="434" y="635" on="1"/>
        <pt x="445" y="582" on="1"/>
        <pt x="287" y="542" on="1"/>
      </contour>
    </TTGlyph>
    <TTGlyph name="at" xMin="77" yMin="-205" xMax="942" yMax="696">
      <contour>
        <pt x="691" y="696" on="0"/>
        <pt x="857" y="607" on="0"/>
        <pt x="942" y="453" on="0"/>
        <pt x="942" y="355" on="1"/>
        <pt x="942" y="275" on="0"/>
        <pt x="896" y="117" on="0"/>
        <pt x="796" y="12" on="0"/>
        <pt x="720" y="12" on="1"/>
        <pt x="669" y="12" on="0"/>
        <pt x="614" y="73" on="0"/>
        <pt x="611" y="120" on="1"/>
        <pt x="549" y="14" on="0"/>
        <pt x="451" y="14" on="1"/>
        <pt x="386" y="14" on="0"/>
        <pt x="308" y="105" on="0"/>
        <pt x="308" y="185" on="1"/>
        <pt x="308" y="255" on="0"/>
        <pt x="359" y="392" on="0"/>
        <pt x="469" y="484" on="0"/>
        <pt x="552" y="484" on="1"/>
        <pt x="628" y="484" on="0"/>
        <pt x="693" y="447" on="1"/>
        <pt x="657" y="178" on="1"/>
        <pt x="655" y="152" on="0"/>
        <pt x="655" y="140" on="1"/>
        <pt x="655" y="59" on="0"/>
        <pt x="719" y="59" on="1"/>
        <pt x="776" y="59" on="0"/>
        <pt x="850" y="152" on="0"/>
        <pt x="884" y="289" on="0"/>
        <pt x="884" y="357" on="1"/>
        <pt x="884" y="444" on="0"/>
        <pt x="812" y="575" on="0"/>
        <pt x="671" y="646" on="0"/>
        <pt x="572" y="646" on="1"/>
        <pt x="422" y="646" on="0"/>
        <pt x="225" y="501" on="0"/>
        <pt x="135" y="286" on="0"/>
        <pt x="135" y="179" on="1"/>
        <pt x="135" y="80" on="0"/>
        <pt x="218" y="-72" on="0"/>
        <pt x="371" y="-156" on="0"/>
        <pt x="472" y="-156" on="1"/>
        <pt x="571" y="-156" on="0"/>
        <pt x="666" y="-122" on="1"/>
        <pt x="678" y="-170" on="1"/>
        <pt x="624" y="-187" on="0"/>
        <pt x="531" y="-205" on="0"/>
        <pt x="470" y="-205" on="1"/>
        <pt x="356" y="-205" on="0"/>
        <pt x="177" y="-109" on="0"/>
        <pt x="77" y="65" on="0"/>
        <pt x="77" y="179" on="1"/>
        <pt x="77" y="297" on="0"/>
        <pt x="180" y="535" on="0"/>
        <pt x="403" y="696" on="0"/>
        <pt x="573" y="696" on="1"/>
      </contour>
      <contour>
        <pt x="507" y="60" on="0"/>
        <pt x="583" y="128" on="0"/>
        <pt x="602" y="171" on="1"/>
        <pt x="638" y="419" on="1"/>
        <pt x="598" y="439" on="0"/>
        <pt x="554" y="439" on="1"/>
        <pt x="486" y="439" on="0"/>
        <pt x="401" y="358" on="0"/>
        <pt x="365" y="239" on="0"/>
        <pt x="365" y="178" on="1"/>
        <pt x="365" y="120" on="0"/>
        <pt x="414" y="60" on="0"/>
        <pt x="458" y="60" on="1"/>
      </contour>
    </TTGlyph>
    <TTGlyph name="atilde" xMin="58" yMin="-11" xMax="512" yMax="758">
      <component glyphName="a" x="0" y="0" flags="0x0"/>
      <component glyphName="tilde" x="117" y="0" flags="0x0"/>
    </TTGlyph>
    <TTGlyph name="atilde.sc" xMin="-21" yMin="0" xMax="468" yMax="788">
      <component glyphName="a.sc" x="0" y="0" flags="0x0"/>
      <component glyphName="tilde.sc" x="109" y="0" flags="0x0"/>
    </TTGlyph>
    <TTGlyph name="b" xMin="72" yMin="-11" xMax="513" yMax="743">
      <contour>
        <pt x="265" y="534" on="0"/>
        <pt x="355" y="534" on="1"/>
        <pt x="431" y="534" on="0"/>
        <pt x="513" y="432" on="0"/>
        <pt x="513" y="336" on="1"/>
        <pt x="513" y="256" on="0"/>
        <pt x="459" y="97" on="0"/>
        <pt x="338" y="-11" on="0"/>
        <pt x="243" y="-11" on="1"/>
        <pt x="200" y="-11" on="0"/>
        <pt x="124" y="5" on="0"/>
        <pt x="72" y="23" on="1"/>
        <pt x="173" y="736" on="1"/>
        <pt x="231" y="743" on="1"/>
        <pt x="191" y="457" on="1"/>
      </contour>
      <contour>
        <pt x="296" y="486" on="0"/>
        <pt x="222" y="441" on="0"/>
        <pt x="182" y="398" on="1"/>
        <pt x="135" y="58" on="1"/>
        <pt x="162" y="47" on="0"/>
        <pt x="212" y="37" on="0"/>
        <pt x="246" y="37" on="1"/>
        <pt x="319" y="37" on="0"/>
        <pt x="413" y="133" on="0"/>
        <pt x="454" y="272" on="0"/>
        <pt x="454" y="340" on="1"/>
        <pt x="454" y="486" on="0"/>
        <pt x="342" y="486" on="1"/>
      </contour>
    </TTGlyph>
    <TTGlyph name="b.sc" xMin="74" yMin="0" xMax="487" yMax="562">
      <contour>
        <pt x="384" y="562" on="0"/>
        <pt x="487" y="501" on="0"/>
        <pt x="487" y="439" on="1"/>
        <pt x="487" y="387" on="0"/>
        <pt x="421" y="308" on="0"/>
        <pt x="360" y="297" on="1"/>
        <pt x="410" y="291" on="0"/>
        <pt x="477" y="233" on="0"/>
        <pt x="477" y="179" on="1"/>
        <pt x="477" y="97" on="0"/>
        <pt x="360" y="0" on="0"/>
        <pt x="240" y="0" on="1"/>
        <pt x="74" y="0" on="1"/>
        <pt x="153" y="562" on="1"/>
        <pt x="286" y="562" on="1"/>
      </contour>
      <contour>
        <pt x="176" y="318" on="1"/>
        <pt x="290" y="318" on="1"/>
        <pt x="355" y="318" on="0"/>
        <pt x="427" y="389" on="0"/>
        <pt x="427" y="437" on="1"/>
        <pt x="427" y="479" on="0"/>
        <pt x="358" y="515" on="0"/>
        <pt x="288" y="515" on="1"/>
        <pt x="204" y="515" on="1"/>
      </contour>
      <contour>
        <pt x="138" y="47" on="1"/>
        <pt x="245" y="47" on="1"/>
        <pt x="331" y="47" on="0"/>
        <pt x="417" y="118" on="0"/>
        <pt x="417" y="182" on="1"/>
        <pt x="417" y="229" on="0"/>
        <pt x="350" y="273" on="0"/>
        <pt x="293" y="273" on="1"/>
        <pt x="170" y="273" on="1"/>
      </contour>
    </TTGlyph>
    <TTGlyph name="backslash" xMin="193" yMin="-100" xMax="349" yMax="802">
      <contour>
        <pt x="298" y="-100" on="1"/>
        <pt x="193" y="791" on="1"/>
        <pt x="243" y="802" on="1"/>
        <pt x="349" y="-88" on="1"/>
      </contour>
    </TTGlyph>
    <TTGlyph name="bar" xMin="125" yMin="-100" xMax="305" yMax="804">
      <contour>
        <pt x="125" y="-100" on="1"/>
        <pt x="251" y="804" on="1"/>
        <pt x="305" y="804" on="1"/>
        <pt x="179" y="-100" on="1"/>
      </contour>
    </TTGlyph>
    <TTGlyph name="beta" xMin="40" yMin="-207" xMax="530" yMax="743">
      <contour>
        <pt x="433" y="743" on="0"/>
        <pt x="530" y="661" on="0"/>
        <pt x="530" y="587" on="1"/>
        <pt x="530" y="519" on="0"/>
        <pt x="442" y="409" on="0"/>
        <pt x="348" y="398" on="1"/>
        <pt x="426" y="395" on="0"/>
        <pt x="529" y="305" on="0"/>
        <pt x="529" y="221" on="1"/>
        <pt x="529" y="166" on="0"/>
        <pt x="477" y="59" on="0"/>
        <pt x="370" y="-11" on="0"/>
        <pt x="292" y="-11" on="1"/>
        <pt x="246" y="-11" on="0"/>
        <pt x="164" y="22" on="0"/>
        <pt x="135" y="55" on="1"/>
        <pt x="99" y="-199" on="1"/>
        <pt x="40" y="-207" on="1"/>
        <pt x="145" y="543" on="1"/>
        <pt x="158" y="638" on="0"/>
        <pt x="275" y="743" on="0"/>
        <pt x="361" y="743" on="1"/>
      </contour>
      <contour>
        <pt x="298" y="696" on="0"/>
        <pt x="214" y="616" on="0"/>
        <pt x="203" y="538" on="1"/>
        <pt x="143" y="108" on="1"/>
        <pt x="171" y="72" on="0"/>
        <pt x="241" y="38" on="0"/>
        <pt x="289" y="38" on="1"/>
        <pt x="351" y="38" on="0"/>
        <pt x="433" y="94" on="0"/>
        <pt x="470" y="178" on="0"/>
        <pt x="470" y="221" on="1"/>
        <pt x="470" y="295" on="0"/>
        <pt x="376" y="375" on="0"/>
        <pt x="291" y="375" on="1"/>
        <pt x="242" y="375" on="1"/>
        <pt x="255" y="421" on="1"/>
        <pt x="298" y="421" on="1"/>
        <pt x="355" y="421" on="0"/>
        <pt x="435" y="468" on="0"/>
        <pt x="474" y="544" on="0"/>
        <pt x="474" y="587" on="1"/>
        <pt x="474" y="643" on="0"/>
        <pt x="411" y="696" on="0"/>
        <pt x="361" y="696" on="1"/>
      </contour>
    </TTGlyph>
    <TTGlyph name="beta.sc" xMin="74" yMin="0" xMax="487" yMax="562">
      <component glyphName="b.sc" x="0" y="0" flags="0x0"/>
    </TTGlyph>
    <TTGlyph name="braceleft" xMin="51" yMin="-130" xMax="338" yMax="828">
      <contour>
        <pt x="288" y="784" on="0"/>
        <pt x="241" y="745" on="0"/>
        <pt x="235" y="703" on="1"/>
        <pt x="199" y="450" on="1"/>
        <pt x="193" y="400" on="0"/>
        <pt x="153" y="358" on="0"/>
        <pt x="111" y="348" on="1"/>
        <pt x="143" y="340" on="0"/>
        <pt x="174" y="308" on="0"/>
        <pt x="174" y="274" on="1"/>
        <pt x="174" y="261" on="0"/>
        <pt x="171" y="246" on="1"/>
        <pt x="135" y="-8" on="1"/>
        <pt x="134" y="-15" on="0"/>
        <pt x="134" y="-28" on="1"/>
        <pt x="134" y="-58" on="0"/>
        <pt x="169" y="-85" on="0"/>
        <pt x="210" y="-85" on="1"/>
        <pt x="206" y="-129" on="1"/>
        <pt x="146" y="-130" on="0"/>
        <pt x="81" y="-79" on="0"/>
        <pt x="81" y="-28" on="1"/>
        <pt x="81" y="-11" on="0"/>
        <pt x="82" y="-2" on="1"/>
        <pt x="118" y="253" on="1"/>
        <pt x="120" y="267" on="0"/>
        <pt x="120" y="272" on="1"/>
        <pt x="120" y="300" on="0"/>
        <pt x="87" y="324" on="0"/>
        <pt x="51" y="324" on="1"/>
        <pt x="57" y="374" on="1"/>
        <pt x="96" y="374" on="0"/>
        <pt x="140" y="410" on="0"/>
        <pt x="146" y="450" on="1"/>
        <pt x="182" y="705" on="1"/>
        <pt x="191" y="771" on="0"/>
        <pt x="265" y="828" on="0"/>
        <pt x="338" y="828" on="1"/>
        <pt x="335" y="784" on="1"/>
      </contour>
    </TTGlyph>
    <TTGlyph name="braceleft.case" xMin="50" yMin="-139" xMax="337" yMax="818">
      <component glyphName="braceleft" x="-1" y="-10" flags="0x0"/>
    </TTGlyph>
    <TTGlyph name="braceright" xMin="10" yMin="-129" xMax="297" yMax="829">
      <contour>
        <pt x="60" y="-85" on="0"/>
        <pt x="107" y="-46" on="0"/>
        <pt x="113" y="-4" on="1"/>
        <pt x="148" y="249" on="1"/>
        <pt x="155" y="299" on="0"/>
        <pt x="195" y="341" on="0"/>
        <pt x="237" y="351" on="1"/>
        <pt x="205" y="360" on="0"/>
        <pt x="175" y="392" on="0"/>
        <pt x="175" y="426" on="1"/>
        <pt x="175" y="443" on="0"/>
        <pt x="177" y="453" on="1"/>
        <pt x="213" y="707" on="1"/>
        <pt x="215" y="721" on="0"/>
        <pt x="215" y="727" on="1"/>
        <pt x="215" y="757" on="0"/>
        <pt x="179" y="784" on="0"/>
        <pt x="138" y="784" on="1"/>
        <pt x="141" y="828" on="1"/>
        <pt x="202" y="829" on="0"/>
        <pt x="268" y="778" on="0"/>
        <pt x="268" y="727" on="1"/>
        <pt x="268" y="719" on="0"/>
        <pt x="266" y="701" on="1"/>
        <pt x="230" y="446" on="1"/>
        <pt x="228" y="434" on="0"/>
        <pt x="228" y="428" on="1"/>
        <pt x="228" y="399" on="0"/>
        <pt x="261" y="375" on="0"/>
        <pt x="297" y="375" on="1"/>
        <pt x="290" y="325" on="1"/>
        <pt x="213" y="325" on="0"/>
        <pt x="202" y="249" on="1"/>
        <pt x="166" y="-6" on="1"/>
        <pt x="156" y="-72" on="0"/>
        <pt x="83" y="-129" on="0"/>
        <pt x="10" y="-129" on="1"/>
        <pt x="13" y="-85" on="1"/>
      </contour>
    </TTGlyph>
    <TTGlyph name="braceright.case" xMin="9" yMin="-139" xMax="296" yMax="818">
      <component glyphName="braceright" x="-1" y="-10" flags="0x0"/>
    </TTGlyph>
    <TTGlyph name="bracketleft" xMin="31" yMin="-112" xMax="326" yMax="807">
      <contour>
        <pt x="207" y="759" on="1"/>
        <pt x="91" y="-65" on="1"/>
        <pt x="203" y="-65" on="1"/>
        <pt x="196" y="-112" on="1"/>
        <pt x="31" y="-112" on="1"/>
        <pt x="160" y="807" on="1"/>
        <pt x="326" y="807" on="1"/>
        <pt x="319" y="759" on="1"/>
      </contour>
    </TTGlyph>
    <TTGlyph name="bracketleft.case" xMin="30" yMin="-122" xMax="325" yMax="797">
      <component glyphName="bracketleft" x="-1" y="-10" flags="0x0"/>
    </TTGlyph>
    <TTGlyph name="bracketright" xMin="13" yMin="-112" xMax="308" yMax="807">
      <contour>
        <pt x="13" y="-112" on="1"/>
        <pt x="19" y="-65" on="1"/>
        <pt x="131" y="-65" on="1"/>
        <pt x="248" y="759" on="1"/>
        <pt x="136" y="759" on="1"/>
        <pt x="142" y="807" on="1"/>
        <pt x="308" y="807" on="1"/>
        <pt x="179" y="-112" on="1"/>
      </contour>
    </TTGlyph>
    <TTGlyph name="bracketright.case" xMin="12" yMin="-122" xMax="307" yMax="797">
      <component glyphName="bracketright" x="-1" y="-10" flags="0x0"/>
    </TTGlyph>
    <TTGlyph name="breve" xMin="100" yMin="653" xMax="359" yMax="773">
      <contour>
        <pt x="164" y="653" on="0"/>
        <pt x="100" y="715" on="0"/>
        <pt x="100" y="765" on="1"/>
        <pt x="141" y="771" on="1"/>
        <pt x="150" y="700" on="0"/>
        <pt x="217" y="700" on="1"/>
        <pt x="253" y="700" on="0"/>
        <pt x="307" y="738" on="0"/>
        <pt x="321" y="773" on="1"/>
        <pt x="359" y="761" on="1"/>
        <pt x="346" y="712" on="0"/>
        <pt x="267" y="653" on="0"/>
        <pt x="216" y="653" on="1"/>
      </contour>
    </TTGlyph>
    <TTGlyph name="breve.case" xMin="114" yMin="765" xMax="373" yMax="875">
      <contour>
        <pt x="180" y="765" on="0"/>
        <pt x="115" y="823" on="0"/>
        <pt x="114" y="867" on="1"/>
        <pt x="153" y="872" on="1"/>
        <pt x="159" y="844" on="0"/>
        <pt x="200" y="812" on="0"/>
        <pt x="233" y="812" on="1"/>
        <pt x="268" y="812" on="0"/>
        <pt x="320" y="846" on="0"/>
        <pt x="334" y="875" on="1"/>
        <pt x="373" y="863" on="1"/>
        <pt x="361" y="820" on="0"/>
        <pt x="282" y="765" on="0"/>
        <pt x="232" y="765" on="1"/>
      </contour>
    </TTGlyph>
    <TTGlyph name="breve.sc" xMin="64" yMin="683" xMax="323" yMax="804">
      <contour>
        <pt x="128" y="683" on="0"/>
        <pt x="64" y="745" on="0"/>
        <pt x="64" y="796" on="1"/>
        <pt x="104" y="801" on="1"/>
        <pt x="109" y="765" on="0"/>
        <pt x="147" y="731" on="0"/>
        <pt x="181" y="731" on="1"/>
        <pt x="217" y="731" on="0"/>
        <pt x="271" y="769" on="0"/>
        <pt x="285" y="804" on="1"/>
        <pt x="323" y="792" on="1"/>
        <pt x="310" y="742" on="0"/>
        <pt x="231" y="683" on="0"/>
        <pt x="180" y="683" on="1"/>
      </contour>
    </TTGlyph>
    <TTGlyph name="brevecy" xMin="98" yMin="653" xMax="356" yMax="756">
      <contour>
        <pt x="165" y="653" on="0"/>
        <pt x="101" y="705" on="0"/>
        <pt x="98" y="748" on="1"/>
        <pt x="138" y="753" on="1"/>
        <pt x="144" y="725" on="0"/>
        <pt x="183" y="700" on="0"/>
        <pt x="218" y="700" on="1"/>
        <pt x="293" y="700" on="0"/>
        <pt x="318" y="756" on="1"/>
        <pt x="356" y="744" on="1"/>
        <pt x="344" y="701" on="0"/>
        <pt x="269" y="653" on="0"/>
        <pt x="217" y="653" on="1"/>
      </contour>
    </TTGlyph>
    <TTGlyph name="brevecy.case" xMin="78" yMin="779" xMax="336" yMax="882">
      <contour>
        <pt x="145" y="779" on="0"/>
        <pt x="81" y="831" on="0"/>
        <pt x="78" y="874" on="1"/>
        <pt x="118" y="879" on="1"/>
        <pt x="124" y="852" on="0"/>
        <pt x="163" y="827" on="0"/>
        <pt x="198" y="827" on="1"/>
        <pt x="273" y="827" on="0"/>
        <pt x="298" y="882" on="1"/>
        <pt x="336" y="870" on="1"/>
        <pt x="324" y="828" on="0"/>
        <pt x="249" y="779" on="0"/>
        <pt x="197" y="779" on="1"/>
      </contour>
    </TTGlyph>
    <TTGlyph name="brevecy.sc" xMin="62" yMin="683" xMax="320" yMax="786">
      <contour>
        <pt x="129" y="683" on="0"/>
        <pt x="65" y="735" on="0"/>
        <pt x="62" y="778" on="1"/>
        <pt x="102" y="783" on="1"/>
        <pt x="108" y="756" on="0"/>
        <pt x="147" y="731" on="0"/>
        <pt x="182" y="731" on="1"/>
        <pt x="257" y="731" on="0"/>
        <pt x="282" y="786" on="1"/>
        <pt x="320" y="774" on="1"/>
        <pt x="308" y="732" on="0"/>
        <pt x="233" y="683" on="0"/>
        <pt x="181" y="683" on="1"/>
      </contour>
    </TTGlyph>
    <TTGlyph name="brokenbar" xMin="159" yMin="146" xMax="271" yMax="558">
      <contour>
        <pt x="213" y="146" on="1"/>
        <pt x="159" y="146" on="1"/>
        <pt x="210" y="508" on="1"/>
        <pt x="217" y="558" on="1"/>
        <pt x="271" y="558" on="1"/>
        <pt x="220" y="197" on="1"/>
      </contour>
    </TTGlyph>
    <TTGlyph name="bullet" xMin="80" yMin="272" xMax="228" yMax="420">
      <contour>
        <pt x="192" y="420" on="0"/>
        <pt x="228" y="383" on="0"/>
        <pt x="228" y="355" on="1"/>
        <pt x="228" y="320" on="0"/>
        <pt x="181" y="272" on="0"/>
        <pt x="146" y="272" on="1"/>
        <pt x="117" y="272" on="0"/>
        <pt x="80" y="309" on="0"/>
        <pt x="80" y="337" on="1"/>
        <pt x="80" y="372" on="0"/>
        <pt x="127" y="420" on="0"/>
        <pt x="162" y="420" on="1"/>
      </contour>
    </TTGlyph>
    <TTGlyph name="bulletoperator" xMin="64" yMin="271" xMax="158" yMax="367">
      <component glyphName="periodcentered" x="0" y="0" flags="0x0"/>
    </TTGlyph>
    <TTGlyph name="c" xMin="60" yMin="-11" xMax="461" yMax="534">
      <contour>
        <pt x="406" y="534" on="0"/>
        <pt x="461" y="480" on="1"/>
        <pt x="428" y="444" on="1"/>
        <pt x="406" y="465" on="0"/>
        <pt x="355" y="485" on="0"/>
        <pt x="321" y="485" on="1"/>
        <pt x="250" y="485" on="0"/>
        <pt x="160" y="395" on="0"/>
        <pt x="120" y="263" on="0"/>
        <pt x="120" y="197" on="1"/>
        <pt x="120" y="119" on="0"/>
        <pt x="190" y="40" on="0"/>
        <pt x="251" y="40" on="1"/>
        <pt x="287" y="40" on="0"/>
        <pt x="348" y="62" on="0"/>
        <pt x="380" y="84" on="1"/>
        <pt x="405" y="43" on="1"/>
        <pt x="334" y="-11" on="0"/>
        <pt x="250" y="-11" on="1"/>
        <pt x="160" y="-11" on="0"/>
        <pt x="60" y="99" on="0"/>
        <pt x="60" y="200" on="1"/>
        <pt x="60" y="276" on="0"/>
        <pt x="114" y="430" on="0"/>
        <pt x="231" y="534" on="0"/>
        <pt x="320" y="534" on="1"/>
      </contour>
    </TTGlyph>
    <TTGlyph name="c.sc" xMin="63" yMin="-9" xMax="496" yMax="571">
      <contour>
        <pt x="431" y="571" on="0"/>
        <pt x="496" y="516" on="1"/>
        <pt x="461" y="481" on="1"/>
        <pt x="434" y="503" on="0"/>
        <pt x="383" y="523" on="0"/>
        <pt x="350" y="523" on="1"/>
        <pt x="271" y="523" on="0"/>
        <pt x="169" y="430" on="0"/>
        <pt x="123" y="290" on="0"/>
        <pt x="123" y="218" on="1"/>
        <pt x="123" y="129" on="0"/>
        <pt x="205" y="40" on="0"/>
        <pt x="274" y="40" on="1"/>
        <pt x="315" y="40" on="0"/>
        <pt x="377" y="64" on="0"/>
        <pt x="410" y="88" on="1"/>
        <pt x="438" y="50" on="1"/>
        <pt x="369" y="-9" on="0"/>
        <pt x="271" y="-9" on="1"/>
        <pt x="176" y="-9" on="0"/>
        <pt x="63" y="111" on="0"/>
        <pt x="63" y="222" on="1"/>
        <pt x="63" y="303" on="0"/>
        <pt x="123" y="464" on="0"/>
        <pt x="250" y="571" on="0"/>
        <pt x="346" y="571" on="1"/>
      </contour>
    </TTGlyph>
    <TTGlyph name="cacute" xMin="60" yMin="-11" xMax="461" yMax="782">
      <component glyphName="c" x="0" y="0" flags="0x0"/>
      <component glyphName="acute" x="140" y="0" flags="0x0"/>
    </TTGlyph>
    <TTGlyph name="cacute.loclPLK" xMin="60" yMin="-11" xMax="462" yMax="763">
      <component glyphName="c" x="0" y="0" flags="0x0"/>
      <component glyphName="acute.loclPLK" x="154" y="0" flags="0x0"/>
    </TTGlyph>
    <TTGlyph name="cacute.sc" xMin="63" yMin="-9" xMax="496" yMax="813">
      <component glyphName="c.sc" x="0" y="0" flags="0x0"/>
      <component glyphName="acute.sc" x="215" y="0" flags="0x0"/>
    </TTGlyph>
    <TTGlyph name="cacute.sc.loclPLK" xMin="63" yMin="-9" xMax="496" yMax="804">
      <component glyphName="c.sc" x="0" y="0" flags="0x0"/>
      <component glyphName="acute.sc.loclPLK" x="146" y="0" flags="0x0"/>
    </TTGlyph>
    <TTGlyph name="capslock" xMin="60" yMin="-12" xMax="660" yMax="832">
      <contour>
        <pt x="60" y="534" on="1"/>
        <pt x="360" y="832" on="1"/>
        <pt x="660" y="534" on="1"/>
        <pt x="491" y="534" on="1"/>
        <pt x="491" y="255" on="1"/>
        <pt x="229" y="255" on="1"/>
        <pt x="229" y="534" on="1"/>
      </contour>
      <contour>
        <pt x="551" y="579" on="1"/>
        <pt x="360" y="768" on="1"/>
        <pt x="169" y="579" on="1"/>
        <pt x="276" y="579" on="1"/>
        <pt x="276" y="297" on="1"/>
        <pt x="444" y="297" on="1"/>
        <pt x="444" y="579" on="1"/>
      </contour>
      <contour>
        <pt x="491" y="16" on="0"/>
        <pt x="464" y="-12" on="0"/>
        <pt x="441" y="-12" on="1"/>
        <pt x="279" y="-12" on="1"/>
        <pt x="257" y="-12" on="0"/>
        <pt x="229" y="16" on="0"/>
        <pt x="229" y="38" on="1"/>
        <pt x="229" y="155" on="1"/>
        <pt x="491" y="155" on="1"/>
        <pt x="491" y="38" on="1"/>
      </contour>
      <contour>
        <pt x="444" y="32" on="1"/>
        <pt x="444" y="113" on="1"/>
        <pt x="276" y="113" on="1"/>
        <pt x="276" y="32" on="1"/>
      </contour>
    </TTGlyph>
    <TTGlyph name="caron" xMin="97" yMin="633" xMax="390" yMax="769">
      <contour>
        <pt x="247" y="633" on="1"/>
        <pt x="211" y="633" on="1"/>
        <pt x="97" y="739" on="1"/>
        <pt x="124" y="769" on="1"/>
        <pt x="234" y="685" on="1"/>
        <pt x="367" y="769" on="1"/>
        <pt x="390" y="739" on="1"/>
      </contour>
    </TTGlyph>
    <TTGlyph name="caron.alt" xMin="99" yMin="521" xMax="194" yMax="691">
      <contour>
        <pt x="134" y="521" on="1"/>
        <pt x="99" y="526" on="1"/>
        <pt x="139" y="691" on="1"/>
        <pt x="194" y="685" on="1"/>
      </contour>
    </TTGlyph>
    <TTGlyph name="caron.case" xMin="113" yMin="756" xMax="406" yMax="888">
      <contour>
        <pt x="264" y="756" on="1"/>
        <pt x="229" y="756" on="1"/>
        <pt x="113" y="857" on="1"/>
        <pt x="141" y="887" on="1"/>
        <pt x="251" y="808" on="1"/>
        <pt x="383" y="888" on="1"/>
        <pt x="406" y="857" on="1"/>
      </contour>
    </TTGlyph>
    <TTGlyph name="caron.sc" xMin="60" yMin="663" xMax="354" yMax="799">
      <contour>
        <pt x="211" y="663" on="1"/>
        <pt x="175" y="663" on="1"/>
        <pt x="60" y="769" on="1"/>
        <pt x="88" y="799" on="1"/>
        <pt x="197" y="715" on="1"/>
        <pt x="331" y="799" on="1"/>
        <pt x="354" y="769" on="1"/>
      </contour>
    </TTGlyph>
    <TTGlyph name="ccaron" xMin="60" yMin="-11" xMax="504" yMax="771">
      <component glyphName="c" x="0" y="0" flags="0x0"/>
      <component glyphName="caron" x="113" y="1" flags="0x0"/>
    </TTGlyph>
    <TTGlyph name="ccaron.sc" xMin="63" yMin="-9" xMax="522" yMax="799">
      <component glyphName="c.sc" x="0" y="0" flags="0x0"/>
      <component glyphName="caron.sc" x="168" y="0" flags="0x0"/>
    </TTGlyph>
    <TTGlyph name="ccedilla" xMin="60" yMin="-227" xMax="461" yMax="534">
      <contour>
        <pt x="250" y="485" on="0"/>
        <pt x="160" y="395" on="0"/>
        <pt x="120" y="263" on="0"/>
        <pt x="120" y="197" on="1"/>
        <pt x="120" y="119" on="0"/>
        <pt x="190" y="40" on="0"/>
        <pt x="251" y="40" on="1"/>
        <pt x="287" y="40" on="0"/>
        <pt x="348" y="62" on="0"/>
        <pt x="380" y="84" on="1"/>
        <pt x="405" y="43" on="1"/>
        <pt x="337" y="-8" on="0"/>
        <pt x="258" y="-11" on="1"/>
        <pt x="249" y="-64" on="1"/>
        <pt x="332" y="-70" on="0"/>
        <pt x="332" y="-133" on="1"/>
        <pt x="332" y="-172" on="0"/>
        <pt x="269" y="-227" on="0"/>
        <pt x="218" y="-227" on="1"/>
        <pt x="169" y="-227" on="0"/>
        <pt x="139" y="-204" on="1"/>
        <pt x="161" y="-170" on="1"/>
        <pt x="184" y="-185" on="0"/>
        <pt x="217" y="-185" on="1"/>
        <pt x="243" y="-186" on="0"/>
        <pt x="282" y="-159" on="0"/>
        <pt x="282" y="-136" on="1"/>
        <pt x="282" y="-115" on="0"/>
        <pt x="245" y="-96" on="0"/>
        <pt x="199" y="-95" on="1"/>
        <pt x="218" y="-9" on="1"/>
        <pt x="143" y="0" on="0"/>
        <pt x="60" y="108" on="0"/>
        <pt x="60" y="200" on="1"/>
        <pt x="60" y="276" on="0"/>
        <pt x="114" y="430" on="0"/>
        <pt x="231" y="534" on="0"/>
        <pt x="320" y="534" on="1"/>
        <pt x="406" y="534" on="0"/>
        <pt x="461" y="480" on="1"/>
        <pt x="428" y="444" on="1"/>
        <pt x="406" y="465" on="0"/>
        <pt x="355" y="485" on="0"/>
        <pt x="321" y="485" on="1"/>
      </contour>
    </TTGlyph>
    <TTGlyph name="ccedilla.sc" xMin="63" yMin="-227" xMax="496" yMax="571">
      <contour>
        <pt x="271" y="523" on="0"/>
        <pt x="169" y="430" on="0"/>
        <pt x="123" y="290" on="0"/>
        <pt x="123" y="218" on="1"/>
        <pt x="123" y="129" on="0"/>
        <pt x="205" y="40" on="0"/>
        <pt x="274" y="40" on="1"/>
        <pt x="315" y="40" on="0"/>
        <pt x="377" y="64" on="0"/>
        <pt x="410" y="88" on="1"/>
        <pt x="438" y="50" on="1"/>
        <pt x="373" y="-5" on="0"/>
        <pt x="283" y="-9" on="1"/>
        <pt x="274" y="-64" on="1"/>
        <pt x="357" y="-70" on="0"/>
        <pt x="357" y="-133" on="1"/>
        <pt x="357" y="-172" on="0"/>
        <pt x="294" y="-227" on="0"/>
        <pt x="243" y="-227" on="1"/>
        <pt x="194" y="-227" on="0"/>
        <pt x="164" y="-204" on="1"/>
        <pt x="186" y="-170" on="1"/>
        <pt x="209" y="-185" on="0"/>
        <pt x="242" y="-185" on="1"/>
        <pt x="268" y="-186" on="0"/>
        <pt x="307" y="-159" on="0"/>
        <pt x="307" y="-136" on="1"/>
        <pt x="307" y="-115" on="0"/>
        <pt x="270" y="-96" on="0"/>
        <pt x="224" y="-95" on="1"/>
        <pt x="244" y="-8" on="1"/>
        <pt x="161" y="0" on="0"/>
        <pt x="63" y="120" on="0"/>
        <pt x="63" y="222" on="1"/>
        <pt x="63" y="303" on="0"/>
        <pt x="123" y="464" on="0"/>
        <pt x="250" y="571" on="0"/>
        <pt x="346" y="571" on="1"/>
        <pt x="431" y="571" on="0"/>
        <pt x="496" y="516" on="1"/>
        <pt x="461" y="481" on="1"/>
        <pt x="434" y="503" on="0"/>
        <pt x="383" y="523" on="0"/>
        <pt x="350" y="523" on="1"/>
      </contour>
    </TTGlyph>
    <TTGlyph name="ccircumflex" xMin="60" yMin="-11" xMax="492" yMax="779">
      <component glyphName="c" x="0" y="0" flags="0x0"/>
      <component glyphName="circumflex" x="112" y="0" flags="0x0"/>
    </TTGlyph>
    <TTGlyph name="ccircumflex.sc" xMin="63" yMin="-9" xMax="524" yMax="810">
      <component glyphName="c.sc" x="0" y="0" flags="0x0"/>
      <component glyphName="circumflex.sc" x="179" y="0" flags="0x0"/>
    </TTGlyph>
    <TTGlyph name="cdotaccent" xMin="60" yMin="-11" xMax="461" yMax="753">
      <component glyphName="c" x="0" y="0" flags="0x0"/>
      <component glyphName="dotaccent" x="214" y="0" flags="0x0"/>
    </TTGlyph>
    <TTGlyph name="cdotaccent.sc" xMin="63" yMin="-9" xMax="496" yMax="783">
      <component glyphName="c.sc" x="0" y="0" flags="0x0"/>
      <component glyphName="dotaccent.sc" x="241" y="0" flags="0x0"/>
    </TTGlyph>
    <TTGlyph name="cedilla" xMin="-36" yMin="-227" xMax="158" yMax="16">
      <contour>
        <pt x="158" y="-71" on="0"/>
        <pt x="158" y="-133" on="1"/>
        <pt x="158" y="-172" on="0"/>
        <pt x="94" y="-227" on="0"/>
        <pt x="43" y="-227" on="1"/>
        <pt x="-3" y="-227" on="0"/>
        <pt x="-36" y="-205" on="1"/>
        <pt x="-14" y="-170" on="1"/>
        <pt x="9" y="-185" on="0"/>
        <pt x="42" y="-185" on="1"/>
        <pt x="68" y="-186" on="0"/>
        <pt x="107" y="-159" on="0"/>
        <pt x="107" y="-136" on="1"/>
        <pt x="107" y="-115" on="0"/>
        <pt x="70" y="-96" on="0"/>
        <pt x="24" y="-96" on="1"/>
        <pt x="49" y="16" on="1"/>
        <pt x="88" y="16" on="1"/>
        <pt x="75" y="-64" on="1"/>
      </contour>
    </TTGlyph>
    <TTGlyph name="cedilla.case" xMin="-51" yMin="-228" xMax="143" yMax="16">
      <contour>
        <pt x="102" y="-68" on="0"/>
        <pt x="143" y="-104" on="0"/>
        <pt x="143" y="-133" on="1"/>
        <pt x="143" y="-172" on="0"/>
        <pt x="79" y="-228" on="0"/>
        <pt x="28" y="-228" on="1"/>
        <pt x="-18" y="-228" on="0"/>
        <pt x="-51" y="-205" on="1"/>
        <pt x="-29" y="-170" on="1"/>
        <pt x="-6" y="-186" on="0"/>
        <pt x="27" y="-186" on="1"/>
        <pt x="53" y="-186" on="0"/>
        <pt x="91" y="-159" on="0"/>
        <pt x="91" y="-136" on="1"/>
        <pt x="91" y="-115" on="0"/>
        <pt x="55" y="-97" on="0"/>
        <pt x="9" y="-96" on="1"/>
        <pt x="34" y="16" on="1"/>
        <pt x="73" y="16" on="1"/>
        <pt x="60" y="-64" on="1"/>
      </contour>
    </TTGlyph>
    <TTGlyph name="cedilla.sc" xMin="-36" yMin="-227" xMax="158" yMax="16">
      <contour>
        <pt x="158" y="-71" on="0"/>
        <pt x="158" y="-133" on="1"/>
        <pt x="158" y="-172" on="0"/>
        <pt x="94" y="-227" on="0"/>
        <pt x="43" y="-227" on="1"/>
        <pt x="-3" y="-227" on="0"/>
        <pt x="-36" y="-205" on="1"/>
        <pt x="-14" y="-170" on="1"/>
        <pt x="9" y="-185" on="0"/>
        <pt x="42" y="-185" on="1"/>
        <pt x="68" y="-186" on="0"/>
        <pt x="107" y="-159" on="0"/>
        <pt x="107" y="-136" on="1"/>
        <pt x="107" y="-115" on="0"/>
        <pt x="70" y="-96" on="0"/>
        <pt x="24" y="-96" on="1"/>
        <pt x="49" y="16" on="1"/>
        <pt x="88" y="16" on="1"/>
        <pt x="75" y="-64" on="1"/>
      </contour>
    </TTGlyph>
    <TTGlyph name="cent" xMin="60" yMin="-150" xMax="461" yMax="680">
      <contour>
        <pt x="250" y="485" on="0"/>
        <pt x="160" y="395" on="0"/>
        <pt x="120" y="263" on="0"/>
        <pt x="120" y="197" on="1"/>
        <pt x="120" y="119" on="0"/>
        <pt x="190" y="40" on="0"/>
        <pt x="251" y="40" on="1"/>
        <pt x="287" y="40" on="0"/>
        <pt x="348" y="62" on="0"/>
        <pt x="380" y="84" on="1"/>
        <pt x="405" y="43" on="1"/>
        <pt x="337" y="-8" on="0"/>
        <pt x="259" y="-11" on="1"/>
        <pt x="239" y="-150" on="1"/>
        <pt x="188" y="-150" on="1"/>
        <pt x="208" y="-8" on="1"/>
        <pt x="137" y="5" on="0"/>
        <pt x="60" y="112" on="0"/>
        <pt x="60" y="200" on="1"/>
        <pt x="60" y="270" on="0"/>
        <pt x="107" y="415" on="0"/>
        <pt x="209" y="522" on="0"/>
        <pt x="286" y="532" on="1"/>
        <pt x="306" y="680" on="1"/>
        <pt x="356" y="680" on="1"/>
        <pt x="335" y="534" on="1"/>
        <pt x="410" y="529" on="0"/>
        <pt x="461" y="480" on="1"/>
        <pt x="428" y="444" on="1"/>
        <pt x="406" y="465" on="0"/>
        <pt x="355" y="485" on="0"/>
        <pt x="321" y="485" on="1"/>
      </contour>
    </TTGlyph>
    <TTGlyph name="cent.osf" xMin="60" yMin="-150" xMax="461" yMax="680">
      <component glyphName="cent" x="0" y="0" flags="0x0"/>
    </TTGlyph>
    <TTGlyph name="cent.tf" xMin="53" yMin="-150" xMax="454" yMax="680">
      <contour>
        <pt x="243" y="485" on="0"/>
        <pt x="153" y="395" on="0"/>
        <pt x="113" y="262" on="0"/>
        <pt x="113" y="197" on="1"/>
        <pt x="113" y="119" on="0"/>
        <pt x="182" y="40" on="0"/>
        <pt x="244" y="40" on="1"/>
        <pt x="280" y="40" on="0"/>
        <pt x="341" y="62" on="0"/>
        <pt x="373" y="84" on="1"/>
        <pt x="398" y="43" on="1"/>
        <pt x="330" y="-8" on="0"/>
        <pt x="251" y="-11" on="1"/>
        <pt x="232" y="-150" on="1"/>
        <pt x="181" y="-150" on="1"/>
        <pt x="201" y="-8" on="1"/>
        <pt x="130" y="4" on="0"/>
        <pt x="53" y="112" on="0"/>
        <pt x="53" y="201" on="1"/>
        <pt x="53" y="271" on="0"/>
        <pt x="100" y="416" on="0"/>
        <pt x="201" y="522" on="0"/>
        <pt x="278" y="532" on="1"/>
        <pt x="299" y="680" on="1"/>
        <pt x="349" y="680" on="1"/>
        <pt x="328" y="534" on="1"/>
        <pt x="403" y="530" on="0"/>
        <pt x="454" y="481" on="1"/>
        <pt x="421" y="444" on="1"/>
        <pt x="399" y="465" on="0"/>
        <pt x="347" y="485" on="0"/>
        <pt x="313" y="485" on="1"/>
      </contour>
    </TTGlyph>
    <TTGlyph name="cent.tosf" xMin="16" yMin="-150" xMax="417" yMax="680">
      <component glyphName="cent.tf" x="-37" y="0" flags="0x0"/>
    </TTGlyph>
    <TTGlyph name="chi" xMin="-67" yMin="-203" xMax="439" yMax="531">
      <contour>
        <pt x="357" y="-193" on="1"/>
        <pt x="299" y="-203" on="1"/>
        <pt x="195" y="136" on="1"/>
        <pt x="-9" y="-202" on="1"/>
        <pt x="-67" y="-195" on="1"/>
        <pt x="170" y="185" on="1"/>
        <pt x="128" y="325" on="0"/>
        <pt x="69" y="461" on="0"/>
        <pt x="30" y="512" on="1"/>
        <pt x="87" y="531" on="1"/>
        <pt x="125" y="479" on="0"/>
        <pt x="177" y="355" on="0"/>
        <pt x="207" y="235" on="1"/>
        <pt x="379" y="530" on="1"/>
        <pt x="439" y="523" on="1"/>
        <pt x="233" y="184" on="1"/>
      </contour>
    </TTGlyph>
    <TTGlyph name="chi.sc" xMin="-27" yMin="0" xMax="460" yMax="562">
      <component glyphName="x.sc" x="0" y="0" flags="0x0"/>
    </TTGlyph>
    <TTGlyph name="circumflex" xMin="87" yMin="643" xMax="380" yMax="779">
      <contour>
        <pt x="231" y="779" on="1"/>
        <pt x="266" y="779" on="1"/>
        <pt x="380" y="674" on="1"/>
        <pt x="352" y="643" on="1"/>
        <pt x="243" y="728" on="1"/>
        <pt x="112" y="643" on="1"/>
        <pt x="87" y="674" on="1"/>
      </contour>
    </TTGlyph>
    <TTGlyph name="circumflex.case" xMin="104" yMin="762" xMax="398" yMax="894">
      <contour>
        <pt x="129" y="762" on="1"/>
        <pt x="104" y="792" on="1"/>
        <pt x="247" y="894" on="1"/>
        <pt x="283" y="894" on="1"/>
        <pt x="398" y="792" on="1"/>
        <pt x="371" y="762" on="1"/>
        <pt x="260" y="842" on="1"/>
      </contour>
    </TTGlyph>
    <TTGlyph name="circumflex.sc" xMin="51" yMin="674" xMax="344" yMax="810">
      <contour>
        <pt x="194" y="810" on="1"/>
        <pt x="230" y="810" on="1"/>
        <pt x="344" y="704" on="1"/>
        <pt x="316" y="674" on="1"/>
        <pt x="207" y="758" on="1"/>
        <pt x="76" y="674" on="1"/>
        <pt x="51" y="704" on="1"/>
      </contour>
    </TTGlyph>
    <TTGlyph name="clear" xMin="100" yMin="-12" xMax="1140" yMax="713">
      <contour>
        <pt x="128" y="-12" on="0"/>
        <pt x="100" y="16" on="0"/>
        <pt x="100" y="38" on="1"/>
        <pt x="100" y="663" on="1"/>
        <pt x="100" y="686" on="0"/>
        <pt x="128" y="713" on="0"/>
        <pt x="150" y="713" on="1"/>
        <pt x="1090" y="713" on="1"/>
        <pt x="1113" y="713" on="0"/>
        <pt x="1140" y="686" on="0"/>
        <pt x="1140" y="663" on="1"/>
        <pt x="1140" y="38" on="1"/>
        <pt x="1140" y="16" on="0"/>
        <pt x="1113" y="-12" on="0"/>
        <pt x="1090" y="-12" on="1"/>
        <pt x="150" y="-12" on="1"/>
      </contour>
      <contour>
        <pt x="620" y="288" on="1"/>
        <pt x="774" y="134" on="1"/>
        <pt x="841" y="201" on="1"/>
        <pt x="687" y="355" on="1"/>
        <pt x="841" y="508" on="1"/>
        <pt x="774" y="577" on="1"/>
        <pt x="620" y="422" on="1"/>
        <pt x="466" y="577" on="1"/>
        <pt x="399" y="508" on="1"/>
        <pt x="553" y="355" on="1"/>
        <pt x="399" y="201" on="1"/>
        <pt x="466" y="134" on="1"/>
      </contour>
    </TTGlyph>
    <TTGlyph name="colon" xMin="24" yMin="-11" xMax="174" yMax="475">
      <component glyphName="period" x="0" y="0" flags="0x0"/>
      <component glyphName="period" x="55" y="390" flags="0x0"/>
    </TTGlyph>
    <TTGlyph name="comma" xMin="-20" yMin="-151" xMax="119" yMax="84">
      <contour>
        <pt x="95" y="84" on="0"/>
        <pt x="119" y="59" on="0"/>
        <pt x="119" y="40" on="1"/>
        <pt x="119" y="28" on="0"/>
        <pt x="109" y="2" on="0"/>
        <pt x="98" y="-19" on="1"/>
        <pt x="23" y="-151" on="1"/>
        <pt x="-20" y="-151" on="1"/>
        <pt x="42" y="-3" on="1"/>
        <pt x="24" y="8" on="0"/>
        <pt x="24" y="33" on="1"/>
        <pt x="24" y="54" on="0"/>
        <pt x="54" y="84" on="0"/>
        <pt x="75" y="84" on="1"/>
      </contour>
    </TTGlyph>
    <TTGlyph name="copyright" xMin="108" yMin="134" xMax="702" yMax="736">
      <contour>
        <pt x="487" y="736" on="0"/>
        <pt x="623" y="657" on="0"/>
        <pt x="702" y="520" on="0"/>
        <pt x="702" y="435" on="1"/>
        <pt x="702" y="350" on="0"/>
        <pt x="623" y="213" on="0"/>
        <pt x="487" y="134" on="0"/>
        <pt x="405" y="134" on="1"/>
        <pt x="322" y="134" on="0"/>
        <pt x="187" y="212" on="0"/>
        <pt x="108" y="350" on="0"/>
        <pt x="108" y="435" on="1"/>
        <pt x="108" y="519" on="0"/>
        <pt x="187" y="657" on="0"/>
        <pt x="323" y="736" on="0"/>
        <pt x="405" y="736" on="1"/>
      </contour>
      <contour>
        <pt x="334" y="697" on="0"/>
        <pt x="219" y="629" on="0"/>
        <pt x="153" y="509" on="0"/>
        <pt x="153" y="435" on="1"/>
        <pt x="153" y="360" on="0"/>
        <pt x="218" y="241" on="0"/>
        <pt x="334" y="173" on="0"/>
        <pt x="406" y="173" on="1"/>
        <pt x="477" y="173" on="0"/>
        <pt x="592" y="241" on="0"/>
        <pt x="657" y="361" on="0"/>
        <pt x="657" y="435" on="1"/>
        <pt x="657" y="510" on="0"/>
        <pt x="592" y="629" on="0"/>
        <pt x="478" y="697" on="0"/>
        <pt x="406" y="697" on="1"/>
      </contour>
      <contour>
        <pt x="438" y="616" on="0"/>
        <pt x="486" y="599" on="0"/>
        <pt x="509" y="581" on="1"/>
        <pt x="484" y="548" on="1"/>
        <pt x="467" y="561" on="0"/>
        <pt x="432" y="573" on="0"/>
        <pt x="409" y="573" on="1"/>
        <pt x="368" y="573" on="0"/>
        <pt x="310" y="508" on="0"/>
        <pt x="310" y="436" on="1"/>
        <pt x="310" y="368" on="0"/>
        <pt x="364" y="298" on="0"/>
        <pt x="409" y="298" on="1"/>
        <pt x="434" y="298" on="0"/>
        <pt x="473" y="313" on="0"/>
        <pt x="493" y="327" on="1"/>
        <pt x="515" y="294" on="1"/>
        <pt x="467" y="254" on="0"/>
        <pt x="407" y="254" on="1"/>
        <pt x="341" y="254" on="0"/>
        <pt x="259" y="352" on="0"/>
        <pt x="259" y="436" on="1"/>
        <pt x="259" y="494" on="0"/>
        <pt x="301" y="576" on="0"/>
        <pt x="368" y="616" on="0"/>
        <pt x="407" y="616" on="1"/>
      </contour>
    </TTGlyph>
    <TTGlyph name="currency" xMin="49" yMin="102" xMax="511" yMax="579">
      <contour>
        <pt x="473" y="269" on="0"/>
        <pt x="432" y="215" on="1"/>
        <pt x="511" y="138" on="1"/>
        <pt x="475" y="102" on="1"/>
        <pt x="395" y="180" on="1"/>
        <pt x="349" y="146" on="0"/>
        <pt x="280" y="146" on="1"/>
        <pt x="214" y="146" on="0"/>
        <pt x="165" y="182" on="1"/>
        <pt x="85" y="102" on="1"/>
        <pt x="49" y="138" on="1"/>
        <pt x="129" y="217" on="1"/>
        <pt x="90" y="270" on="0"/>
        <pt x="90" y="341" on="1"/>
        <pt x="90" y="412" on="0"/>
        <pt x="129" y="463" on="1"/>
        <pt x="49" y="543" on="1"/>
        <pt x="85" y="579" on="1"/>
        <pt x="165" y="499" on="1"/>
        <pt x="214" y="535" on="0"/>
        <pt x="280" y="535" on="1"/>
        <pt x="347" y="535" on="0"/>
        <pt x="396" y="500" on="1"/>
        <pt x="475" y="579" on="1"/>
        <pt x="511" y="543" on="1"/>
        <pt x="433" y="465" on="1"/>
        <pt x="473" y="414" on="0"/>
        <pt x="473" y="341" on="1"/>
      </contour>
      <contour>
        <pt x="347" y="193" on="0"/>
        <pt x="416" y="273" on="0"/>
        <pt x="416" y="341" on="1"/>
        <pt x="416" y="409" on="0"/>
        <pt x="347" y="489" on="0"/>
        <pt x="281" y="489" on="1"/>
        <pt x="216" y="489" on="0"/>
        <pt x="145" y="409" on="0"/>
        <pt x="145" y="341" on="1"/>
        <pt x="145" y="273" on="0"/>
        <pt x="216" y="193" on="0"/>
        <pt x="281" y="193" on="1"/>
      </contour>
    </TTGlyph>
    <TTGlyph name="currency.osf" xMin="49" yMin="102" xMax="511" yMax="579">
      <component glyphName="currency" x="0" y="0" flags="0x0"/>
    </TTGlyph>
    <TTGlyph name="currency.tf" xMin="49" yMin="102" xMax="511" yMax="579">
      <component glyphName="currency" x="0" y="0" flags="0x0"/>
    </TTGlyph>
    <TTGlyph name="currency.tosf" xMin="49" yMin="102" xMax="511" yMax="579">
      <component glyphName="currency" x="0" y="0" flags="0x0"/>
    </TTGlyph>
    <TTGlyph name="d" xMin="64" yMin="-11" xMax="545" yMax="743">
      <contour>
        <pt x="441" y="0" on="1"/>
        <pt x="391" y="0" on="1"/>
        <pt x="398" y="106" on="1"/>
        <pt x="330" y="-11" on="0"/>
        <pt x="225" y="-11" on="1"/>
        <pt x="149" y="-11" on="0"/>
        <pt x="64" y="99" on="0"/>
        <pt x="64" y="195" on="1"/>
        <pt x="64" y="271" on="0"/>
        <pt x="114" y="427" on="0"/>
        <pt x="224" y="534" on="0"/>
        <pt x="309" y="534" on="1"/>
        <pt x="399" y="534" on="0"/>
        <pt x="448" y="462" on="1"/>
        <pt x="488" y="743" on="1"/>
        <pt x="545" y="736" on="1"/>
      </contour>
      <contour>
        <pt x="250" y="486" on="0"/>
        <pt x="163" y="393" on="0"/>
        <pt x="125" y="258" on="0"/>
        <pt x="125" y="192" on="1"/>
        <pt x="125" y="116" on="0"/>
        <pt x="182" y="37" on="0"/>
        <pt x="234" y="37" on="1"/>
        <pt x="288" y="37" on="0"/>
        <pt x="367" y="109" on="0"/>
        <pt x="409" y="181" on="1"/>
        <pt x="441" y="409" on="1"/>
        <pt x="420" y="445" on="0"/>
        <pt x="361" y="486" on="0"/>
        <pt x="317" y="486" on="1"/>
      </contour>
    </TTGlyph>
    <TTGlyph name="d.sc" xMin="74" yMin="0" xMax="516" yMax="562">
      <contour>
        <pt x="516" y="562" on="0"/>
        <pt x="516" y="347" on="1"/>
        <pt x="516" y="253" on="0"/>
        <pt x="453" y="96" on="0"/>
        <pt x="315" y="0" on="0"/>
        <pt x="207" y="0" on="1"/>
        <pt x="74" y="0" on="1"/>
        <pt x="153" y="562" on="1"/>
        <pt x="274" y="562" on="1"/>
      </contour>
      <contour>
        <pt x="138" y="47" on="1"/>
        <pt x="214" y="47" on="1"/>
        <pt x="301" y="47" on="0"/>
        <pt x="410" y="134" on="0"/>
        <pt x="457" y="270" on="0"/>
        <pt x="457" y="349" on="1"/>
        <pt x="457" y="446" on="0"/>
        <pt x="359" y="515" on="0"/>
        <pt x="276" y="515" on="1"/>
        <pt x="204" y="515" on="1"/>
      </contour>
    </TTGlyph>
    <TTGlyph name="dagger" xMin="79" yMin="0" xMax="488" yMax="665">
      <contour>
        <pt x="488" y="512" on="1"/>
        <pt x="481" y="461" on="1"/>
        <pt x="308" y="461" on="1"/>
        <pt x="243" y="0" on="1"/>
        <pt x="186" y="0" on="1"/>
        <pt x="252" y="461" on="1"/>
        <pt x="79" y="461" on="1"/>
        <pt x="85" y="512" on="1"/>
        <pt x="258" y="512" on="1"/>
        <pt x="280" y="665" on="1"/>
        <pt x="337" y="665" on="1"/>
        <pt x="315" y="512" on="1"/>
      </contour>
    </TTGlyph>
    <TTGlyph name="dagger.osf" xMin="79" yMin="0" xMax="488" yMax="665">
      <component glyphName="dagger" x="0" y="0" flags="0x0"/>
    </TTGlyph>
    <TTGlyph name="dagger.tf" xMin="100" yMin="0" xMax="530" yMax="685">
      <contour>
        <pt x="530" y="532" on="1"/>
        <pt x="522" y="481" on="1"/>
        <pt x="339" y="481" on="1"/>
        <pt x="272" y="0" on="1"/>
        <pt x="215" y="0" on="1"/>
        <pt x="283" y="481" on="1"/>
        <pt x="100" y="481" on="1"/>
        <pt x="107" y="532" on="1"/>
        <pt x="290" y="532" on="1"/>
        <pt x="311" y="685" on="1"/>
        <pt x="368" y="685" on="1"/>
        <pt x="347" y="532" on="1"/>
      </contour>
    </TTGlyph>
    <TTGlyph name="dagger.tosf" xMin="69" yMin="0" xMax="478" yMax="665">
      <component glyphName="dagger" x="-9" y="0" flags="0x0"/>
    </TTGlyph>
    <TTGlyph name="daggerdbl" xMin="41" yMin="0" xMax="488" yMax="665">
      <contour>
        <pt x="275" y="223" on="1"/>
        <pt x="453" y="223" on="1"/>
        <pt x="447" y="174" on="1"/>
        <pt x="268" y="174" on="1"/>
        <pt x="243" y="0" on="1"/>
        <pt x="186" y="0" on="1"/>
        <pt x="211" y="174" on="1"/>
        <pt x="41" y="174" on="1"/>
        <pt x="48" y="223" on="1"/>
        <pt x="218" y="223" on="1"/>
        <pt x="252" y="461" on="1"/>
        <pt x="79" y="461" on="1"/>
        <pt x="85" y="512" on="1"/>
        <pt x="258" y="512" on="1"/>
        <pt x="280" y="665" on="1"/>
        <pt x="337" y="665" on="1"/>
        <pt x="315" y="512" on="1"/>
        <pt x="488" y="512" on="1"/>
        <pt x="481" y="461" on="1"/>
        <pt x="308" y="461" on="1"/>
      </contour>
    </TTGlyph>
    <TTGlyph name="daggerdbl.osf" xMin="41" yMin="0" xMax="488" yMax="665">
      <component glyphName="daggerdbl" x="0" y="0" flags="0x0"/>
    </TTGlyph>
    <TTGlyph name="daggerdbl.tf" xMin="60" yMin="0" xMax="530" yMax="685">
      <contour>
        <pt x="307" y="252" on="1"/>
        <pt x="490" y="252" on="1"/>
        <pt x="483" y="202" on="1"/>
        <pt x="300" y="202" on="1"/>
        <pt x="272" y="0" on="1"/>
        <pt x="215" y="0" on="1"/>
        <pt x="243" y="202" on="1"/>
        <pt x="60" y="202" on="1"/>
        <pt x="67" y="252" on="1"/>
        <pt x="250" y="252" on="1"/>
        <pt x="283" y="481" on="1"/>
        <pt x="100" y="481" on="1"/>
        <pt x="107" y="532" on="1"/>
        <pt x="290" y="532" on="1"/>
        <pt x="311" y="685" on="1"/>
        <pt x="368" y="685" on="1"/>
        <pt x="347" y="532" on="1"/>
        <pt x="530" y="532" on="1"/>
        <pt x="522" y="481" on="1"/>
        <pt x="339" y="481" on="1"/>
      </contour>
    </TTGlyph>
    <TTGlyph name="daggerdbl.tosf" xMin="31" yMin="0" xMax="478" yMax="665">
      <component glyphName="daggerdbl" x="-9" y="0" flags="0x0"/>
    </TTGlyph>
    <TTGlyph name="dcaron" xMin="59" yMin="-11" xMax="675" yMax="743">
      <component glyphName="d" x="-5" y="0" flags="0x0"/>
      <component glyphName="caron.alt" x="481" y="51" flags="0x0"/>
    </TTGlyph>
    <TTGlyph name="dcaron.sc" xMin="74" yMin="0" xMax="516" yMax="799">
      <component glyphName="d.sc" x="0" y="0" flags="0x0"/>
      <component glyphName="caron.sc" x="134" y="0" flags="0x0"/>
    </TTGlyph>
    <TTGlyph name="dcroat" xMin="64" yMin="-11" xMax="610" yMax="743">
      <contour>
        <pt x="528" y="616" on="1"/>
        <pt x="441" y="0" on="1"/>
        <pt x="391" y="0" on="1"/>
        <pt x="398" y="106" on="1"/>
        <pt x="330" y="-11" on="0"/>
        <pt x="225" y="-11" on="1"/>
        <pt x="149" y="-11" on="0"/>
        <pt x="64" y="99" on="0"/>
        <pt x="64" y="195" on="1"/>
        <pt x="64" y="271" on="0"/>
        <pt x="114" y="427" on="0"/>
        <pt x="224" y="534" on="0"/>
        <pt x="309" y="534" on="1"/>
        <pt x="399" y="534" on="0"/>
        <pt x="448" y="462" on="1"/>
        <pt x="470" y="616" on="1"/>
        <pt x="309" y="616" on="1"/>
        <pt x="309" y="663" on="1"/>
        <pt x="476" y="663" on="1"/>
        <pt x="488" y="743" on="1"/>
        <pt x="545" y="736" on="1"/>
        <pt x="534" y="663" on="1"/>
        <pt x="610" y="663" on="1"/>
        <pt x="603" y="616" on="1"/>
      </contour>
      <contour>
        <pt x="420" y="445" on="0"/>
        <pt x="361" y="486" on="0"/>
        <pt x="317" y="486" on="1"/>
        <pt x="250" y="486" on="0"/>
        <pt x="163" y="393" on="0"/>
        <pt x="125" y="258" on="0"/>
        <pt x="125" y="192" on="1"/>
        <pt x="125" y="116" on="0"/>
        <pt x="182" y="37" on="0"/>
        <pt x="234" y="37" on="1"/>
        <pt x="288" y="37" on="0"/>
        <pt x="367" y="109" on="0"/>
        <pt x="409" y="181" on="1"/>
        <pt x="441" y="409" on="1"/>
      </contour>
    </TTGlyph>
    <TTGlyph name="dcroat.sc" xMin="5" yMin="0" xMax="447" yMax="562">
      <component glyphName="eth.sc" x="0" y="0" flags="0x0"/>
    </TTGlyph>
    <TTGlyph name="degree" xMin="107" yMin="395" xMax="409" yMax="696">
      <contour>
        <pt x="184" y="396" on="0"/>
        <pt x="107" y="466" on="0"/>
        <pt x="107" y="525" on="1"/>
        <pt x="107" y="576" on="0"/>
        <pt x="156" y="654" on="0"/>
        <pt x="234" y="696" on="0"/>
        <pt x="276" y="696" on="1"/>
        <pt x="333" y="696" on="0"/>
        <pt x="409" y="626" on="0"/>
        <pt x="409" y="568" on="1"/>
        <pt x="409" y="517" on="0"/>
        <pt x="361" y="438" on="0"/>
        <pt x="284" y="396" on="0"/>
        <pt x="240" y="395" on="1"/>
      </contour>
      <contour>
        <pt x="290" y="439" on="0"/>
        <pt x="359" y="511" on="0"/>
        <pt x="359" y="569" on="1"/>
        <pt x="359" y="608" on="0"/>
        <pt x="315" y="653" on="0"/>
        <pt x="277" y="653" on="1"/>
        <pt x="234" y="653" on="0"/>
        <pt x="166" y="593" on="0"/>
        <pt x="159" y="543" on="1"/>
        <pt x="158" y="536" on="0"/>
        <pt x="158" y="524" on="1"/>
        <pt x="158" y="484" on="0"/>
        <pt x="204" y="439" on="0"/>
        <pt x="240" y="439" on="1"/>
      </contour>
    </TTGlyph>
    <TTGlyph name="degree.osf" xMin="107" yMin="395" xMax="409" yMax="696">
      <component glyphName="degree" x="0" y="0" flags="0x0"/>
    </TTGlyph>
    <TTGlyph name="degree.tf" xMin="93" yMin="415" xMax="395" yMax="716">
      <component glyphName="degree" x="-14" y="20" flags="0x0"/>
    </TTGlyph>
    <TTGlyph name="degree.tosf" xMin="90" yMin="395" xMax="392" yMax="696">
      <component glyphName="degree" x="-17" y="0" flags="0x0"/>
    </TTGlyph>
    <TTGlyph name="deleterightKey" xMin="100" yMin="-12" xMax="1360" yMax="713">
      <contour>
        <pt x="128" y="-12" on="0"/>
        <pt x="100" y="16" on="0"/>
        <pt x="100" y="38" on="1"/>
        <pt x="100" y="663" on="1"/>
        <pt x="100" y="686" on="0"/>
        <pt x="128" y="713" on="0"/>
        <pt x="150" y="713" on="1"/>
        <pt x="980" y="713" on="1"/>
        <pt x="1360" y="352" on="1"/>
        <pt x="980" y="-12" on="1"/>
        <pt x="150" y="-12" on="1"/>
      </contour>
      <contour>
        <pt x="570" y="288" on="1"/>
        <pt x="724" y="134" on="1"/>
        <pt x="791" y="201" on="1"/>
        <pt x="637" y="355" on="1"/>
        <pt x="791" y="508" on="1"/>
        <pt x="724" y="577" on="1"/>
        <pt x="570" y="422" on="1"/>
        <pt x="416" y="577" on="1"/>
        <pt x="349" y="508" on="1"/>
        <pt x="503" y="355" on="1"/>
        <pt x="349" y="201" on="1"/>
        <pt x="416" y="134" on="1"/>
      </contour>
    </TTGlyph>
    <TTGlyph name="delta" xMin="59" yMin="-11" xMax="510" yMax="743">
      <contour>
        <pt x="446" y="743" on="0"/>
        <pt x="510" y="685" on="1"/>
        <pt x="476" y="650" on="1"/>
        <pt x="448" y="674" on="0"/>
        <pt x="390" y="696" on="0"/>
        <pt x="355" y="696" on="1"/>
        <pt x="290" y="696" on="0"/>
        <pt x="227" y="639" on="0"/>
        <pt x="227" y="603" on="1"/>
        <pt x="227" y="569" on="0"/>
        <pt x="273" y="523" on="0"/>
        <pt x="334" y="498" on="1"/>
        <pt x="422" y="461" on="0"/>
        <pt x="503" y="364" on="0"/>
        <pt x="503" y="288" on="1"/>
        <pt x="503" y="225" on="0"/>
        <pt x="453" y="87" on="0"/>
        <pt x="339" y="-11" on="0"/>
        <pt x="249" y="-11" on="1"/>
        <pt x="161" y="-11" on="0"/>
        <pt x="59" y="101" on="0"/>
        <pt x="59" y="195" on="1"/>
        <pt x="59" y="294" on="0"/>
        <pt x="150" y="437" on="0"/>
        <pt x="257" y="480" on="1"/>
        <pt x="210" y="506" on="0"/>
        <pt x="168" y="564" on="0"/>
        <pt x="168" y="604" on="1"/>
        <pt x="168" y="638" on="0"/>
        <pt x="207" y="702" on="0"/>
        <pt x="289" y="743" on="0"/>
        <pt x="349" y="743" on="1"/>
      </contour>
      <contour>
        <pt x="198" y="417" on="0"/>
        <pt x="119" y="285" on="0"/>
        <pt x="119" y="191" on="1"/>
        <pt x="119" y="120" on="0"/>
        <pt x="188" y="38" on="0"/>
        <pt x="251" y="38" on="1"/>
        <pt x="321" y="38" on="0"/>
        <pt x="407" y="122" on="0"/>
        <pt x="443" y="239" on="0"/>
        <pt x="443" y="291" on="1"/>
        <pt x="443" y="352" on="0"/>
        <pt x="377" y="428" on="0"/>
        <pt x="299" y="461" on="1"/>
      </contour>
    </TTGlyph>
    <TTGlyph name="delta.sc" xMin="-21" yMin="0" xMax="450" yMax="563">
      <contour>
        <pt x="-21" y="0" on="1"/>
        <pt x="259" y="563" on="1"/>
        <pt x="329" y="563" on="1"/>
        <pt x="450" y="0" on="1"/>
      </contour>
      <contour>
        <pt x="383" y="48" on="1"/>
        <pt x="289" y="516" on="1"/>
        <pt x="59" y="48" on="1"/>
      </contour>
    </TTGlyph>
    <TTGlyph name="dieresis" xMin="92" yMin="663" xMax="359" yMax="742">
      <contour>
        <pt x="150" y="742" on="0"/>
        <pt x="171" y="721" on="0"/>
        <pt x="171" y="706" on="1"/>
        <pt x="171" y="688" on="0"/>
        <pt x="147" y="663" on="0"/>
        <pt x="129" y="663" on="1"/>
        <pt x="112" y="663" on="0"/>
        <pt x="92" y="684" on="0"/>
        <pt x="92" y="699" on="1"/>
        <pt x="92" y="717" on="0"/>
        <pt x="116" y="742" on="0"/>
        <pt x="134" y="742" on="1"/>
      </contour>
      <contour>
        <pt x="339" y="742" on="0"/>
        <pt x="359" y="721" on="0"/>
        <pt x="359" y="706" on="1"/>
        <pt x="359" y="688" on="0"/>
        <pt x="335" y="663" on="0"/>
        <pt x="317" y="663" on="1"/>
        <pt x="301" y="663" on="0"/>
        <pt x="280" y="684" on="0"/>
        <pt x="280" y="699" on="1"/>
        <pt x="280" y="717" on="0"/>
        <pt x="304" y="742" on="0"/>
        <pt x="322" y="742" on="1"/>
      </contour>
    </TTGlyph>
    <TTGlyph name="dieresis.case" xMin="71" yMin="789" xMax="339" yMax="868">
      <contour>
        <pt x="130" y="868" on="0"/>
        <pt x="150" y="847" on="0"/>
        <pt x="150" y="832" on="1"/>
        <pt x="150" y="813" on="0"/>
        <pt x="127" y="789" on="0"/>
        <pt x="108" y="789" on="1"/>
        <pt x="92" y="789" on="0"/>
        <pt x="71" y="810" on="0"/>
        <pt x="71" y="825" on="1"/>
        <pt x="71" y="844" on="0"/>
        <pt x="96" y="868" on="0"/>
        <pt x="114" y="868" on="1"/>
      </contour>
      <contour>
        <pt x="318" y="868" on="0"/>
        <pt x="339" y="847" on="0"/>
        <pt x="339" y="832" on="1"/>
        <pt x="339" y="814" on="0"/>
        <pt x="315" y="789" on="0"/>
        <pt x="297" y="789" on="1"/>
        <pt x="281" y="789" on="0"/>
        <pt x="260" y="810" on="0"/>
        <pt x="260" y="825" on="1"/>
        <pt x="260" y="844" on="0"/>
        <pt x="284" y="868" on="0"/>
        <pt x="302" y="868" on="1"/>
      </contour>
    </TTGlyph>
    <TTGlyph name="dieresis.sc" xMin="55" yMin="693" xMax="323" yMax="772">
      <contour>
        <pt x="114" y="772" on="0"/>
        <pt x="134" y="751" on="0"/>
        <pt x="134" y="736" on="1"/>
        <pt x="134" y="717" on="0"/>
        <pt x="111" y="693" on="0"/>
        <pt x="92" y="693" on="1"/>
        <pt x="76" y="693" on="0"/>
        <pt x="55" y="714" on="0"/>
        <pt x="55" y="729" on="1"/>
        <pt x="55" y="748" on="0"/>
        <pt x="80" y="772" on="0"/>
        <pt x="98" y="772" on="1"/>
      </contour>
      <contour>
        <pt x="302" y="772" on="0"/>
        <pt x="323" y="751" on="0"/>
        <pt x="323" y="736" on="1"/>
        <pt x="323" y="718" on="0"/>
        <pt x="299" y="693" on="0"/>
        <pt x="281" y="693" on="1"/>
        <pt x="265" y="693" on="0"/>
        <pt x="244" y="714" on="0"/>
        <pt x="244" y="729" on="1"/>
        <pt x="244" y="748" on="0"/>
        <pt x="268" y="772" on="0"/>
        <pt x="286" y="772" on="1"/>
      </contour>
    </TTGlyph>
    <TTGlyph name="dieresistonos" xMin="87" yMin="633" xMax="364" yMax="870">
      <contour>
        <pt x="251" y="716" on="1"/>
        <pt x="210" y="723" on="1"/>
        <pt x="260" y="870" on="1"/>
        <pt x="321" y="858" on="1"/>
      </contour>
      <contour>
        <pt x="146" y="711" on="0"/>
        <pt x="167" y="691" on="0"/>
        <pt x="167" y="675" on="1"/>
        <pt x="167" y="657" on="0"/>
        <pt x="142" y="633" on="0"/>
        <pt x="124" y="633" on="1"/>
        <pt x="108" y="633" on="0"/>
        <pt x="87" y="654" on="0"/>
        <pt x="87" y="669" on="1"/>
        <pt x="87" y="687" on="0"/>
        <pt x="112" y="711" on="0"/>
        <pt x="129" y="711" on="1"/>
      </contour>
      <contour>
        <pt x="343" y="711" on="0"/>
        <pt x="364" y="691" on="0"/>
        <pt x="364" y="675" on="1"/>
        <pt x="364" y="657" on="0"/>
        <pt x="339" y="633" on="0"/>
        <pt x="321" y="633" on="1"/>
        <pt x="305" y="633" on="0"/>
        <pt x="284" y="654" on="0"/>
        <pt x="284" y="669" on="1"/>
        <pt x="284" y="687" on="0"/>
        <pt x="309" y="711" on="0"/>
        <pt x="327" y="711" on="1"/>
      </contour>
    </TTGlyph>
    <TTGlyph name="divide" xMin="75" yMin="65" xMax="435" yMax="598">
      <component glyphName="period" x="149" y="76" flags="0x0"/>
      <component glyphName="period" x="210" y="513" flags="0x0"/>
      <component glyphName="minus" x="0" y="0" flags="0x0"/>
    </TTGlyph>
    <TTGlyph name="divide.osf" xMin="75" yMin="65" xMax="435" yMax="598">
      <contour>
        <pt x="305" y="598" on="0"/>
        <pt x="329" y="573" on="0"/>
        <pt x="329" y="555" on="1"/>
        <pt x="329" y="533" on="0"/>
        <pt x="300" y="503" on="0"/>
        <pt x="278" y="503" on="1"/>
        <pt x="259" y="503" on="0"/>
        <pt x="234" y="529" on="0"/>
        <pt x="234" y="547" on="1"/>
        <pt x="234" y="569" on="0"/>
        <pt x="264" y="598" on="0"/>
        <pt x="285" y="598" on="1"/>
      </contour>
      <contour>
        <pt x="435" y="357" on="1"/>
        <pt x="428" y="306" on="1"/>
        <pt x="75" y="306" on="1"/>
        <pt x="82" y="357" on="1"/>
      </contour>
      <contour>
        <pt x="244" y="160" on="0"/>
        <pt x="268" y="135" on="0"/>
        <pt x="268" y="117" on="1"/>
        <pt x="268" y="95" on="0"/>
        <pt x="238" y="65" on="0"/>
        <pt x="216" y="65" on="1"/>
        <pt x="197" y="65" on="0"/>
        <pt x="172" y="91" on="0"/>
        <pt x="172" y="109" on="1"/>
        <pt x="172" y="131" on="0"/>
        <pt x="202" y="160" on="0"/>
        <pt x="224" y="160" on="1"/>
      </contour>
    </TTGlyph>
    <TTGlyph name="divide.tf" xMin="105" yMin="65" xMax="466" yMax="598">
      <contour>
        <pt x="335" y="598" on="0"/>
        <pt x="359" y="573" on="0"/>
        <pt x="359" y="555" on="1"/>
        <pt x="359" y="533" on="0"/>
        <pt x="330" y="503" on="0"/>
        <pt x="308" y="503" on="1"/>
        <pt x="289" y="503" on="0"/>
        <pt x="264" y="529" on="0"/>
        <pt x="264" y="547" on="1"/>
        <pt x="264" y="569" on="0"/>
        <pt x="294" y="598" on="0"/>
        <pt x="315" y="598" on="1"/>
      </contour>
      <contour>
        <pt x="466" y="357" on="1"/>
        <pt x="458" y="306" on="1"/>
        <pt x="105" y="306" on="1"/>
        <pt x="112" y="357" on="1"/>
      </contour>
      <contour>
        <pt x="274" y="160" on="0"/>
        <pt x="298" y="135" on="0"/>
        <pt x="298" y="117" on="1"/>
        <pt x="298" y="95" on="0"/>
        <pt x="269" y="65" on="0"/>
        <pt x="247" y="65" on="1"/>
        <pt x="228" y="65" on="0"/>
        <pt x="203" y="91" on="0"/>
        <pt x="203" y="109" on="1"/>
        <pt x="203" y="131" on="0"/>
        <pt x="233" y="160" on="0"/>
        <pt x="254" y="160" on="1"/>
      </contour>
    </TTGlyph>
    <TTGlyph name="divide.tosf" xMin="108" yMin="65" xMax="468" yMax="598">
      <contour>
        <pt x="338" y="598" on="0"/>
        <pt x="362" y="573" on="0"/>
        <pt x="362" y="555" on="1"/>
        <pt x="362" y="533" on="0"/>
        <pt x="332" y="503" on="0"/>
        <pt x="310" y="503" on="1"/>
        <pt x="291" y="503" on="0"/>
        <pt x="267" y="529" on="0"/>
        <pt x="267" y="547" on="1"/>
        <pt x="267" y="569" on="0"/>
        <pt x="296" y="598" on="0"/>
        <pt x="318" y="598" on="1"/>
      </contour>
      <contour>
        <pt x="468" y="357" on="1"/>
        <pt x="461" y="306" on="1"/>
        <pt x="108" y="306" on="1"/>
        <pt x="115" y="357" on="1"/>
      </contour>
      <contour>
        <pt x="276" y="160" on="0"/>
        <pt x="300" y="135" on="0"/>
        <pt x="300" y="117" on="1"/>
        <pt x="300" y="95" on="0"/>
        <pt x="271" y="65" on="0"/>
        <pt x="249" y="65" on="1"/>
        <pt x="230" y="65" on="0"/>
        <pt x="205" y="91" on="0"/>
        <pt x="205" y="109" on="1"/>
        <pt x="205" y="131" on="0"/>
        <pt x="235" y="160" on="0"/>
        <pt x="256" y="160" on="1"/>
      </contour>
    </TTGlyph>
    <TTGlyph name="divisionslash" xMin="-211" yMin="-71" xMax="344" yMax="747">
      <component glyphName="fraction" x="0" y="0" flags="0x0"/>
    </TTGlyph>
    <TTGlyph name="dollar" xMin="12" yMin="-151" xMax="496" yMax="819">
      <contour>
        <pt x="374" y="352" on="0"/>
        <pt x="461" y="269" on="0"/>
        <pt x="461" y="202" on="1"/>
        <pt x="461" y="153" on="0"/>
        <pt x="418" y="61" on="0"/>
        <pt x="322" y="-4" on="0"/>
        <pt x="247" y="-10" on="1"/>
        <pt x="227" y="-151" on="1"/>
        <pt x="176" y="-151" on="1"/>
        <pt x="196" y="-10" on="1"/>
        <pt x="84" y="-4" on="0"/>
        <pt x="12" y="73" on="1"/>
        <pt x="50" y="108" on="1"/>
        <pt x="114" y="39" on="0"/>
        <pt x="214" y="39" on="1"/>
        <pt x="305" y="39" on="0"/>
        <pt x="401" y="130" on="0"/>
        <pt x="401" y="200" on="1"/>
        <pt x="401" y="245" on="0"/>
        <pt x="339" y="305" on="0"/>
        <pt x="266" y="330" on="1"/>
        <pt x="179" y="358" on="0"/>
        <pt x="98" y="438" on="0"/>
        <pt x="98" y="499" on="1"/>
        <pt x="98" y="545" on="0"/>
        <pt x="143" y="622" on="0"/>
        <pt x="231" y="671" on="0"/>
        <pt x="292" y="674" on="1"/>
        <pt x="313" y="819" on="1"/>
        <pt x="363" y="819" on="1"/>
        <pt x="343" y="674" on="1"/>
        <pt x="389" y="670" on="0"/>
        <pt x="461" y="633" on="0"/>
        <pt x="496" y="600" on="1"/>
        <pt x="458" y="565" on="1"/>
        <pt x="396" y="626" on="0"/>
        <pt x="314" y="626" on="1"/>
        <pt x="244" y="626" on="0"/>
        <pt x="157" y="562" on="0"/>
        <pt x="157" y="501" on="1"/>
        <pt x="157" y="456" on="0"/>
        <pt x="217" y="402" on="0"/>
        <pt x="291" y="378" on="1"/>
      </contour>
    </TTGlyph>
    <TTGlyph name="dollar.osf" xMin="12" yMin="-151" xMax="496" yMax="819">
      <component glyphName="dollar" x="0" y="0" flags="0x0"/>
    </TTGlyph>
    <TTGlyph name="dollar.tf" xMin="24" yMin="-150" xMax="518" yMax="843">
      <contour>
        <pt x="260" y="640" on="0"/>
        <pt x="170" y="573" on="0"/>
        <pt x="170" y="512" on="1"/>
        <pt x="170" y="468" on="0"/>
        <pt x="232" y="412" on="0"/>
        <pt x="307" y="387" on="1"/>
        <pt x="391" y="361" on="0"/>
        <pt x="479" y="273" on="0"/>
        <pt x="479" y="203" on="1"/>
        <pt x="479" y="153" on="0"/>
        <pt x="436" y="62" on="0"/>
        <pt x="338" y="-1" on="0"/>
        <pt x="261" y="-6" on="1"/>
        <pt x="241" y="-150" on="1"/>
        <pt x="190" y="-150" on="1"/>
        <pt x="210" y="-6" on="1"/>
        <pt x="98" y="1" on="0"/>
        <pt x="24" y="78" on="1"/>
        <pt x="62" y="113" on="1"/>
        <pt x="129" y="43" on="0"/>
        <pt x="235" y="43" on="1"/>
        <pt x="325" y="43" on="0"/>
        <pt x="419" y="131" on="0"/>
        <pt x="419" y="201" on="1"/>
        <pt x="419" y="248" on="0"/>
        <pt x="355" y="315" on="0"/>
        <pt x="282" y="339" on="1"/>
        <pt x="194" y="367" on="0"/>
        <pt x="112" y="450" on="0"/>
        <pt x="112" y="512" on="1"/>
        <pt x="112" y="552" on="0"/>
        <pt x="151" y="630" on="0"/>
        <pt x="240" y="685" on="0"/>
        <pt x="308" y="689" on="1"/>
        <pt x="330" y="843" on="1"/>
        <pt x="381" y="843" on="1"/>
        <pt x="359" y="688" on="1"/>
        <pt x="405" y="684" on="0"/>
        <pt x="482" y="647" on="0"/>
        <pt x="518" y="614" on="1"/>
        <pt x="480" y="578" on="1"/>
        <pt x="417" y="640" on="0"/>
        <pt x="330" y="640" on="1"/>
      </contour>
    </TTGlyph>
    <TTGlyph name="dollar.tosf" xMin="27" yMin="-150" xMax="509" yMax="823">
      <contour>
        <pt x="259" y="627" on="0"/>
        <pt x="173" y="563" on="0"/>
        <pt x="173" y="502" on="1"/>
        <pt x="173" y="462" on="0"/>
        <pt x="232" y="403" on="0"/>
        <pt x="301" y="380" on="1"/>
        <pt x="385" y="352" on="0"/>
        <pt x="471" y="269" on="0"/>
        <pt x="471" y="192" on="1"/>
        <pt x="471" y="147" on="0"/>
        <pt x="428" y="59" on="0"/>
        <pt x="332" y="-3" on="0"/>
        <pt x="259" y="-9" on="1"/>
        <pt x="240" y="-150" on="1"/>
        <pt x="189" y="-150" on="1"/>
        <pt x="208" y="-9" on="1"/>
        <pt x="101" y="-4" on="0"/>
        <pt x="27" y="76" on="1"/>
        <pt x="65" y="111" on="1"/>
        <pt x="98" y="77" on="0"/>
        <pt x="177" y="40" on="0"/>
        <pt x="228" y="40" on="1"/>
        <pt x="313" y="40" on="0"/>
        <pt x="412" y="122" on="0"/>
        <pt x="412" y="189" on="1"/>
        <pt x="412" y="245" on="0"/>
        <pt x="351" y="307" on="0"/>
        <pt x="276" y="334" on="1"/>
        <pt x="194" y="361" on="0"/>
        <pt x="114" y="443" on="0"/>
        <pt x="114" y="501" on="1"/>
        <pt x="114" y="575" on="0"/>
        <pt x="220" y="669" on="0"/>
        <pt x="305" y="675" on="1"/>
        <pt x="326" y="823" on="1"/>
        <pt x="377" y="823" on="1"/>
        <pt x="356" y="675" on="1"/>
        <pt x="402" y="671" on="0"/>
        <pt x="476" y="633" on="0"/>
        <pt x="509" y="601" on="1"/>
        <pt x="473" y="567" on="1"/>
        <pt x="413" y="627" on="0"/>
        <pt x="328" y="627" on="1"/>
      </contour>
    </TTGlyph>
    <TTGlyph name="dotaccent" xMin="92" yMin="669" xMax="178" yMax="753">
      <contour>
        <pt x="157" y="753" on="0"/>
        <pt x="178" y="732" on="0"/>
        <pt x="178" y="715" on="1"/>
        <pt x="178" y="696" on="0"/>
        <pt x="153" y="670" on="0"/>
        <pt x="132" y="669" on="1"/>
        <pt x="114" y="670" on="0"/>
        <pt x="92" y="691" on="0"/>
        <pt x="92" y="708" on="1"/>
        <pt x="92" y="728" on="0"/>
        <pt x="118" y="753" on="0"/>
        <pt x="138" y="753" on="1"/>
      </contour>
    </TTGlyph>
    <TTGlyph name="dotaccent.case" xMin="72" yMin="796" xMax="158" yMax="879">
      <contour>
        <pt x="136" y="879" on="0"/>
        <pt x="158" y="858" on="0"/>
        <pt x="158" y="841" on="1"/>
        <pt x="158" y="821" on="0"/>
        <pt x="133" y="796" on="0"/>
        <pt x="112" y="796" on="1"/>
        <pt x="94" y="796" on="0"/>
        <pt x="72" y="818" on="0"/>
        <pt x="72" y="835" on="1"/>
        <pt x="72" y="854" on="0"/>
        <pt x="98" y="879" on="0"/>
        <pt x="118" y="879" on="1"/>
      </contour>
    </TTGlyph>
    <TTGlyph name="dotaccent.sc" xMin="92" yMin="700" xMax="178" yMax="783">
      <contour>
        <pt x="157" y="783" on="0"/>
        <pt x="178" y="762" on="0"/>
        <pt x="178" y="745" on="1"/>
        <pt x="178" y="725" on="0"/>
        <pt x="153" y="700" on="0"/>
        <pt x="132" y="700" on="1"/>
        <pt x="114" y="700" on="0"/>
        <pt x="92" y="721" on="0"/>
        <pt x="92" y="738" on="1"/>
        <pt x="92" y="758" on="0"/>
        <pt x="118" y="783" on="0"/>
        <pt x="138" y="783" on="1"/>
      </contour>
    </TTGlyph>
    <TTGlyph name="dotlessi" xMin="69" yMin="0" xMax="201" yMax="523">
      <contour>
        <pt x="69" y="0" on="1"/>
        <pt x="143" y="523" on="1"/>
        <pt x="201" y="523" on="1"/>
        <pt x="127" y="0" on="1"/>
      </contour>
    </TTGlyph>
    <TTGlyph name="dotlessi.sc" xMin="74" yMin="0" xMax="211" yMax="562">
      <component glyphName="i.sc" x="0" y="0" flags="0x0"/>
    </TTGlyph>
    <TTGlyph name="dotlessj.sc" xMin="-37" yMin="-102" xMax="208" yMax="562">
      <component glyphName="j.sc" x="0" y="0" flags="0x0"/>
    </TTGlyph>
    <TTGlyph name="dotmath" xMin="64" yMin="271" xMax="158" yMax="367">
      <component glyphName="periodcentered" x="0" y="0" flags="0x0"/>
    </TTGlyph>
    <TTGlyph name="e" xMin="59" yMin="-11" xMax="481" yMax="534">
      <contour>
        <pt x="481" y="313" on="0"/>
        <pt x="292" y="219" on="0"/>
        <pt x="120" y="206" on="1"/>
        <pt x="119" y="200" on="1"/>
        <pt x="119" y="118" on="0"/>
        <pt x="191" y="39" on="0"/>
        <pt x="253" y="39" on="1"/>
        <pt x="294" y="39" on="0"/>
        <pt x="363" y="65" on="0"/>
        <pt x="401" y="92" on="1"/>
        <pt x="427" y="51" on="1"/>
        <pt x="385" y="20" on="0"/>
        <pt x="298" y="-11" on="0"/>
        <pt x="249" y="-11" on="1"/>
        <pt x="159" y="-11" on="0"/>
        <pt x="59" y="99" on="0"/>
        <pt x="59" y="199" on="1"/>
        <pt x="59" y="278" on="0"/>
        <pt x="115" y="432" on="0"/>
        <pt x="234" y="534" on="0"/>
        <pt x="322" y="534" on="1"/>
        <pt x="396" y="534" on="0"/>
        <pt x="481" y="463" on="0"/>
        <pt x="481" y="408" on="1"/>
      </contour>
      <contour>
        <pt x="233" y="486" on="0"/>
        <pt x="134" y="347" on="0"/>
        <pt x="123" y="251" on="1"/>
        <pt x="273" y="263" on="0"/>
        <pt x="421" y="337" on="0"/>
        <pt x="421" y="406" on="1"/>
        <pt x="421" y="440" on="0"/>
        <pt x="371" y="486" on="0"/>
        <pt x="321" y="486" on="1"/>
      </contour>
    </TTGlyph>
    <TTGlyph name="e.sc" xMin="74" yMin="0" xMax="457" yMax="562">
      <contour>
        <pt x="204" y="514" on="1"/>
        <pt x="176" y="315" on="1"/>
        <pt x="384" y="315" on="1"/>
        <pt x="377" y="268" on="1"/>
        <pt x="169" y="268" on="1"/>
        <pt x="138" y="47" on="1"/>
        <pt x="390" y="47" on="1"/>
        <pt x="383" y="0" on="1"/>
        <pt x="74" y="0" on="1"/>
        <pt x="153" y="562" on="1"/>
        <pt x="457" y="562" on="1"/>
        <pt x="444" y="514" on="1"/>
      </contour>
    </TTGlyph>
    <TTGlyph name="eacute" xMin="59" yMin="-11" xMax="481" yMax="782">
      <component glyphName="e" x="0" y="0" flags="0x0"/>
      <component glyphName="acute" x="129" y="0" flags="0x0"/>
    </TTGlyph>
    <TTGlyph name="eacute.sc" xMin="74" yMin="0" xMax="457" yMax="813">
      <component glyphName="e.sc" x="0" y="0" flags="0x0"/>
      <component glyphName="acute.sc" x="170" y="0" flags="0x0"/>
    </TTGlyph>
    <TTGlyph name="ebreve" xMin="59" yMin="-11" xMax="481" yMax="773">
      <component glyphName="e" x="0" y="0" flags="0x0"/>
      <component glyphName="breve" x="116" y="0" flags="0x0"/>
    </TTGlyph>
    <TTGlyph name="ebreve.sc" xMin="74" yMin="0" xMax="462" yMax="804">
      <component glyphName="e.sc" x="0" y="0" flags="0x0"/>
      <component glyphName="breve.sc" x="138" y="0" flags="0x0"/>
    </TTGlyph>
    <TTGlyph name="ecaron" xMin="59" yMin="-11" xMax="492" yMax="771">
      <component glyphName="e" x="0" y="0" flags="0x0"/>
      <component glyphName="caron" x="102" y="1" flags="0x0"/>
    </TTGlyph>
    <TTGlyph name="ecaron.sc" xMin="74" yMin="0" xMax="477" yMax="799">
      <component glyphName="e.sc" x="0" y="0" flags="0x0"/>
      <component glyphName="caron.sc" x="123" y="0" flags="0x0"/>
    </TTGlyph>
    <TTGlyph name="ecircumflex" xMin="59" yMin="-11" xMax="481" yMax="779">
      <component glyphName="e" x="0" y="0" flags="0x0"/>
      <component glyphName="circumflex" x="101" y="0" flags="0x0"/>
    </TTGlyph>
    <TTGlyph name="ecircumflex.sc" xMin="74" yMin="0" xMax="479" yMax="810">
      <component glyphName="e.sc" x="0" y="0" flags="0x0"/>
      <component glyphName="circumflex.sc" x="134" y="0" flags="0x0"/>
    </TTGlyph>
    <TTGlyph name="edieresis" xMin="59" yMin="-11" xMax="481" yMax="742">
      <component glyphName="e" x="0" y="0" flags="0x0"/>
      <component glyphName="dieresis" x="105" y="0" flags="0x0"/>
    </TTGlyph>
    <TTGlyph name="edieresis.sc" xMin="74" yMin="0" xMax="464" yMax="772">
      <component glyphName="e.sc" x="0" y="0" flags="0x0"/>
      <component glyphName="dieresis.sc" x="141" y="0" flags="0x0"/>
    </TTGlyph>
    <TTGlyph name="edotaccent" xMin="59" yMin="-11" xMax="481" yMax="753">
      <component glyphName="e" x="0" y="0" flags="0x0"/>
      <component glyphName="dotaccent" x="203" y="0" flags="0x0"/>
    </TTGlyph>
    <TTGlyph name="edotaccent.sc" xMin="74" yMin="0" xMax="457" yMax="783">
      <component glyphName="e.sc" x="0" y="0" flags="0x0"/>
      <component glyphName="dotaccent.sc" x="196" y="0" flags="0x0"/>
    </TTGlyph>
    <TTGlyph name="egrave" xMin="59" yMin="-11" xMax="481" yMax="782">
      <component glyphName="e" x="0" y="0" flags="0x0"/>
      <component glyphName="grave" x="146" y="0" flags="0x0"/>
    </TTGlyph>
    <TTGlyph name="egrave.sc" xMin="74" yMin="0" xMax="457" yMax="813">
      <component glyphName="e.sc" x="0" y="0" flags="0x0"/>
      <component glyphName="grave.sc" x="170" y="0" flags="0x0"/>
    </TTGlyph>
    <TTGlyph name="eight" xMin="39" yMin="-11" xMax="491" yMax="676">
      <contour>
        <pt x="411" y="324" on="0"/>
        <pt x="471" y="250" on="0"/>
        <pt x="471" y="197" on="1"/>
        <pt x="471" y="142" on="0"/>
        <pt x="415" y="47" on="0"/>
        <pt x="306" y="-11" on="0"/>
        <pt x="231" y="-11" on="1"/>
        <pt x="142" y="-11" on="0"/>
        <pt x="39" y="81" on="0"/>
        <pt x="39" y="155" on="1"/>
        <pt x="39" y="219" on="0"/>
        <pt x="117" y="324" on="0"/>
        <pt x="209" y="358" on="1"/>
        <pt x="115" y="404" on="0"/>
        <pt x="115" y="496" on="1"/>
        <pt x="115" y="552" on="0"/>
        <pt x="174" y="634" on="0"/>
        <pt x="269" y="676" on="0"/>
        <pt x="322" y="676" on="1"/>
        <pt x="392" y="676" on="0"/>
        <pt x="491" y="600" on="0"/>
        <pt x="491" y="531" on="1"/>
        <pt x="491" y="469" on="0"/>
        <pt x="424" y="386" on="0"/>
        <pt x="348" y="351" on="1"/>
      </contour>
      <contour>
        <pt x="172" y="454" on="0"/>
        <pt x="221" y="401" on="0"/>
        <pt x="277" y="380" on="1"/>
        <pt x="306" y="369" on="1"/>
        <pt x="376" y="404" on="0"/>
        <pt x="434" y="480" on="0"/>
        <pt x="434" y="531" on="1"/>
        <pt x="434" y="578" on="0"/>
        <pt x="374" y="630" on="0"/>
        <pt x="323" y="630" on="1"/>
        <pt x="254" y="630" on="0"/>
        <pt x="172" y="553" on="0"/>
        <pt x="172" y="496" on="1"/>
      </contour>
      <contour>
        <pt x="312" y="38" on="0"/>
        <pt x="412" y="125" on="0"/>
        <pt x="412" y="200" on="1"/>
        <pt x="412" y="244" on="0"/>
        <pt x="354" y="300" on="0"/>
        <pt x="285" y="327" on="1"/>
        <pt x="254" y="339" on="1"/>
        <pt x="165" y="305" on="0"/>
        <pt x="98" y="211" on="0"/>
        <pt x="98" y="154" on="1"/>
        <pt x="98" y="100" on="0"/>
        <pt x="170" y="38" on="0"/>
        <pt x="233" y="38" on="1"/>
      </contour>
    </TTGlyph>
    <TTGlyph name="eight.dnom" xMin="31" yMin="-8" xMax="334" yMax="421">
      <contour>
        <pt x="285" y="202" on="0"/>
        <pt x="323" y="155" on="0"/>
        <pt x="323" y="118" on="1"/>
        <pt x="323" y="62" on="0"/>
        <pt x="232" y="-8" on="0"/>
        <pt x="161" y="-8" on="1"/>
        <pt x="101" y="-8" on="0"/>
        <pt x="31" y="50" on="0"/>
        <pt x="31" y="97" on="1"/>
        <pt x="31" y="139" on="0"/>
        <pt x="84" y="203" on="0"/>
        <pt x="139" y="221" on="1"/>
        <pt x="79" y="252" on="0"/>
        <pt x="79" y="310" on="1"/>
        <pt x="79" y="362" on="0"/>
        <pt x="158" y="421" on="0"/>
        <pt x="215" y="421" on="1"/>
        <pt x="264" y="421" on="0"/>
        <pt x="334" y="372" on="0"/>
        <pt x="334" y="328" on="1"/>
        <pt x="334" y="293" on="0"/>
        <pt x="290" y="240" on="0"/>
        <pt x="244" y="220" on="1"/>
      </contour>
      <contour>
        <pt x="175" y="383" on="0"/>
        <pt x="128" y="346" on="0"/>
        <pt x="128" y="312" on="1"/>
        <pt x="128" y="287" on="0"/>
        <pt x="156" y="254" on="0"/>
        <pt x="190" y="242" on="1"/>
        <pt x="207" y="235" on="1"/>
        <pt x="247" y="254" on="0"/>
        <pt x="284" y="296" on="0"/>
        <pt x="284" y="326" on="1"/>
        <pt x="284" y="353" on="0"/>
        <pt x="245" y="383" on="0"/>
        <pt x="212" y="383" on="1"/>
      </contour>
      <contour>
        <pt x="216" y="33" on="0"/>
        <pt x="272" y="83" on="0"/>
        <pt x="272" y="119" on="1"/>
        <pt x="272" y="147" on="0"/>
        <pt x="239" y="180" on="0"/>
        <pt x="200" y="195" on="1"/>
        <pt x="177" y="204" on="1"/>
        <pt x="122" y="186" on="0"/>
        <pt x="82" y="134" on="0"/>
        <pt x="82" y="97" on="1"/>
        <pt x="82" y="66" on="0"/>
        <pt x="125" y="33" on="0"/>
        <pt x="162" y="33" on="1"/>
      </contour>
    </TTGlyph>
    <TTGlyph name="eight.numr" xMin="33" yMin="264" xMax="336" yMax="693">
      <component glyphName="eight.dnom" x="1" y="271" flags="0x0"/>
    </TTGlyph>
    <TTGlyph name="eight.osf" xMin="39" yMin="-11" xMax="491" yMax="676">
      <contour>
        <pt x="411" y="324" on="0"/>
        <pt x="471" y="250" on="0"/>
        <pt x="471" y="197" on="1"/>
        <pt x="471" y="142" on="0"/>
        <pt x="415" y="47" on="0"/>
        <pt x="306" y="-11" on="0"/>
        <pt x="231" y="-11" on="1"/>
        <pt x="142" y="-11" on="0"/>
        <pt x="39" y="81" on="0"/>
        <pt x="39" y="155" on="1"/>
        <pt x="39" y="219" on="0"/>
        <pt x="117" y="324" on="0"/>
        <pt x="209" y="358" on="1"/>
        <pt x="115" y="404" on="0"/>
        <pt x="115" y="496" on="1"/>
        <pt x="115" y="552" on="0"/>
        <pt x="175" y="634" on="0"/>
        <pt x="270" y="676" on="0"/>
        <pt x="323" y="676" on="1"/>
        <pt x="393" y="676" on="0"/>
        <pt x="491" y="600" on="0"/>
        <pt x="491" y="531" on="1"/>
        <pt x="491" y="469" on="0"/>
        <pt x="424" y="386" on="0"/>
        <pt x="348" y="351" on="1"/>
      </contour>
      <contour>
        <pt x="172" y="453" on="0"/>
        <pt x="220" y="402" on="0"/>
        <pt x="277" y="380" on="1"/>
        <pt x="306" y="369" on="1"/>
        <pt x="376" y="404" on="0"/>
        <pt x="434" y="480" on="0"/>
        <pt x="434" y="531" on="1"/>
        <pt x="434" y="578" on="0"/>
        <pt x="374" y="630" on="0"/>
        <pt x="323" y="630" on="1"/>
        <pt x="254" y="630" on="0"/>
        <pt x="172" y="553" on="0"/>
        <pt x="172" y="496" on="1"/>
      </contour>
      <contour>
        <pt x="312" y="38" on="0"/>
        <pt x="412" y="125" on="0"/>
        <pt x="412" y="200" on="1"/>
        <pt x="412" y="244" on="0"/>
        <pt x="354" y="300" on="0"/>
        <pt x="285" y="327" on="1"/>
        <pt x="254" y="339" on="1"/>
        <pt x="165" y="305" on="0"/>
        <pt x="98" y="211" on="0"/>
        <pt x="98" y="154" on="1"/>
        <pt x="98" y="100" on="0"/>
        <pt x="170" y="38" on="0"/>
        <pt x="233" y="38" on="1"/>
      </contour>
    </TTGlyph>
    <TTGlyph name="eight.tf" xMin="48" yMin="-11" xMax="508" yMax="696">
      <contour>
        <pt x="426" y="335" on="0"/>
        <pt x="487" y="255" on="0"/>
        <pt x="487" y="198" on="1"/>
        <pt x="487" y="147" on="0"/>
        <pt x="437" y="52" on="0"/>
        <pt x="327" y="-11" on="0"/>
        <pt x="244" y="-11" on="1"/>
        <pt x="185" y="-11" on="0"/>
        <pt x="97" y="33" on="0"/>
        <pt x="48" y="112" on="0"/>
        <pt x="48" y="162" on="1"/>
        <pt x="48" y="229" on="0"/>
        <pt x="127" y="334" on="0"/>
        <pt x="222" y="368" on="1"/>
        <pt x="173" y="393" on="0"/>
        <pt x="126" y="461" on="0"/>
        <pt x="126" y="509" on="1"/>
        <pt x="126" y="554" on="0"/>
        <pt x="174" y="640" on="0"/>
        <pt x="270" y="696" on="0"/>
        <pt x="338" y="696" on="1"/>
        <pt x="409" y="696" on="0"/>
        <pt x="508" y="617" on="0"/>
        <pt x="508" y="547" on="1"/>
        <pt x="508" y="486" on="0"/>
        <pt x="443" y="399" on="0"/>
        <pt x="364" y="361" on="1"/>
      </contour>
      <contour>
        <pt x="182" y="465" on="0"/>
        <pt x="234" y="411" on="0"/>
        <pt x="294" y="388" on="1"/>
        <pt x="322" y="379" on="1"/>
        <pt x="396" y="416" on="0"/>
        <pt x="451" y="496" on="0"/>
        <pt x="451" y="546" on="1"/>
        <pt x="451" y="595" on="0"/>
        <pt x="390" y="650" on="0"/>
        <pt x="338" y="650" on="1"/>
        <pt x="291" y="650" on="0"/>
        <pt x="220" y="612" on="0"/>
        <pt x="182" y="547" on="0"/>
        <pt x="182" y="509" on="1"/>
      </contour>
      <contour>
        <pt x="309" y="38" on="0"/>
        <pt x="391" y="86" on="0"/>
        <pt x="428" y="159" on="0"/>
        <pt x="428" y="198" on="1"/>
        <pt x="428" y="249" on="0"/>
        <pt x="368" y="310" on="0"/>
        <pt x="299" y="336" on="1"/>
        <pt x="266" y="348" on="1"/>
        <pt x="107" y="289" on="0"/>
        <pt x="107" y="161" on="1"/>
        <pt x="107" y="104" on="0"/>
        <pt x="184" y="38" on="0"/>
        <pt x="246" y="38" on="1"/>
      </contour>
    </TTGlyph>
    <TTGlyph name="eight.tosf" xMin="50" yMin="-11" xMax="508" yMax="676">
      <contour>
        <pt x="427" y="324" on="0"/>
        <pt x="489" y="250" on="0"/>
        <pt x="489" y="197" on="1"/>
        <pt x="489" y="142" on="0"/>
        <pt x="432" y="47" on="0"/>
        <pt x="321" y="-11" on="0"/>
        <pt x="244" y="-11" on="1"/>
        <pt x="155" y="-11" on="0"/>
        <pt x="50" y="81" on="0"/>
        <pt x="50" y="155" on="1"/>
        <pt x="50" y="218" on="0"/>
        <pt x="130" y="324" on="0"/>
        <pt x="222" y="358" on="1"/>
        <pt x="127" y="405" on="0"/>
        <pt x="127" y="496" on="1"/>
        <pt x="127" y="552" on="0"/>
        <pt x="187" y="634" on="0"/>
        <pt x="284" y="676" on="0"/>
        <pt x="337" y="676" on="1"/>
        <pt x="409" y="676" on="0"/>
        <pt x="508" y="600" on="0"/>
        <pt x="508" y="531" on="1"/>
        <pt x="508" y="469" on="0"/>
        <pt x="440" y="386" on="0"/>
        <pt x="362" y="351" on="1"/>
      </contour>
      <contour>
        <pt x="183" y="453" on="0"/>
        <pt x="233" y="402" on="0"/>
        <pt x="290" y="380" on="1"/>
        <pt x="320" y="369" on="1"/>
        <pt x="392" y="404" on="0"/>
        <pt x="450" y="480" on="0"/>
        <pt x="450" y="531" on="1"/>
        <pt x="450" y="579" on="0"/>
        <pt x="390" y="630" on="0"/>
        <pt x="336" y="630" on="1"/>
        <pt x="291" y="630" on="0"/>
        <pt x="221" y="594" on="0"/>
        <pt x="183" y="533" on="0"/>
        <pt x="183" y="496" on="1"/>
      </contour>
      <contour>
        <pt x="328" y="38" on="0"/>
        <pt x="430" y="125" on="0"/>
        <pt x="430" y="200" on="1"/>
        <pt x="430" y="245" on="0"/>
        <pt x="370" y="301" on="0"/>
        <pt x="299" y="327" on="1"/>
        <pt x="267" y="338" on="1"/>
        <pt x="178" y="305" on="0"/>
        <pt x="110" y="211" on="0"/>
        <pt x="110" y="154" on="1"/>
        <pt x="110" y="100" on="0"/>
        <pt x="184" y="38" on="0"/>
        <pt x="247" y="38" on="1"/>
      </contour>
    </TTGlyph>
    <TTGlyph name="eightinferior" xMin="-34" yMin="-205" xMax="270" yMax="224">
      <component glyphName="eight.dnom" x="-64" y="-197" flags="0x0"/>
    </TTGlyph>
    <TTGlyph name="eightsuperior" xMin="40" yMin="315" xMax="343" yMax="744">
      <component glyphName="eight.dnom" x="8" y="322" flags="0x0"/>
    </TTGlyph>
    <TTGlyph name="ellipsis" xMin="24" yMin="-11" xMax="541" yMax="84">
      <component glyphName="period" x="211" y="0" flags="0x0"/>
      <component glyphName="period" x="422" y="0" flags="0x0"/>
      <component glyphName="period" x="0" y="0" flags="0x0"/>
    </TTGlyph>
    <TTGlyph name="emacron" xMin="59" yMin="-11" xMax="481" yMax="723">
      <component glyphName="e" x="0" y="0" flags="0x0"/>
      <component glyphName="macron" x="126" y="0" flags="0x0"/>
    </TTGlyph>
    <TTGlyph name="emacron.sc" xMin="74" yMin="0" xMax="457" yMax="753">
      <component glyphName="e.sc" x="0" y="0" flags="0x0"/>
      <component glyphName="macron.sc" x="156" y="0" flags="0x0"/>
    </TTGlyph>
    <TTGlyph name="emdash" xMin="43" yMin="288" xMax="749" yMax="338">
      <contour>
        <pt x="749" y="338" on="1"/>
        <pt x="743" y="288" on="1"/>
        <pt x="43" y="288" on="1"/>
        <pt x="50" y="338" on="1"/>
      </contour>
    </TTGlyph>
    <TTGlyph name="emdash.case" xMin="49" yMin="333" xMax="755" yMax="383">
      <component glyphName="emdash" x="6" y="45" flags="0x0"/>
    </TTGlyph>
    <TTGlyph name="emptyset" xMin="84" yMin="-16" xMax="816" yMax="716">
      <contour>
        <pt x="742" y="587" on="0"/>
        <pt x="816" y="436" on="0"/>
        <pt x="816" y="349" on="1"/>
        <pt x="816" y="248" on="0"/>
        <pt x="718" y="81" on="0"/>
        <pt x="551" y="-16" on="0"/>
        <pt x="451" y="-16" on="1"/>
        <pt x="394" y="-16" on="0"/>
        <pt x="288" y="17" on="0"/>
        <pt x="243" y="47" on="1"/>
        <pt x="199" y="-12" on="1"/>
        <pt x="148" y="-12" on="1"/>
        <pt x="210" y="72" on="1"/>
        <pt x="151" y="123" on="0"/>
        <pt x="84" y="267" on="0"/>
        <pt x="84" y="349" on="1"/>
        <pt x="84" y="450" on="0"/>
        <pt x="183" y="618" on="0"/>
        <pt x="351" y="716" on="0"/>
        <pt x="451" y="716" on="1"/>
        <pt x="555" y="716" on="0"/>
        <pt x="644" y="662" on="1"/>
        <pt x="681" y="712" on="1"/>
        <pt x="732" y="712" on="1"/>
        <pt x="678" y="638" on="1"/>
      </contour>
      <contour>
        <pt x="130" y="278" on="0"/>
        <pt x="186" y="153" on="0"/>
        <pt x="236" y="108" on="1"/>
        <pt x="618" y="627" on="1"/>
        <pt x="543" y="674" on="0"/>
        <pt x="451" y="674" on="1"/>
        <pt x="363" y="674" on="0"/>
        <pt x="216" y="586" on="0"/>
        <pt x="130" y="437" on="0"/>
        <pt x="130" y="349" on="1"/>
      </contour>
      <contour>
        <pt x="539" y="26" on="0"/>
        <pt x="686" y="112" on="0"/>
        <pt x="770" y="260" on="0"/>
        <pt x="770" y="349" on="1"/>
        <pt x="770" y="425" on="0"/>
        <pt x="707" y="557" on="0"/>
        <pt x="652" y="603" on="1"/>
        <pt x="268" y="82" on="1"/>
        <pt x="351" y="26" on="0"/>
        <pt x="451" y="26" on="1"/>
      </contour>
    </TTGlyph>
    <TTGlyph name="endash" xMin="42" yMin="288" xMax="488" yMax="338">
      <contour>
        <pt x="488" y="338" on="1"/>
        <pt x="481" y="288" on="1"/>
        <pt x="42" y="288" on="1"/>
        <pt x="50" y="338" on="1"/>
      </contour>
    </TTGlyph>
    <TTGlyph name="endash.case" xMin="48" yMin="333" xMax="494" yMax="383">
      <component glyphName="endash" x="6" y="45" flags="0x0"/>
    </TTGlyph>
    <TTGlyph name="eng" xMin="69" yMin="-204" xMax="499" yMax="534">
      <contour>
        <pt x="435" y="534" on="0"/>
        <pt x="499" y="468" on="0"/>
        <pt x="499" y="408" on="1"/>
        <pt x="499" y="392" on="0"/>
        <pt x="496" y="372" on="1"/>
        <pt x="445" y="16" on="1"/>
        <pt x="435" y="-52" on="0"/>
        <pt x="396" y="-131" on="0"/>
        <pt x="333" y="-179" on="0"/>
        <pt x="277" y="-204" on="1"/>
        <pt x="260" y="-160" on="1"/>
        <pt x="302" y="-141" on="0"/>
        <pt x="350" y="-104" on="0"/>
        <pt x="381" y="-40" on="0"/>
        <pt x="388" y="14" on="1"/>
        <pt x="438" y="367" on="1"/>
        <pt x="441" y="388" on="0"/>
        <pt x="441" y="403" on="1"/>
        <pt x="441" y="447" on="0"/>
        <pt x="400" y="485" on="0"/>
        <pt x="359" y="485" on="1"/>
        <pt x="309" y="485" on="0"/>
        <pt x="211" y="391" on="0"/>
        <pt x="170" y="313" on="1"/>
        <pt x="126" y="0" on="1"/>
        <pt x="69" y="0" on="1"/>
        <pt x="143" y="523" on="1"/>
        <pt x="191" y="523" on="1"/>
        <pt x="178" y="390" on="1"/>
        <pt x="216" y="456" on="0"/>
        <pt x="321" y="534" on="0"/>
        <pt x="376" y="534" on="1"/>
      </contour>
    </TTGlyph>
    <TTGlyph name="eng.sc" xMin="74" yMin="-204" xMax="546" yMax="562">
      <contour>
        <pt x="467" y="0" on="1"/>
        <pt x="459" y="-59" on="0"/>
        <pt x="419" y="-132" on="0"/>
        <pt x="355" y="-179" on="0"/>
        <pt x="300" y="-204" on="1"/>
        <pt x="284" y="-166" on="1"/>
        <pt x="328" y="-146" on="0"/>
        <pt x="380" y="-108" on="0"/>
        <pt x="411" y="-48" on="0"/>
        <pt x="416" y="0" on="1"/>
        <pt x="396" y="0" on="1"/>
        <pt x="190" y="506" on="1"/>
        <pt x="187" y="421" on="0"/>
        <pt x="169" y="295" on="1"/>
        <pt x="128" y="0" on="1"/>
        <pt x="74" y="0" on="1"/>
        <pt x="153" y="562" on="1"/>
        <pt x="224" y="562" on="1"/>
        <pt x="430" y="55" on="1"/>
        <pt x="432" y="135" on="0"/>
        <pt x="448" y="239" on="1"/>
        <pt x="493" y="562" on="1"/>
        <pt x="546" y="562" on="1"/>
      </contour>
    </TTGlyph>
</ttFont>
